<?xml version="1.0" encoding="UTF-8"?>
<svg id="Calque_2" data-name="Calque 2" xmlns="http://www.w3.org/2000/svg" viewBox="0 0 67.6 70">
  <defs>
    <style>
      path {
        fill: #fff;
      }
    </style>
  </defs>
  <g id="Calque_1-2" data-name="Calque 1">
    <g>
      <path d="M53.66,36.88c2.74-2.47,6.14-1.01,6.9,1.86,.21-.16,.41-.29,.6-.44,1.75-1.34,4.14-1.1,5.52,.55,1.36,1.63,1.22,4.03-.42,5.48-2.1,1.86-4.26,3.64-6.4,5.45-2.78,2.36-5.58,4.69-8.34,7.08-2.17,1.88-4.68,2.84-7.51,3.06-.5,.04-1,.12-1.49,.15-.74,.05-1.16-.28-1.22-.88-.06-.64,.33-1.08,1.05-1.17,1.04-.14,2.08-.24,3.11-.41,1.64-.26,3.08-.96,4.34-2.03,4.98-4.21,9.95-8.42,14.92-12.64,.93-.79,1.07-1.92,.36-2.78-.67-.81-1.84-.9-2.74-.14-3.09,2.59-6.17,5.2-9.24,7.82-.89,.76-1.9,1.12-3.07,1.12-2.6,0-5.2-.01-7.8,.02-.32,0-.7,.16-.94,.38-.96,.86-2.06,1.31-3.35,1.31-2.99,0-5.97,0-8.96,0-.84,0-1.25-.35-1.25-1.02,0-.66,.43-1.04,1.25-1.04,3.01-.01,6.02,0,9.03-.01,1.57-.01,2.69-1.24,2.61-2.79-.07-1.28-1.16-2.41-2.44-2.42-5.15-.02-10.31-.2-15.45,.06-5.16,.27-9.2,2.86-11.73,7.39-1.2,2.15-2.65,4.07-4.15,5.98-1.55,1.97-3.11,3.93-4.67,5.9-.67,.84-1.27,1.04-1.81,.61-.55-.44-.5-1.02,.19-1.9,2.33-2.95,4.67-5.89,6.99-8.85,.36-.46,.66-.98,.92-1.5,2.6-5.3,6.8-8.49,12.6-9.56,.93-.17,1.9-.2,2.86-.2,4.6-.02,9.21-.08,13.81,.04,1.24,.03,2.1-.29,2.99-1.09,2.14-1.91,4.34-3.76,6.57-5.57,2.08-1.69,5.11-.84,6.12,1.64,.08,.18,.15,.37,.22,.57Zm-8.54,10c1.86,0,3.5,.03,5.14-.02,.43-.01,.93-.16,1.26-.43,2.17-1.8,4.31-3.64,6.44-5.49,.66-.57,.77-1.44,.41-2.19-.57-1.18-2-1.4-3.11-.46-2.11,1.77-4.2,3.56-6.3,5.34-1.22,1.04-2.45,2.08-3.83,3.26Zm-2.41-.67c2.9-2.46,5.7-4.78,8.43-7.19,1.01-.89,.5-2.62-.79-3.04-.72-.24-1.34-.05-1.9,.42-1.74,1.47-3.47,2.94-5.21,4.41-.67,.57-1.33,1.13-2.02,1.71,1,1.03,1.49,2.17,1.49,3.68Z"/>
      <path d="M22.98,33.82c.6-1.33,1.13-2.48,1.63-3.65,.26-.63,.66-.91,1.35-.9,1.8,.03,3.6,0,5.4,.01,.84,0,1.33,.41,1.31,1.05-.02,.62-.5,1-1.3,1-1.5,0-3.01,.02-4.51,0-.38,0-.57,.12-.71,.46-.4,.97-.84,1.91-1.26,2.87-.37,.85-.96,1.37-1.93,1.36-.94,0-1.51-.52-1.87-1.34-.41-.94-.86-1.86-1.23-2.81-.17-.44-.42-.54-.87-.55-1.23-.03-2.48,.04-3.67-.21-3.94-.85-6.61-4.19-6.64-8.26-.04-4.79-.05-9.58,0-14.36C8.73,3.61,12.47,0,17.35,0c7.59,0,15.18,0,22.77,0,4.85,0,8.57,3.7,8.59,8.55,.02,4.74,.02,9.48,0,14.23-.02,4.85-3.74,8.54-8.59,8.55-1.3,0-2.6,0-3.9,0-.79,0-1.23-.4-1.21-1.07,.02-.63,.44-.97,1.21-.99,1.71-.04,3.43,.05,5.12-.15,2.99-.36,5.29-3.08,5.31-6.11,.02-4.83,.02-9.67,0-14.5,0-3.64-2.8-6.44-6.46-6.45-5.54-.02-11.08,0-16.62,0-2.07,0-4.15,0-6.22,0-3.67,.01-6.48,2.54-6.56,6.19-.11,5.01-.1,10.03,.02,15.04,.08,3.29,2.84,5.86,6.15,5.97,.98,.03,1.96,.05,2.94,0,.78-.04,1.21,.28,1.5,.99,.47,1.15,1.01,2.27,1.59,3.56Z"/>
      <path d="M36.28,9.64c.96-.92,1.87-1.79,2.78-2.65,.58-.55,1.18-.61,1.63-.17,.49,.48,.42,1.05-.2,1.66-.9,.87-1.8,1.74-2.72,2.6-.27,.25-.32,.45-.18,.82,2.3,5.99-1.07,12.03-7.36,13.22-5.21,.99-10.63-3.16-11.08-8.44-.2-2.31,.27-4.43,1.54-6.37,.43-.66,1.02-.84,1.55-.49,.55,.36,.64,.93,.18,1.61-2.94,4.43-.51,10.61,5.03,11.63,3.91,.73,8-2.07,8.69-5.99,.24-1.37,.18-2.69-.34-4.07-1.83,1.74-3.61,3.44-5.39,5.14-.41,.39-.81,.8-1.23,1.18-.59,.53-1.06,.54-1.62,0-.64-.61-1.27-1.24-1.88-1.89-.45-.48-.46-1.05-.08-1.47,.42-.45,1.02-.47,1.52,0,.41,.39,.77,.84,1.2,1.31,2.21-2.11,4.33-4.14,6.47-6.19-1.4-1.79-3.17-2.81-5.4-3.01-1.31-.12-2.58,.09-3.8,.64-.66,.3-1.25,.08-1.49-.48-.25-.58,0-1.08,.69-1.41,3.61-1.72,8.28-.76,11.02,2.26,.15,.17,.3,.33,.5,.56Z"/>
      <path d="M38.95,59.66c-.09,.55-.39,.9-1.01,.97-2.15,.25-4.29,.53-6.43,.79-.81,.1-1.63,.16-2.44,.3-.23,.04-.47,.24-.63,.44-2.04,2.42-4.06,4.86-6.11,7.27-.24,.28-.66,.56-1,.57-.3,0-.79-.31-.87-.58-.1-.34,0-.89,.22-1.17,1.14-1.45,2.34-2.85,3.53-4.26,.99-1.19,2.01-2.36,2.97-3.57,.38-.47,.83-.67,1.39-.74,3.03-.36,6.05-.73,9.08-1.09,.74-.09,1.33,.38,1.31,1.08Z"/>
    </g>
  </g>
</svg>