<?xml version="1.0" encoding="UTF-8"?>
<svg id="Calque_2" data-name="Calque 2" xmlns="http://www.w3.org/2000/svg" viewBox="0 0 895.61 380.11">
  <defs>
    <style>
      .cls-1 {
        fill: #fff;
      }
    </style>
  </defs>
  <g id="Calque_1-2" data-name="Calque 1">
    <g>
      <path class="cls-1" d="M496.83,140.21c13.02,.06,25.92,1.03,38.3,5.54,2.43,.89,4.79,1.9,7.01,3.23,2.8,1.68,3.43,3.32,2.45,6.5-1.76,5.71-6.02,8.59-11.54,9.84-5.36,1.21-10.84,1.64-16.32,2-14.61,.98-29.26,.95-43.86,2.08-9.05,.7-18.01,1.93-26.76,4.41-1.97,.56-5.06,.63-4.94,3.25,.11,2.38,3.13,2.34,5.06,2.71,10.46,2.03,21.11,2.66,31.65,4.05,12.52,1.66,25.11,2.66,37.43,5.75,14.55,3.66,23.41,12.6,25.87,27.3,2.54,15.14-1.45,28.16-14.13,37.79-9.32,7.07-20.11,10.19-31.5,11.34-19.79,2.01-38.18-2.24-54.89-13.18-5.33-3.49-10.02-7.72-13.46-13.16-6.59-10.42-3.44-22.61,7.39-28.6,8.05-4.45,16.87-5.63,25.84-5.21,14.19,.66,28.07,3.1,41.17,8.94,.84,.37,1.67,.75,2.49,1.16,4.99,2.47,5.42,6.58,.55,9.36-11.05,6.29-22.64,8.51-34.84,3.24-5.41-2.33-10.77-4.79-16.42-6.52-3.63-1.11-7.29-1.63-11.05-.77-1.3,.3-2.54,.72-3.69,1.44-4.88,3.07-5.06,8.11-.25,11.25,3.88,2.54,8.25,4.15,12.81,4.6,20.64,2.07,40.67,0,59.42-9.68,2.81-1.45,5.52-3.11,7.79-5.33,2.43-2.38,3.17-6.1,1.31-7.9-1.93-1.86-3.81-3.81-6.39-5.02-6.71-3.14-13.86-4.56-21.06-5.86-14.27-2.59-28.75-3.11-43.14-4.51-5.62-.55-11.25-1.02-16.78-2.29-12.17-2.8-16.96-10.41-14.22-22.67,2.07-9.25,7.7-15.84,15.51-20.8,8.61-5.47,18.19-8.43,28.05-10.63,11.57-2.58,23.31-3.68,35.15-3.66Z"/>
      <path class="cls-1" d="M697.78,231.61c5.47,.8,10.54-.8,15.68-1.58,9.86-1.49,19.7-3.15,29.56-4.62,3.3-.49,6.72-.83,9.28,2.11,3.31,3.81,5.76,8.02,5.08,13.29-.42,3.31-2.96,5.3-5.38,7.22-6.82,5.39-14.31,9.7-22.18,13.34-8.85,4.1-17.94,7.65-27.77,8.35-17.2,1.23-28.58-8.06-32.25-23.4-2.03-8.48-.97-16.84,2.21-24.93,1.24-3.17,2.57-6.31,3.98-9.4,.87-1.91,.98-3.78,.51-5.8-.58-2.51-1-5.05-1.46-7.58-1.16-6.33,1.42-10.33,7.82-11.03,3.37-.37,4.85-2.11,5.85-4.83,1.87-5.06,3.62-10.16,5.58-15.19,.58-1.48,.06-1.8-1.19-2.09-4.38-1-8.74-2.05-12.77-4.14-2.97-1.54-5.32-3.67-6.72-6.76-1.98-4.37-.76-7.26,3.88-8.59,2.95-.85,5.98-1.41,9.01-1.98,19.47-3.65,39.1-5.99,58.87-7.21,12.23-.75,21.76,4.39,28.34,17.25,2.83,5.55,1.29,8.99-4.62,10.91-7.34,2.38-14.98,2.9-22.62,3.38-8.73,.54-17.47,.39-26.21,.34-1.6,0-2.29,.43-2.72,2.04-1.28,4.79-2.8,9.53-4.22,14.27,7.5,0,14.88,.08,22.25-.03,3.58-.05,7.16-.18,10.71,.35,3.39,.51,5.87,2.32,6.88,5.7,1.04,3.48,1.12,7.05,.45,10.61-.6,3.16-2.83,4.72-5.82,4.9-5.31,.32-10.64,.31-15.96,.55-8.3,.38-16.64-.26-24.91,1.08-.97,.16-1.63,.32-2.03,1.37-2.69,7.23-5.04,14.56-7.12,22.09Z"/>
      <path class="cls-1" d="M550.36,232.86c.76-23.88,5.43-48.65,14.53-72.54,1-2.64,2.17-5.23,4.07-7.39,2.58-2.93,5.59-3.64,9.22-2.17,3.22,1.31,5.44,3.79,7.38,6.52,11.69,16.38,22.84,33.12,33.65,50.1,2.45,3.86,5.03,7.63,7.58,11.43,.46,.69,1,1.33,1.58,1.92,.58,.59,1.26,1.28,2.16,.93,1-.39,.71-1.39,.7-2.19-.19-16.04-2.74-31.76-6.66-47.26-3.17-12.55-6.61-25.04-9.91-37.55-.6-2.26-.93-4.57-.89-6.9,.07-4.63,2.99-6.63,7.37-5.06,3.15,1.13,5.54,3.35,7.76,5.72,11.62,12.4,18.92,27.21,23.79,43.3,4.76,15.72,7.07,31.77,5.53,48.21-1.07,11.48-3.5,22.57-11.59,31.46-5.28,5.8-11.87,8.41-19.75,6.88-4.04-.79-6.51-3.87-8.94-6.82-7.32-8.9-13.11-18.81-18.57-28.91-5.09-9.43-10.03-18.93-15.1-28.37-.84-1.56-1.51-4.17-3.38-3.84-1.78,.32-1.22,3-1.37,4.61-.78,8.61-1.06,17.25-1.41,25.88-.44,10.71-.27,21.45-1.69,32.1-.24,1.81-.64,3.6-1.07,5.38-2.69,11.05-11.94,9.58-17.38,4.89-2.72-2.35-4.18-5.55-5.19-8.94-1.93-6.43-2.39-13.05-2.44-21.38Z"/>
      <path class="cls-1" d="M406.36,239.91c0,4.44,.63,11.18-.91,17.83-1.12,4.87-3.89,7.39-8.85,8.11-2.75,.4-5.48,.31-8.19-.26-6.5-1.38-10.26-5.96-11.44-13.99-1.77-12.05-1.77-24.19-1.69-36.33,.08-12.46,.43-24.93,1.71-37.34,.93-9.09,2.13-18.15,4.45-27.01,.7-2.66,1.73-5.19,3.39-7.42,1.29-1.73,2.93-2.3,5.04-1.63,4.78,1.53,7.54,4.98,9.07,9.54,1.96,5.86,2.79,11.95,3.45,18.06,1.86,17.28,2.63,34.62,3.16,51.98,.16,5.39,.47,10.78,.81,18.45Z"/>
      <path class="cls-1" d="M358.5,176.51c-1.07-10.55-4.93-20.18-9.48-29.72-5.79-12.13-13.3-23-21.75-33.32-17.57-21.46-38.82-38.83-61.83-53.97-33.29-21.91-69.52-37.55-107.86-48.33C125.02,2.03,92.02-2.59,58.18,1.5c-11.74,1.42-23.35,3.55-34.66,7.01C11.54,12.18,3.8,20.15,.45,32.23c-1.23,4.43,.06,7.92,3.74,9.52,7.39,3.22,15.15,3.8,22.95,1.83,4.06-1.03,4.71-4.79,1.56-7.6-1.96-1.75-4.43-2.14-6.92-2.52-2.84-.43-5.81-.23-8.72-1.81,1.46-1.34,3.02-1.62,4.51-2.11,12.75-4.17,26-4.56,39.21-4.86,17.51-.39,34.91,1.08,52.19,3.92,39.44,6.47,76.83,19.1,112.15,37.76,25.37,13.4,48.85,29.48,68.8,50.29,13.43,14.01,24.25,29.78,30.86,48.15,8.38,23.31,2.32,47.27-16.01,63.29-9.9,8.66-21.51,14.39-33.88,18.62-15.8,5.4-32.19,7.37-48.78,8.23-16.62,.87-33.08-.41-49.43-3.36-1.21-.22-2.02-.48-2.05-2.13-.47-25.94-1.01-51.88-1.62-77.81-.05-1.99,.59-2.26,2.4-2.18,9.31,.39,18.6,.93,27.82,2.34,13.32,2.04,26.56,4.43,39.46,8.45,3.01,.94,6.02,1.95,8.73,3.61,3.98,2.44,4.48,5.9,1.41,9.36-1.56,1.76-3.35,3.22-5.45,4.32-1.91,1.01-3.77,2.12-5.68,3.11-1.33,.69-2.43,1.45-2.26,3.19,.16,1.63,1.4,2.15,2.65,2.65,2.48,.98,5.11,1.37,7.71,1.93,11.28,2.4,21.55-4.49,26.85-12.85,5.99-9.46,4.76-19.08-1.81-28.1-5.86-8.04-13.98-13.25-23.26-16.51-24.91-8.76-50.59-12.62-77-11.33-1.63,.08-1.98-.26-1.97-1.79,.02-7.15-.33-14.29-1.06-21.41-.98-9.53-2.61-18.93-6.63-27.75-1.85-4.06-4.24-7.74-8.07-10.24-3.1-2.02-5.66-1.31-7.04,2.07-.9,2.22-1.71,4.52-2.19,6.86-3.35,16.4-5.25,32.96-5.54,49.72-.12,6.8,.97,5.64-5.76,6.72-18.33,2.94-35.92,8.27-52.76,16-6.9,3.17-13.35,7.14-18.73,12.63-7.07,7.23-8.63,16.33-4.33,25.44,3.12,6.62,7.46,12.4,12.47,17.66,18.81,19.76,40.84,35.02,65.59,46.41,1.72,.79,2.39,1.72,2.59,3.66,.62,6.11,.86,12.3,2.9,18.18,2.43,7.04,6.95,10.48,14.23,10.82,2.75,.13,5.49-.24,8.15-.98,3.02-.84,5.01-2.83,6.14-5.72,1.17-2.98,1.68-6.08,1.56-9.28-.07-1.81,.25-2.65,2.5-2.09,13.42,3.35,27.06,5.48,40.88,6.05,25.68,1.06,50.74-2.27,75.06-10.86,26.59-9.39,48.22-24.62,61.47-50.36,7.32-14.21,10.03-29.11,8.44-44.87Zm-221.81,51.22v13.75c-7.42-2.52-14.78-5.32-21.77-8.97-12.18-6.36-23.91-13.46-34.57-22.17-4.95-4.04-9.6-8.47-13.75-13.37-.8-.95-1.56-1.96-2.15-3.05-2.01-3.72-1.41-6.44,2.09-8.82,4.67-3.17,10.02-4.77,15.41-6.19,15.88-4.19,32.06-6.51,48.42-7.64,2.05-.14,4.63-1.36,6.02-.14,1.41,1.24,.25,3.91,.26,5.94,.07,16.88,.04,33.76,.04,50.64Z"/>
      <path class="cls-1" d="M895.08,186.07c-.97-9.05-3.81-17.53-9.82-24.65-6.7-7.95-14.63-9.5-23.84-4.76-5.58,2.87-10.63,6.46-15.22,10.76-15.94,14.95-30.52,31.1-42.98,49.1-2.29,3.32-4.75,6.52-7.39,10.14-1.51-6.59-.02-12.36,1.56-18.12,3.13-11.41,8.72-21.67,14.83-31.7,4.53-7.45,8.9-15.01,11.12-23.57,.69-2.67,1.24-5.37,.71-8.13-.68-3.57-3.42-4.83-6.48-2.91-1.47,.92-2.89,2-4.08,3.25-14.64,15.33-26.17,32.65-33.45,52.63-6.51,17.86-7.13,35.7,.73,53.38,.6,1.36,.15,2.41-.27,3.56-2.82,7.71-5.76,15.38-8.47,23.13-7.64,21.84-11.98,44.37-13.85,67.39-.51,6.22-.27,12.46,1.9,18.47,2.84,7.84,9.24,11.9,16.21,15.33,3.78,1.86,7.4,.06,8.31-4.09,2.09-9.57,4.23-19.13,6.14-28.74,4.65-23.39,10.38-46.49,17.96-69.12,.59-1.76,1.3-2.45,3.3-2.33,4.32,.28,8.64,.09,12.93-.66,13.96-2.43,26.38-8.38,37.69-16.73,24.15-17.83,35.68-41.46,32.45-71.64Zm-41.52,47.65c-7.22,4.54-14.97,7.94-23.61,8.76-1.28,.12-2.95,.73-3.7-.3-.61-.85,.67-2.09,1.27-3.03,11.88-18.33,22.72-37.39,37.67-53.56,1.86-2.01,3.82-3.94,5.85-5.78,1.98-1.8,3.73-1.45,5.09,.87,2.02,3.43,2.21,7.25,2.39,11.16-1.36,18.08-9.54,32.18-24.96,41.89Z"/>
      <path class="cls-1" d="M468.11,61.15c-.48-12.84-11.25-20.99-21.25-22.72-1.24-.21-2.44-.41-3.3-1.49-6.52-8.17-15.37-11.6-25.47-11.27-27.38,.89-49.01,13.22-64.86,35.07-9.65,13.31-10.55,27.68-.33,41.64,1.75,2.38,2.59,5,2.13,7.46-.23,6.33,1.29,11.53,5.56,15.7,2.9,2.83,6.15,2.75,9-.15,1.24-1.26,2.05-2.82,2.86-4.36q1.82-3.44,5.5-2.45c10.53,2.83,21.01,2.67,31.46-.49,15.34-4.63,28.57-12.86,40.3-23.62,4.54-4.16,9.06-8.34,12.35-13.64,3.75-6.03,6.32-12.44,6.05-19.67Zm-103.29,26.22c-2.84-3.24-3.09-8.07-.62-13,3.9-7.78,10.29-13.08,17.52-17.56,4.52-2.8,9.27-4.78,15.24-4.84-12.62,10.53-23.59,21.86-32.15,35.4Zm85.8-19.31c-1.33,5.33-4.72,9.32-8.74,12.77-13.43,11.53-29.13,16.95-46.75,17.1-2.51,.04-4.99-.09-7.47-.43-1.47-.2-1.68-.67-.83-1.89,10.12-14.52,22.64-26.54,37.54-36.08,3.95-2.53,8.32-4.11,12.9-5.12,8.98-1.98,15.57,4.74,13.35,13.66Z"/>
    </g>
  </g>
</svg>