<?xml version="1.0" encoding="UTF-8"?>
<svg id="Calque_2" data-name="Calque 2" xmlns="http://www.w3.org/2000/svg" viewBox="0 0 359.89 402.87">
  <defs>
    <style>
      .cls-1 {
        font-size: 11px;
      }

      .cls-1, .cls-2, .cls-3, .cls-4, .cls-5, .cls-6, .cls-7, .cls-8, .cls-9, .cls-10, .cls-11, .cls-12, .cls-13, .cls-14, .cls-15, .cls-16, .cls-17, .cls-18, .cls-19, .cls-20, .cls-21, .cls-22, .cls-23, .cls-24, .cls-25, .cls-26, .cls-27, .cls-28, .cls-29, .cls-30, .cls-31, .cls-32, .cls-33, .cls-34 {
        isolation: isolate;
      }

      .cls-1, .cls-2, .cls-3, .cls-4, .cls-5, .cls-6, .cls-7, .cls-8, .cls-9, .cls-10, .cls-11, .cls-12, .cls-13, .cls-14, .cls-15, .cls-17, .cls-18, .cls-19, .cls-20, .cls-21, .cls-22, .cls-23, .cls-24, .cls-25, .cls-26, .cls-27, .cls-28, .cls-29, .cls-30, .cls-31, .cls-32, .cls-33, .cls-34 {
        font-family: Poppins-Regular, Poppins;
      }

      .cls-35 {
        fill: #fff;
      }

      .cls-36 {
        fill: #448ecc;
      }

      .cls-2 {
        font-size: 11px;
      }

      .cls-3 {
        font-size: 10px;
      }

      .cls-4 {
        font-size: 11.21px;
      }

      .cls-5 {
        font-size: 11.21px;
      }

      .cls-6 {
        font-size: 11.21px;
      }

      .cls-7 {
        font-size: 11.21px;
      }

      .cls-8 {
        font-size: 11.21px;
      }

      .cls-9 {
        font-size: 10px;
      }

      .cls-10 {
        font-size: 10px;
      }

      .cls-11 {
        font-size: 11.21px;
      }

      .cls-12 {
        font-size: 11.21px;
      }

      .cls-13 {
        font-size: 11.21px;
      }

      .cls-14 {
        font-size: 11.21px;
      }

      .cls-15 {
        font-size: 11.21px;
      }

      .cls-37 {
        letter-spacing: -.06em;
      }

      .cls-16 {
        font-family: ArialMT, Arial;
        font-size: 12px;
      }

      .cls-38 {
        fill: none;
        stroke: #000;
        stroke-miterlimit: 10;
      }

      .cls-17 {
        font-size: 10px;
      }

      .cls-18 {
        font-size: 10px;
      }

      .cls-19 {
        font-size: 10px;
      }

      .cls-20 {
        font-size: 10px;
      }

      .cls-21 {
        font-size: 10px;
      }

      .cls-22 {
        font-size: 10px;
      }

      .cls-23 {
        font-size: 10px;
      }

      .cls-24 {
        font-size: 10px;
      }

      .cls-25 {
        font-size: 10px;
      }

      .cls-26 {
        font-size: 10px;
      }

      .cls-27 {
        font-size: 10px;
      }

      .cls-28 {
        font-size: 10px;
      }

      .cls-29 {
        font-size: 10px;
      }

      .cls-30 {
        font-size: 10px;
      }

      .cls-31 {
        font-size: 11px;
      }

      .cls-32 {
        font-size: 11px;
      }

      .cls-33 {
        font-size: 11px;
      }

      .cls-34 {
        font-size: 11px;
      }
    </style>
  </defs>
  <g id="Calque_2-2" data-name="Calque 2">
    <g id="Calque_3" data-name="Calque 3">
      <path class="cls-38" d="M31.88,284.2c17,39.7,47.9,61.6,53.5,65.5,5,3.5,40.6,27.3,86,26.7,59.5-.8,116.2-43.3,145-107.4"/>
      <path class="cls-38" d="M137.28,77.1c-58.6,13.6-104.2,61.1-115,120.7"/>
      <path class="cls-38" d="M318.38,187.4c-13.7-53.9-56.3-96.3-110.4-109.7"/>
    </g>
    <g id="Calque_1-2" data-name="Calque 1-2">
      <g>
        <path class="cls-35" d="M194.28,236.5c.1,0,.1-.1,0-.1v-.2c.8-.1,1.6-.2,2.4-.3,.2,.5,.5,.8,1,.7,1.2-.2,2.5-.6,3.5-1.4,.6-.4,.9-.9,.9-1.7v-27.9c0-.6-.2-1-.6-1.4-.4-.4-1-.7-1.6-1-1.5-.6-3-.9-4.6-1.1-1.6-.2-3.3-.4-5-.4-.4,0-.6-.1-.5-.6v-1.6c.2-1.4-.6-2.3-1.7-3-1.2-.7-2.5-1.1-3.9-1.4-5-1.2-10.1-1.5-15.2-1.4-2.1,0-4.3,.1-6.4,.3-.6,.1-1.2,.1-1.4,.9-.1,.1-.2,.2-.4,.3-.7,.1-1.4,.2-2.1,.4-.3-.7-.6-.9-1.4-.7-.7,.1-1.4,.3-2.1,.5-1.4,.4-2.8,.8-4,1.8-.6,.5-1,1.2-1,2.1v2c0,.5-.1,.6-.6,.6-2.1,0-4.3,.2-6.4,.6-1.4,.3-2.9,.6-4.2,1.4-.8,.5-1.1,1.1-1.1,2.1v27.4c0,.9,.4,1.6,1.1,2,.8,.5,1.6,.8,2.5,1,2.7,.7,5.4,1,8.1,1,.4,0,.6,.1,.6,.6-.2,1.3,.5,2.2,1.6,2.8,1.2,.7,2.6,1.1,3.9,1.5,4,1,8.1,1.3,12.3,1.4,4.9,.1,9.8-.1,14.6-1,1.9-.4,3.7-.8,5.4-1.8,1.1-.6,2-1.5,1.8-2.9-.1-.4,.2-.5,.5-.5,.9,0,1.9-.1,2.8-.1,.7-.2,1.1-.4,1.2-.9h0Z"/>
        <path d="M161.28,194.8c.1-.8,.8-.8,1.4-.9,2.1-.2,4.3-.3,6.4-.3,5.1,0,10.2,.2,15.2,1.4,1.3,.3,2.6,.7,3.9,1.4,1.1,.7,1.9,1.6,1.7,3-.1,.5,0,1.1,0,1.6,0,.4,.1,.6,.5,.6,1.7,0,3.3,.2,5,.4,1.6,.2,3.1,.5,4.6,1.1,.6,.2,1.1,.5,1.6,1,.4,.4,.6,.8,.6,1.4v27.9c0,.8-.4,1.3-.9,1.7-1.1,.8-2.3,1.1-3.5,1.4-.5,.1-.9-.2-1-.7-.1-.7,.3-1,.9-1.2,.8-.2,1.5-.4,2.2-.8,.2-.1,.4-.2,.4-.5v-4.6c-.2,.1-.3,.1-.4,.1-1.5,.6-3,.9-4.5,1.1-1.7,.2-3.3,.3-5,.4-.4,0-.5,.1-.5,.5v4.1c0,.4,.2,.5,.5,.5,.9-.1,1.8-.1,2.7-.1,.6-.1,1.1,.2,1.2,.8v.3c-.2,.5-.6,.7-1.1,.8-.9,0-1.9,.1-2.8,.1-.4,0-.6,.1-.5,.5,.2,1.4-.6,2.3-1.8,2.9-1.7,.9-3.5,1.4-5.4,1.8-4.8,1-9.7,1.1-14.6,1-4.1-.1-8.2-.4-12.3-1.4-1.4-.3-2.7-.8-3.9-1.5-1.1-.6-1.8-1.5-1.6-2.8,.1-.5-.1-.6-.6-.6-2.7-.1-5.4-.3-8.1-1-.9-.2-1.8-.5-2.5-1s-1.1-1.1-1.1-2v-27.4c0-.9,.4-1.6,1.1-2.1,1.3-.8,2.7-1.1,4.2-1.4,2.1-.4,4.2-.6,6.4-.6,.5,0,.6-.1,.6-.6v-2c0-.9,.3-1.5,1-2.1,1.2-1,2.6-1.4,4-1.8,.7-.2,1.4-.3,2.1-.5,.7-.2,1,0,1.4,.7,0,.7-.3,1.1-1,1.1-.2,0-.4,.1-.6,.1-1.5,.4-3.1,.7-4.4,1.6-.7,.4-.7,.6,0,1.1,.2,.1,.4,.2,.6,.3,1.2,.6,2.5,.9,3.9,1.2,3.9,.9,7.9,1.1,11.9,1.2,4.7,0,9.4-.1,14-1.2,1.6-.3,3.1-.7,4.4-1.6,.7-.4,.7-.6,0-1.1-.9-.6-1.9-.9-3-1.2-3.3-.9-6.6-1.2-10-1.4-4-.2-7.9-.2-11.9,.2-.9,.3-1.3,0-1.4-.9h0Zm-9.1,16.5v6.9c0,.5,.2,.8,.6,1.1,.9,.6,1.9,.9,2.9,1.2,4,1.1,8.1,1.4,12.3,1.5,5.1,.1,10.1-.1,15.1-1.1,1.5-.3,3-.7,4.4-1.5,.4-.3,.7-.6,.7-1.2v-6.3c0-.2,.1-.4-.1-.5-2.1,1.1-4.4,1.5-6.8,1.9-.7,.1-1.2-.2-1.2-.8-.1-.5,.3-.9,1-1.1,.9-.2,1.8-.3,2.7-.5,1.3-.3,2.6-.7,3.7-1.4,.4-.3,.7-.6,.7-1.1-.1-1.4,0-2.9,0-4.3v-2.6c-2.4,1.1-4.8,1.7-7.3,2-4.1,.6-8.3,.8-12.4,.7-3.4-.1-6.8-.3-10.2-.9-2-.4-4-.8-5.9-1.8v6.1c0,1.7,.1,1.8,1.7,2.5,.1,0,.1,.1,.2,.1,2.8,1.1,5.8,1.5,8.7,1.8,4.4,.4,8.7,.4,13.1,.1,1-.1,1.5,.2,1.5,.9,0,.6-.5,1-1.4,1-3.8,.2-7.5,.3-11.3,0-4.4-.5-8.7-1-12.7-2.7h0Zm0,19.8v6.9c0,.5,.2,.8,.6,1.1,.9,.6,1.9,.9,2.9,1.2,3.7,1,7.6,1.4,11.4,1.5,2.7,.1,5.4,.1,8.1-.1,2.8-.2,5.6-.5,8.4-1.2,1.3-.3,2.5-.7,3.7-1.4,.5-.3,.7-.6,.7-1.2-.1-1.1,0-2.3,0-3.4v-3.4c-.7,.3-1.3,.5-2,.8-3.3,1.1-6.7,1.5-10.1,1.7-4.3,.3-8.6,.3-12.8-.1-3.7-.4-7.4-.9-10.9-2.4Zm0-10c0,2.2,.1,4.4,0,6.5,0,1,.4,1.4,1.1,1.8,1.6,.8,3.4,1.2,5.1,1.5,4.2,.8,8.5,.9,12.8,.9,4.2-.1,8.3-.3,12.4-1.3,1.3-.3,2.6-.7,3.8-1.4,.4-.2,.6-.6,.6-1.1v-6.9c-2.4,1.1-4.9,1.6-7.3,2-4.1,.6-8.2,.8-12.4,.7-3.7-.1-7.3-.3-10.9-1-1.7-.4-3.5-.8-5.2-1.7h0Zm-12.3,7.6v3.6q0,1.4,1.3,1.9c2.8,1,5.8,1.2,8.8,1.3,.4,0,.3-.2,.3-.4v-4.2c0-.3-.1-.5-.4-.5-1,0-1.9-.1-2.9-.2-.6,0-1-.4-1-.9,0-.6,.4-.9,1.1-.9,.9,0,1.8,.1,2.7,.1,.4,0,.6-.1,.6-.5v-3.7q0-.9-.9-.9c-1.8-.1-3.6-.2-5.4-.5-1.4-.2-2.8-.6-4.1-1.1,0,.1-.1,.1-.1,.1v4.1c0,.4,.1,.6,.5,.8,.7,.4,1.5,.6,2.2,.8s.9,.6,.8,1.2c-.1,.5-.6,.8-1.2,.6-.8-.1-1.5-.4-2.3-.7h0Zm0-21v3.1c0,2,.1,2.1,2,2.7h.1c2.6,.7,5.2,.9,7.9,1,.3,0,.4-.1,.4-.4v-3.8c0-.6-.3-.9-.9-.9-1.8-.1-3.6-.2-5.4-.5-1.4-.3-2.8-.7-4.1-1.2h0Zm60.4,0c-.2,.1-.3,.1-.4,.1-1.4,.5-2.9,.9-4.5,1.1-1.6,.2-3.1,.4-4.7,.4-.6,0-.9,.2-.8,.8,.1,1.3,0,2.5,0,3.8,0,.4,.1,.5,.5,.5,1.9,0,3.9-.2,5.8-.6,1.3-.2,2.5-.5,3.7-1.1,.2-.1,.5-.2,.4-.6v-4.4Zm-60.4,7v3.1c0,1.9,.1,2,1.9,2.6h.1c2.6,.7,5.3,.9,8,1,.4,0,.4-.1,.4-.4v-3.9c0-.6-.1-.8-.8-.8-3.2-.1-6.5-.4-9.6-1.6h0Zm60.4,0c-1.3,.5-2.6,.9-4,1.1-2,.3-4,.5-6,.6-.4,0-.5,.1-.5,.5v4.1c0,.4,.1,.5,.5,.5,1.9,0,3.8-.2,5.7-.5,1.3-.2,2.6-.5,3.7-1.1,.2-.1,.4-.2,.4-.5,.2-1.6,.2-3.1,.2-4.7h0Zm0,7c-1.4,.5-2.7,.9-4,1.1-1.9,.3-3.9,.5-5.9,.5-.4,0-.6,.1-.6,.6v4c0,.4,.1,.6,.5,.5,1.9,0,3.8-.2,5.7-.6,1.3-.2,2.5-.5,3.7-1.1,.3-.1,.5-.3,.5-.6,.1-1.4,.1-2.8,.1-4.4h0Zm-60.3-16.2c.5,.4,1,.6,1.5,.8,2.7,.9,5.6,1.1,8.4,1.1,.3,0,.4-.1,.4-.4v-3c0-.4-.1-.4-.4-.4-2.7,.1-5.3,.3-7.9,1-.7,.2-1.4,.4-2,.9Zm60.2,0c-.5-.4-1.1-.6-1.6-.8-2.7-.8-5.5-1.1-8.3-1.1-.4,0-.4,.1-.4,.4v2.8c0,.4,.1,.6,.5,.6,1.9,0,3.8-.2,5.7-.5,1.5-.3,2.9-.5,4.1-1.4h0Z"/>
        <path class="cls-35" d="M161.28,194.8c.1,.9,.4,1.1,1.3,1.1,4-.4,7.9-.4,11.9-.2,3.4,.2,6.7,.5,10,1.4,1.1,.3,2.1,.6,3,1.2,.6,.4,.6,.6,0,1.1-1.4,.9-2.9,1.2-4.4,1.6-4.6,1-9.3,1.2-14,1.2-4,0-8-.3-11.9-1.2-1.3-.3-2.6-.6-3.9-1.2-.2-.1-.4-.2-.6-.3-.7-.4-.7-.7,0-1.1,1.4-.9,2.9-1.2,4.4-1.6,.2,0,.4-.1,.6-.1,.7-.1,1-.5,1-1.1,.7-.1,1.4-.2,2.1-.4,.3-.1,.4-.2,.5-.4h0Z"/>
        <path class="cls-35" d="M194.38,236.1c-.2-.6-.6-.8-1.2-.8-.9,.1-1.8,.1-2.7,.1-.4,0-.6,0-.5-.5v-4.1c0-.4,.1-.5,.5-.5,1.7-.1,3.3-.2,5-.4,1.6-.2,3.1-.5,4.5-1.1,.1,0,.2-.1,.4-.1v4.6c0,.3-.2,.4-.4,.5-.7,.4-1.4,.6-2.2,.8-.6,.1-1,.5-.9,1.2-.9,.1-1.7,.2-2.5,.3h0Z"/>
        <path class="cls-35" d="M194.28,236.5v-.1c.2,0,.1,0,0,.1Z"/>
        <path class="cls-35" d="M152.18,211.3c4.1,1.7,8.3,2.2,12.6,2.5,3.8,.3,7.5,.2,11.3,0,1-.1,1.5-.4,1.4-1,0-.6-.5-.9-1.5-.9-4.4,.3-8.7,.3-13.1-.1-3-.3-5.9-.7-8.7-1.8-.1,0-.1-.1-.2-.1-1.6-.6-1.7-.8-1.7-2.5v-6.1c1.9,.9,3.9,1.4,5.9,1.8,3.4,.6,6.8,.9,10.2,.9,4.2,.1,8.3-.1,12.4-.7,2.5-.4,5-.9,7.3-2v6.9c0,.6-.2,.9-.7,1.1-1.2,.7-2.4,1.1-3.7,1.4-.9,.2-1.8,.4-2.7,.5-.7,.1-1.1,.6-1,1.1,.1,.6,.5,.9,1.2,.8,2.3-.4,4.6-.8,6.8-1.9,.2,.2,.1,.4,.1,.5v6.3c0,.6-.2,.9-.7,1.2-1.4,.8-2.8,1.2-4.4,1.5-5,1.1-10,1.2-15.1,1.1-4.1-.1-8.2-.4-12.3-1.5-1-.3-2-.6-2.9-1.2-.4-.2-.6-.6-.6-1.1,.1-2.1,.1-4.4,.1-6.7h0Z"/>
        <path class="cls-35" d="M152.18,231.1c3.6,1.6,7.2,2.1,11,2.4,4.3,.4,8.6,.4,12.8,.1,3.4-.2,6.8-.6,10.1-1.7,.6-.2,1.3-.5,2-.8v6.8c0,.6-.2,.9-.7,1.2-1.1,.7-2.4,1-3.7,1.4-2.8,.7-5.6,1-8.4,1.2-2.7,.2-5.4,.2-8.1,.1-3.9-.1-7.7-.4-11.4-1.5-1-.3-2-.6-2.9-1.2-.4-.2-.6-.6-.6-1.1-.1-2.3-.1-4.6-.1-6.9Z"/>
        <path class="cls-35" d="M152.18,221.1c1.7,.9,3.5,1.3,5.3,1.6,3.6,.7,7.2,1,10.9,1,4.1,.1,8.3-.1,12.4-.7,2.5-.4,5-.9,7.3-2v6.9c0,.6-.2,.9-.6,1.1-1.2,.7-2.5,1.1-3.8,1.4-4.1,1-8.2,1.2-12.4,1.3-4.3,.1-8.6-.1-12.8-.9-1.8-.3-3.5-.7-5.1-1.5-.8-.4-1.2-.8-1.1-1.8-.1-2-.1-4.2-.1-6.4h0Z"/>
        <path class="cls-35" d="M139.88,228.7c.8,.3,1.5,.6,2.3,.7,.6,.1,1.1-.1,1.2-.6,.1-.6-.1-1-.8-1.2-.8-.2-1.5-.4-2.2-.8-.4-.2-.5-.4-.5-.8v-4.1s0-.1,.1-.1c1.3,.5,2.7,.8,4.1,1.1,1.8,.3,3.6,.4,5.4,.5,.9,0,.9,.1,.9,.9v3.7c0,.4-.1,.6-.6,.5-.9-.1-1.8-.1-2.7-.1-.7,0-1.1,.4-1.1,.9s.4,.9,1,.9c1,.1,1.9,.1,2.9,.2,.4,0,.4,.1,.4,.5v4.2c0,.2,.1,.4-.3,.4-3-.1-5.9-.3-8.8-1.3q-1.3-.5-1.3-1.9v-3.6h0Z"/>
        <path class="cls-35" d="M139.88,207.7c1.4,.5,2.7,.9,4.1,1.1,1.8,.3,3.6,.4,5.4,.5,.6,0,.9,.3,.9,.9v3.8c0,.3-.1,.4-.4,.4-2.7-.1-5.3-.3-7.9-1h-.1c-1.9-.6-2-.6-2-2.7v-3h0Z"/>
        <path class="cls-35" d="M200.28,207.7v4.5c0,.4-.2,.5-.4,.6-1.1,.6-2.4,.9-3.7,1.1-1.9,.3-3.8,.5-5.8,.6-.4,0-.5-.1-.5-.5,0-1.3,.1-2.6,0-3.8,0-.7,.2-.8,.8-.8,1.6,0,3.1-.2,4.7-.4,1.5-.2,3-.5,4.5-1.1,.1-.1,.3-.2,.4-.2Z"/>
        <path class="cls-35" d="M139.88,214.7c3.2,1.2,6.4,1.5,9.7,1.6,.6,0,.8,.2,.8,.8-.1,1.3,0,2.6,0,3.9,0,.3,0,.4-.4,.4-2.7-.1-5.4-.3-8-1h-.1q-1.9-.6-1.9-2.6l-.1-3.1h0Z"/>
        <path class="cls-35" d="M200.28,214.7v4.6c0,.3-.2,.4-.4,.5-1.2,.6-2.4,.9-3.7,1.1-1.9,.3-3.8,.5-5.7,.5-.4,0-.6,0-.5-.5v-4.1c0-.4,.1-.5,.5-.5,2-.1,4-.2,6-.6,1.2-.2,2.5-.5,3.8-1h0Z"/>
        <path class="cls-35" d="M200.28,221.7v4.5c0,.4-.2,.5-.5,.6-1.2,.6-2.4,.9-3.7,1.1-1.9,.3-3.8,.5-5.7,.6-.4,0-.6-.1-.5-.5v-4c0-.4,.1-.6,.6-.6,2-.1,3.9-.2,5.9-.5,1.3-.3,2.6-.7,3.9-1.2h0Z"/>
        <path class="cls-35" d="M139.98,205.5c.6-.5,1.3-.7,1.9-.9,2.6-.7,5.2-1,7.9-1,.3,0,.4,0,.4,.4v3c0,.3-.1,.4-.4,.4-2.8-.1-5.7-.3-8.4-1.1-.4-.2-.9-.4-1.4-.8Z"/>
        <path class="cls-35" d="M200.18,205.5c-1.3,.8-2.7,1.1-4.1,1.4-1.9,.3-3.8,.5-5.7,.5-.5,0-.6-.1-.5-.6v-2.8c0-.3,.1-.4,.4-.4,2.8,.1,5.6,.3,8.3,1.1,.6,.2,1.1,.4,1.6,.8h0Z"/>
      </g>
      <g>
        <path d="M171.48,92.8h-20.4c-2.7,0-4.1-2.2-2.9-4.6,0,0,0-.1,.1-.1,2.1-3.1,2.5-6.4,2.4-10.1-.2-7-.1-13.9-.1-20.9,0-2.1,1.2-3.3,3.3-3.3h35.3c2.2,0,3.4,1.2,3.4,3.3v25.5c0,.5,.1,1,.4,1.5,.7,1.3,1.4,2.7,2.1,4.1,1.1,2.4-.2,4.6-2.8,4.6h-20.8Z"/>
        <path d="M194.48,51.6c-.8-.6-1.6-1-2.3-1.6-.3-.2,.1-.5,.3-.7,2.3-3.4,4.6-6.9,6.9-10.3,5.1-7.6,10.2-15.2,15.4-22.8,.4-.6,.6-.7,1.2-.3,1.7,1.2,1.8,1.2,.5,3-7.2,10.6-14.4,21.3-21.6,31.9,0,.4-.2,.6-.4,.8h0Z"/>
        <path d="M150.98,49.9c-.1,.1-.2,.2-.3,.3-1.3,1.1-2.4,1-3.4-.4-7.2-10.6-14.3-21.2-21.5-31.8-.4-.6-.5-.9,.2-1.3q1.8-1.1,2.9,.5c7.2,10.7,14.4,21.3,21.6,32,.2,.2,.4,.4,.5,.7h0Z"/>
        <path d="M137.78,14.8h-5c-1.2,0-1.7-.6-1.7-1.7V3c0-1.1,.6-1.7,1.7-1.7h10.1c1.1,0,1.7,.6,1.7,1.7V13.2c0,1-.6,1.6-1.6,1.6h-5.2Z"/>
        <path d="M192.48,19.3h-4.2c-1.2,0-1.7-.6-1.7-1.7V9c0-1.1,.6-1.7,1.7-1.7h8.6c1.1,0,1.7,.6,1.7,1.7v8.7c0,1-.6,1.6-1.6,1.6-1.5,0-3,0-4.5,0h0Z"/>
        <path d="M153.58,35.8h-4.3c-1.1,0-1.7-.6-1.7-1.7v-8.7c0-1,.6-1.6,1.6-1.6h8.7c1.1,0,1.6,.6,1.6,1.6v8.8c0,1-.6,1.5-1.6,1.6-1.4,0-2.9,0-4.3,0h0Z"/>
        <path d="M177.58,5.1v3.6c0,1.1-.6,1.7-1.7,1.7h-7.2c-1,0-1.6-.6-1.6-1.6V1.6c0-1,.6-1.6,1.6-1.6h7.3c1,0,1.6,.6,1.6,1.6,0,1,0,2.2,0,3.5h0Z"/>
        <path d="M210.58,10.3h-2.9c-1,0-1.6-.6-1.6-1.6V2.9c0-1,.6-1.6,1.6-1.6h5.7c1,0,1.6,.6,1.6,1.6v5.7c0,1.1-.6,1.6-1.7,1.7-.9,0-1.8,0-2.7,0h0Z"/>
        <path d="M156.48,17.8h-2.8c-1.1,0-1.6-.6-1.6-1.6v-5.8c0-1,.6-1.6,1.6-1.6h5.8c1,0,1.6,.6,1.6,1.6v5.9c0,.9-.6,1.5-1.5,1.5h-3.1Z"/>
        <path d="M170.08,26.8v-2.8c0-1,.6-1.6,1.6-1.6h5.8c1,0,1.6,.6,1.6,1.6v5.8c0,1-.6,1.6-1.6,1.6h-5.9c-.9,0-1.5-.6-1.5-1.5,0-1.1,0-2.1,0-3.1Z"/>
        <path d="M193.98,34.3h-2.8c-1.1,0-1.6-.6-1.6-1.6v-5.8c0-1,.6-1.6,1.6-1.6h5.8c1,0,1.6,.6,1.6,1.6v5.9c0,.9-.6,1.5-1.5,1.5-1.1,0-2.1,0-3.1,0h0Z"/>
        <path d="M183.68,38.8h2.8c1,0,1.6,.6,1.6,1.6v5.7c0,1.1-.6,1.6-1.7,1.7h-5.6c-1.1,0-1.7-.6-1.7-1.7v-5.6c0-1.1,.6-1.7,1.8-1.7h2.8Z"/>
        <path d="M168.58,46.4v2.8c0,1-.6,1.6-1.6,1.6h-5.7c-1.1,0-1.6-.6-1.6-1.7v-5.6c0-1.1,.6-1.7,1.7-1.7h5.6c1.1,0,1.7,.6,1.7,1.7-.1,1-.1,1.9-.1,2.9Z"/>
        <path class="cls-35" d="M171.58,56.8h17.2c.7,0,.9,.2,.9,.9v23.8c0,.7-.2,.9-.9,.9h-34.3c-.7,0-.9-.2-.9-.9v-23.8c0-.7,.2-.9,.9-.9,5.7,0,11.4,0,17.1,0h0Z"/>
        <path class="cls-35" d="M192.38,89.8h-41.6c.7-1.4,1.4-2.8,2.1-4.1,.1-.3,.3-.4,.6-.3h35.9c.6,0,1,.2,1.3,.8,.4,1.1,1,2.3,1.7,3.6h0Z"/>
        <path class="cls-35" d="M134.08,8v-3.2c0-.5,.1-.6,.6-.6h6.4c.5,0,.6,.1,.6,.6v6.4c0,.5-.1,.6-.6,.6h-6.4c-.5,0-.6-.1-.6-.6v-3.2h0Z"/>
        <path class="cls-35" d="M192.58,16.3c-1,0-2.3,.4-2.8-.1-.6-.5-.2-1.9-.2-2.9s-.4-2.3,.1-2.8c.6-.6,1.9-.2,2.9-.2s2.3-.4,2.8,.1c.6,.6,.2,1.9,.2,2.9s.4,2.3-.1,2.8c-.6,.6-1.9,.1-2.9,.2h0Z"/>
        <path class="cls-35" d="M156.58,29.9v2.2c0,.5-.1,.7-.6,.7h-4.8c-.5,0-.6-.2-.6-.6v-4.8c0-.5,.2-.6,.6-.6h4.8c.5,0,.6,.2,.6,.6-.1,.8,0,1.7,0,2.5h0Z"/>
        <path class="cls-35" d="M172.38,2.9q2.2-.1,2.2,2.1c0,.8,.3,1.8-.1,2.2-.4,.4-1.4,.1-2.2,.1q-2.2,0-2.2-2.1c0-.8-.4-1.8,.1-2.2,.5-.4,1.5-.1,2.2-.1Z"/>
        <path class="cls-35" d="M210.58,4.3c1,0,1.4,.5,1.4,1.5s-.5,1.5-1.6,1.5c-1,.1-1.5-.4-1.4-1.5s.7-1.5,1.6-1.5Z"/>
        <path class="cls-35" d="M155.08,13.2c0-.9,.5-1.4,1.4-1.4,1.1,0,1.6,.5,1.6,1.6,0,.9-.5,1.4-1.4,1.4-1.1,0-1.6-.5-1.6-1.6Z"/>
        <path class="cls-35" d="M176.08,26.9c0,1-.5,1.4-1.5,1.4s-1.5-.5-1.5-1.5,.5-1.5,1.5-1.5,1.5,.5,1.5,1.6Z"/>
        <path class="cls-35" d="M194.08,31.3c-1,0-1.5-.5-1.5-1.5s.5-1.5,1.5-1.5,1.5,.5,1.5,1.5-.5,1.5-1.5,1.5Z"/>
        <path class="cls-35" d="M183.58,41.8c1,0,1.4,.5,1.4,1.5s-.5,1.5-1.6,1.5c-1,.1-1.5-.4-1.4-1.5s.7-1.5,1.6-1.5Z"/>
        <path class="cls-35" d="M165.58,46.3c0,1-.5,1.5-1.5,1.5s-1.5-.5-1.5-1.5c-.1-1,.4-1.5,1.5-1.5s1.5,.6,1.5,1.5Z"/>
        <path d="M173.08,73c.8-1.2,1.5-2.1,2.1-3.1,.3-.4,.4-.5,.9-.2q2,1.3,.7,3.3c-1.2,1.8-2.5,3.5-3.7,5.3-.9,1.3-2,1.4-3,0-1.5-2.2-3.1-4.4-4.6-6.6-.3-.5-.3-.7,.2-1,.6-.4,1.3-1.2,1.9-1.1,.5,0,.9,1,1.3,1.6,.4,.5,.7,1,1.3,1.8v-12.4c0-.6,.1-.8,.8-.8q2.2,0,2.2,2.3v9.8c-.1,.3-.1,.6-.1,1.1h0Z"/>
      </g>
      <g>
        <path class="cls-35" d="M299.78,216.3v15.5c.1,1.6,1.4,2.8,3,2.8h4.6c.4,0,.6,.1,.6,.5,0,.5,.1,1,.2,1.5,1.8,8.4,10.2,13.2,18.3,10.7,5.4-1.7,9.4-6.8,9.8-12.3,0-.3,.1-.4,.4-.4h4.8c.2,0,.4,0,.6-.1,1.5-.3,2.4-1.5,2.4-3.2v-21.6c-.1-1.3-1-2.4-2.4-2.6-.3-.1-.4-.2-.4-.5v-3.6c.1-1.3-.7-2.3-2.2-2.3h-22.2c-.9,0-1.4-.2-1.8-1.1-.5-1.1-1.4-1.7-2.7-1.7h-10.1c-.4,0-.7,.1-1,.2-1.3,.4-2,1.5-2,3.1,.1,5.1,.1,10.1,.1,15.1h0Z"/>
        <path d="M299.78,216.3v-15c0-1.6,.7-2.7,2-3.1,.3-.1,.7-.2,1-.2h10.1c1.3,0,2.2,.6,2.7,1.7,.4,.9,.8,1.1,1.8,1.1h22.2c1.6,0,2.3,1,2.2,2.3-.1,1.2,0,2.4,0,3.6,0,.3,.1,.4,.4,.5,1.3,.3,2.2,1.3,2.4,2.6v21.6c0,1.7-.9,2.9-2.4,3.2-.2,0-.4,0-.6,.1h-4.8c-.3,0-.4,0-.4,.4-.4,5.6-4.4,10.7-9.8,12.3-8.1,2.6-16.5-2.3-18.3-10.7-.1-.5-.2-1-.2-1.5s-.2-.5-.6-.5h-4.6c-1.6,0-2.9-1.1-3-2.8v-.6c-.1-5-.1-10-.1-15h0Zm1.6,0v15.4c.1,.8,.6,1.4,1.4,1.4h4.9c.3,0,.4-.1,.4-.4,0-.6,.1-1.2,.2-1.7,1.7-8.1,9.7-13,17.6-10.9,5.8,1.5,10.1,6.7,10.5,12.6,0,.3,.1,.3,.4,.3h4.5c1.3,0,1.8-.5,1.8-1.8v-20.8c0-1.3-.5-1.8-1.8-1.8h-21.6c-1,0-1.7-.4-2.1-1.4-1-2.3-2.1-4.5-3.2-6.8-.3-.7-.8-1-1.6-1h-9.6c-1.3,0-1.8,.5-1.8,1.8-.1,5.1-.1,10.1,0,15.1h0Zm8.2,17.5c0,7,5.7,12.6,12.7,12.6s12.6-5.7,12.6-12.6-5.7-12.6-12.7-12.6-12.7,5.7-12.6,12.6Zm7.3-31.4c.7,1.5,1.4,3,2.1,4.5,.1,.2,.3,.3,.5,.3h20.4c.3,0,.4-.1,.4-.4v-3.6c0-.5-.2-.7-.7-.7h-22.1c-.2-.1-.3-.1-.6-.1h0Z"/>
        <path class="cls-35" d="M301.38,216.3v-14.9c0-1.4,.5-1.8,1.8-1.8h9.6c.8,0,1.2,.3,1.6,1,1,2.3,2.1,4.5,3.2,6.8,.4,.9,1.1,1.4,2.1,1.4h21.6c1.3,0,1.8,.5,1.8,1.8v20.8c0,1.3-.5,1.8-1.8,1.8h-4.5c-.3,0-.4-.1-.4-.3-.4-6-4.7-11.1-10.5-12.6-8-2.1-16,2.9-17.6,10.9-.1,.6-.2,1.1-.2,1.7,0,.3-.1,.4-.4,.4h-4.9c-.8,0-1.4-.6-1.4-1.4v-.8c0-5,0-9.9,0-14.8h0Z"/>
        <path class="cls-35" d="M309.58,233.8c0-6.9,5.6-12.6,12.6-12.6s12.7,5.6,12.7,12.6-5.7,12.6-12.6,12.6-12.7-5.6-12.7-12.6Zm11.3,8.5c.5,0,1-.2,1.4-.6,2.6-2.6,5.1-5.1,7.7-7.7,.4-.4,.5-.9,.5-1.4,0-1.1-.1-2.1-.2-3.2-.1-.7,0-1.4-.2-2.1-.1-.3,0-.4,.2-.6,.2-.2,.4-.4,.3-.7,0-.3-.2-.5-.5-.6s-.6-.1-.9,.2c-.2,.3-.5,.4-.8,.3-1.7-.2-3.4-.3-5.1-.4-.5,0-1,.2-1.4,.5-2.6,2.6-5.1,5.1-7.7,7.7-.8,.8-.8,1.9,0,2.7,1.8,1.8,3.5,3.6,5.3,5.3,.4,.4,.9,.6,1.4,.6h0Z"/>
        <path class="cls-35" d="M316.88,202.4h22.7c.5,0,.7,.2,.7,.7v3.6c0,.3-.1,.4-.4,.4h-20.4c-.2,0-.4,0-.5-.3-.7-1.4-1.4-2.9-2.1-4.4h0Z"/>
        <path d="M320.88,242.3c-.5,0-1-.2-1.3-.5-1.8-1.8-3.5-3.5-5.3-5.3-.8-.8-.8-1.9,0-2.7,2.5-2.6,5.1-5.1,7.7-7.7,.4-.4,.8-.6,1.4-.5,1.7,.1,3.4,.2,5.1,.4,.4,0,.6-.1,.8-.3s.5-.3,.9-.2c.3,.1,.4,.3,.5,.6s-.1,.5-.3,.7c-.2,.2-.3,.4-.2,.6,.2,.7,.1,1.4,.2,2.1,.1,1.1,.1,2.1,.2,3.2,0,.5-.1,1-.5,1.4-2.6,2.6-5.1,5.1-7.7,7.7-.5,.3-.9,.5-1.5,.5h0Zm6.6-14.9h-.2c-1.2-.1-2.4-.2-3.6-.3-.4,0-.6,.1-.8,.3-2.4,2.4-4.8,4.8-7.2,7.2-.5,.5-.5,.6,0,1.1,1.6,1.6,3.1,3.1,4.7,4.7,.5,.5,.6,.5,1.1,0,2.2-2.2,4.3-4.4,6.5-6.5,.8-.7,1.1-1.4,1-2.4s-.1-2-.2-3c-.3,.1-.3,.3-.2,.5,.2,1.1-.5,2.1-1.6,2.1-1,.1-1.9-.8-1.9-1.8,0-1.1,.9-1.8,2-1.7,.1-.1,.2,0,.4-.2h0Zm-.7,1.6c-.1,0-.2,.1-.2,.2s.1,.2,.2,.2,.2-.1,.2-.2c0-.1-.1-.1-.2-.2h0Z"/>
        <path class="cls-35" d="M327.48,227.4c-.1,.3-.3,.1-.4,.1-1.1-.1-2,.6-2,1.7s.8,1.9,1.9,1.8c1.1-.1,1.8-1,1.6-2.1,0-.2,0-.3,.2-.5,.1,1,.1,2,.2,3,.2,1-.2,1.7-1,2.4-2.2,2.1-4.3,4.3-6.5,6.5-.5,.5-.6,.5-1.1,0-1.6-1.6-3.1-3.1-4.7-4.7-.5-.5-.5-.6,0-1.1,2.4-2.4,4.8-4.8,7.2-7.2,.2-.2,.5-.4,.8-.3,1.2,.1,2.4,.2,3.6,.3,0,0,.1,.1,.2,.1h0Z"/>
        <path class="cls-36" d="M326.78,229c.1,0,.2,.1,.2,.2s-.1,.2-.2,.2-.2-.1-.2-.2,0-.1,.2-.2h0Z"/>
      </g>
      <g>
        <text class="cls-16" transform="translate(19.77 269.64)"><tspan x="0" y="0">I</tspan><tspan class="cls-37" x="3.33" y="0">A</tspan></text>
        <g>
          <path class="cls-35" d="M43.78,213.9c-.2,.1-.3,.2-.5,.3-.8,.8-1.2,1.7-1.1,2.8,0,.4,.2,.8,.4,1.1,.5,.9,.9,1.9,1.2,2.9,.6,1.6,1.6,2.4,3.3,2.4,.5,0,.6,.2,.7,.6,.3,2.2,.3,4.4,0,6.7-.1,.4-.2,.4-.5,.4-.4,0-.9,0-1.3,.1-1,.3-1.7,1-2.1,2-.4,1.1-.8,2.2-1.3,3.2-.7,1.5-.5,2.8,.7,3.9,.4,.4,.4,.6,.1,1-1.4,1.8-2.9,3.3-4.7,4.7-.3,.2-.4,.2-.7-.1-1.1-1.3-2.8-1.6-4.3-.7-.8,.5-1.8,.8-2.7,1.1-1.6,.6-2.4,1.6-2.4,3.4,0,.4-.1,.6-.5,.7-2.3,.3-4.6,.3-6.9-.1-.2,0-.2-.1-.2-.3v-1c-.2-1.3-.9-2.2-2.2-2.7-1.1-.4-2.1-.8-3.1-1.3-1.4-.7-2.7-.5-3.9,.6q-.5,.5-1.1,.1c-1.8-1.4-3.3-2.9-4.7-4.7-.2-.3-.1-.5,.1-.6,1.2-1.2,1.5-2.4,.9-3.7-.2-.4-.4-.8-.6-1.2-.3-.7-.6-1.4-.8-2.1-.6-1.6-1.6-2.4-3.3-2.4-.5,0-.6-.1-.7-.6-.3-2.2-.3-4.4,0-6.7,.1-.4,.2-.4,.5-.4,1.2,.1,2.4-.3,2.9-1.4,.8-1.6,1.5-3.2,2.1-4.9,.4-1.1-.1-2.2-1-3-.4-.3-.4-.5-.1-.9,1.4-1.8,3-3.4,4.8-4.7,.3-.2,.4-.2,.6,0,1,1.2,2.6,1.7,4.4,.7,.8-.5,1.7-.8,2.6-1.1,1.6-.5,2.4-1.6,2.4-3.3,0-.4,.1-.6,.6-.7,2.3-.3,4.6-.3,6.9,.1,.2,0,.3,.1,.3,.3,0,.4,0,.8,.1,1.1,.2,1.2,.9,2,2,2.4,1.2,.4,2.3,.9,3.5,1.4,1.3,.6,2.6,.4,3.7-.7,.3-.3,.7-.4,1.1-.1,1.8,1.3,3.3,2.9,4.6,4.7,.1,.1,.1,.2,.2,.3q0,.3,0,.4h0Z"/>
          <path d="M49.78,227.4c0,1.6-.2,3.1-.4,4.6-.1,.6-.4,.8-1,.8h-1.3c-.8,0-1.3,.4-1.5,1.1-.4,1.2-.9,2.3-1.4,3.5-.3,.7-.2,1.3,.3,1.9,.3,.3,.6,.6,1,1s.4,.8,.1,1.2c-1.8,2.6-4,4.8-6.6,6.6-.5,.3-.8,.3-1.2-.1-.3-.3-.6-.6-1-1-.5-.5-1.2-.6-1.8-.3-1.1,.6-2.3,1-3.5,1.4-.7,.3-1.1,.8-1.1,1.6v1.3c0,.5-.2,.8-.7,.9-2,.4-4.1,.6-6.2,.4-1-.1-2-.2-3-.4-.8-.1-1-.4-1-1.2v-1.1c0-.8-.4-1.3-1.1-1.6-1.2-.4-2.3-.9-3.4-1.4-.7-.4-1.3-.2-1.9,.3-.3,.3-.7,.6-1,1s-.7,.4-1.1,.1c-2.7-1.8-4.9-4.1-6.7-6.7-.3-.4-.2-.8,.1-1.1,.3-.3,.7-.7,1-1,.5-.6,.6-1.2,.3-1.9-.5-1.1-1-2.2-1.4-3.4-.3-.8-.8-1.1-1.6-1.1H1.38c-.5,0-.8-.2-.9-.7-.4-2.1-.6-4.1-.4-6.3,.1-1,.2-2,.4-3,.1-.7,.4-.9,1.1-1h1.3c.7,0,1.2-.4,1.5-1.1,.4-1.2,.9-2.4,1.5-3.5,.3-.6,.2-1.3-.3-1.8-.3-.4-.7-.7-1-1s-.4-.7-.1-1.1c1.8-2.7,4-4.9,6.7-6.7,.4-.3,.8-.2,1.1,.1s.7,.7,1,1c.5,.5,1.2,.6,1.8,.3,1.1-.6,2.2-1,3.4-1.4,.8-.3,1.1-.8,1.2-1.6v-1.3c0-.5,.2-.8,.7-.9,2-.4,4-.5,6.1-.4,1.1,.1,2.1,.2,3.2,.4,.7,.1,.9,.4,.9,1.1v1.2c0,.8,.4,1.3,1.1,1.6,1.2,.4,2.3,.9,3.5,1.4,.7,.3,1.3,.2,1.8-.3,.3-.3,.7-.7,1-1,.3-.4,.7-.4,1.1-.1,2.7,1.8,4.9,4,6.7,6.7,.3,.4,.2,.8-.1,1.1-.3,.3-.6,.6-1,1-.6,.6-.7,1.2-.3,1.9,.5,1.1,1,2.2,1.4,3.4,.3,.8,.8,1.1,1.6,1.2h1.2c.6,0,.9,.2,1,.8,0,1.5,.2,3,.2,4.6h0Z"/>
          <path class="cls-35" d="M6.98,227.3c0-9.8,8-17.7,17.7-17.7s17.8,7.9,17.8,17.8-8,17.6-17.9,17.6c-9.7,.1-17.6-7.9-17.6-17.7Z"/>
          <path class="cls-35" d="M24.78,211.2c8.8,0,16.1,7.2,16.1,16.1s-7.2,16.2-16.2,16.2-16.1-7.3-16.1-16.2c0-8.9,7.3-16.1,16.2-16.1Z"/>
          <path d="M23.88,227.4v9.3c0,.5-.2,.8-.5,1.1-2.6,2.5-7.2,2-9-1-.3-.5-.5-1.1-.6-1.7,0-.2-.1-.4-.3-.5-2.3-1.2-3.5-4.3-1.7-6.7,.1-.1,.1-.2,0-.4-1.8-2.4-.6-5.6,1.7-6.7,.2-.1,.3-.2,.3-.4-.2-2.7,2-4.7,4.5-5.1,2-.3,3.7,.2,5.1,1.5,.3,.3,.5,.6,.5,1.1v9.5h0Z"/>
          <path d="M26.48,233.8h-1.5c-.2,0-.3-.1-.3-.3,0-1.3,0-1.4,1.3-1.3,1.2,.1,1.9-.3,2.6-1.2,1.1-1.5,.7-1.2,2.5-1.2h2.1c.3,0,.5-.1,.7-.4,.5-.9,1.6-1.4,2.5-1.2,1,.2,1.8,1,2,2,.1,1.1-.4,2.1-1.4,2.6-1.1,.5-2.5,.1-3.1-1-.2-.3-.3-.4-.6-.4h-2.4c-.3,0-.5,.1-.8,.4-.4,.5-.8,1-1.2,1.6-.2,.3-.6,.5-1,.5s-1-.1-1.4-.1Z"/>
          <path d="M24.88,221.7c0-.5,.2-.8,.8-.8h2.3c.4,0,.6,.1,.9,.4,.5,.6,.9,1.1,1.4,1.7,.2,.2,.3,.3,.6,.3h2.6c.3,0,.4-.1,.5-.3,.6-1.1,1.8-1.6,3-1.2,1.1,.4,1.8,1.6,1.6,2.7-.2,1.2-1.3,2.1-2.5,2-.9-.1-1.5-.5-1.9-1.2-.2-.3-.3-.4-.7-.4h-3c-.4,0-.7-.1-1-.5-.4-.6-.9-1.1-1.3-1.7-.2-.2-.3-.3-.6-.3h-2c-.4,0-.6-.1-.5-.5-.2,0-.2-.1-.2-.2h0Z"/>
          <path d="M26.08,215.3c1.1-.3,1.8,.2,2.3,1.1,.2,.3,.5,.6,.6,.9,.2,.3,.4,.4,.8,.4s.3-.3,.4-.5c.4-1,1.4-1.6,2.5-1.5s1.9,1,2.1,2.1c.2,1-.4,2.1-1.4,2.5s-2.1,.2-2.8-.6c-.2-.3-.5-.4-.8-.4-1,.2-1.7-.2-2.1-1.1-.5-1.1-1.4-1.6-2.6-1.3-.3,.1-.4-.1-.4-.4q0-1.2,1.2-1.2h.2Z"/>
          <path d="M25.88,237.8c.6,.2,1.1-.1,1.4-.8,.2-.4,.6-.8,.8-1.1,.2-.4,.6-.6,1-.5h.4c.5,.1,.9-.1,1.2-.5,.7-.8,1.9-.9,2.8-.4,.9,.5,1.4,1.6,1.2,2.6-.2,1.1-1.1,1.8-2.2,1.9-1,.1-2.1-.6-2.5-1.6-.1-.2,0-.4-.3-.4s-.6-.1-.8,.3c-.4,.6-.8,1.1-1.2,1.7-.2,.3-.5,.4-.8,.4h-2c-.3,0-.4-.1-.3-.3v-.2c.1-.7,.5-1.1,1.3-1.1h0Z"/>
          <path d="M26.38,225.7c-.6,0-.8-.3-.8-.9s.3-.8,.8-.8,.8,.4,.8,.9-.2,.8-.8,.8Z"/>
          <path d="M28.78,228.2c0,.5-.3,.8-.8,.8s-.8-.3-.8-.8,.2-.8,.8-.8c.5,0,.8,.3,.8,.8Z"/>
          <path class="cls-35" d="M22.28,227.2v9.1c0,.2,0,.4-.2,.5-1.8,1.5-5.2,1.5-6.4-1.2-.2-.4-.2-.6,.3-.8,1-.4,1.6-1.3,1.8-2.4,0-.2,0-.4-.3-.3h-.5c-.5,0-.9-.1-1,.6-.2,.8-1,.9-1.7,.5-1.9-1.1-2.2-3.3-.7-4.8,.5-.5,.5-.9,0-1.4-1.9-1.8-.8-4.2,1-5,.9-.4,1.7,.2,1.8,.9,.1,.3,.2,.4,.5,.4h.7c.5,.1,.5-.2,.5-.6-.3-1.2-1-2-2.2-2.4-.3-.1-.4-.2-.4-.5,.1-.8,.4-1.4,1-1.9,1.5-1.4,4.1-1.5,5.7-.2,.2,.1,.2,.3,.2,.5v6.9c0,.3-.2,.4-.4,.4-1.2,.4-2,1.1-2.5,2.2-.1,.3-.1,.4,.2,.5h.1c.3,.1,.6,.3,1,.3s.3-.5,.5-.7c.3-.2,.6-.4,1-.6h0Z"/>
          <path class="cls-35" d="M35.88,231.4c-.4,0-.8-.4-.8-.8s.4-.8,.8-.8,.8,.4,.8,.8c-.1,.4-.4,.8-.8,.8h0Z"/>
          <path class="cls-35" d="M35.98,224.9c-.4,0-.8-.4-.8-.8s.3-.8,.8-.8c.4,0,.8,.4,.8,.8,0,.5-.3,.8-.8,.8Z"/>
          <path class="cls-35" d="M33.28,218.1c0,.4-.4,.8-.8,.8s-.8-.3-.8-.8,.3-.8,.8-.8c.4,0,.8,.3,.8,.8Z"/>
          <path class="cls-35" d="M33.28,236.6c0,.4-.4,.8-.8,.8s-.8-.3-.8-.8,.3-.8,.8-.9c.4,.1,.8,.5,.8,.9Z"/>
        </g>
      </g>
      <text class="cls-16" transform="translate(159.48 258.26)"><tspan x="0" y="0">D</tspan></text>
      <text class="cls-16" transform="translate(167.47 258.26)"><tspan x="0" y="0">a</tspan></text>
      <text class="cls-16" transform="translate(173.21 258.26)"><tspan x="0" y="0">ta</tspan></text>
      <text class="cls-16" transform="translate(138.81 110.26)"><tspan x="0" y="0">C</tspan></text>
      <text class="cls-16" transform="translate(145.64 110.26)"><tspan x="0" y="0">olle</tspan></text>
      <text class="cls-16" transform="translate(163.9 110.26)"><tspan x="0" y="0">c</tspan></text>
      <text class="cls-16" transform="translate(169.43 110.26)"><tspan x="0" y="0">t</tspan></text>
      <text class="cls-16" transform="translate(173.33 110.26)"><tspan x="0" y="0">e de la </tspan></text>
      <text class="cls-16" transform="translate(161.19 124.66)"><tspan x="0" y="0">d</tspan></text>
      <text class="cls-16" transform="translate(167.96 124.66)"><tspan x="0" y="0">a</tspan></text>
      <text class="cls-16" transform="translate(173.69 124.66)"><tspan x="0" y="0">ta</tspan></text>
      <text class="cls-16" transform="translate(287.45 262.08)"><tspan x="0" y="0">D</tspan></text>
      <text class="cls-16" transform="translate(295.44 262.08)"><tspan x="0" y="0">a</tspan></text>
      <text class="cls-16" transform="translate(301.18 262.08)"><tspan x="0" y="0">ta Labeling</tspan></text>
      <text class="cls-34" transform="translate(242.61 79.27) rotate(27.53)"><tspan x="0" y="0">C</tspan></text>
      <text class="cls-32" transform="translate(250.06 83.2) rotate(29.72)"><tspan x="0" y="0">r</tspan></text>
      <text class="cls-34" transform="translate(253.59 85.19) rotate(31.62)"><tspan x="0" y="0">é</tspan></text>
      <text class="cls-31" transform="translate(259.35 88.72) rotate(34.11)"><tspan x="0" y="0">a</tspan></text>
      <text class="cls-33" transform="translate(265.41 92.86) rotate(36.09)"><tspan x="0" y="0">t</tspan></text>
      <text class="cls-34" transform="translate(268.62 95.21) rotate(37.27)"><tspan x="0" y="0">i</tspan></text>
      <text class="cls-34" transform="translate(270.75 96.79) rotate(38.97)"><tspan x="0" y="0">o</tspan></text>
      <text class="cls-1" transform="translate(276.17 101.17) rotate(41.44)"><tspan x="0" y="0">n</tspan></text>
      <text class="cls-34" transform="translate(283.51 107.76) rotate(45.01)"><tspan x="0" y="0">d</tspan></text>
      <text class="cls-2" transform="translate(288.71 112.97) rotate(47.52)"><tspan x="0" y="0">e</tspan></text>
      <text class="cls-34" transform="translate(295.17 120.19) rotate(50.23)"><tspan x="0" y="0">l</tspan></text>
      <text class="cls-34" transform="translate(296.88 122.19) rotate(52.01)"><tspan x="0" y="0">a</tspan></text>
      <text class="cls-34" transform="translate(303.13 130.33) rotate(55.67)"><tspan x="0" y="0">d</tspan></text>
      <text class="cls-34" transform="translate(307.27 136.4) rotate(58.29)"><tspan x="0" y="0">a</tspan></text>
      <text class="cls-34" transform="translate(311.12 142.69) rotate(60.3)"><tspan x="0" y="0">t</tspan></text>
      <text class="cls-34" transform="translate(313.1 146.1) rotate(62.3)"><tspan x="0" y="0">a</tspan></text>
      <text class="cls-14" transform="translate(102.21 379.31) rotate(25.54)"><tspan x="0" y="0">L</tspan></text>
      <text class="cls-6" transform="translate(106.64 381.45) rotate(23.37)"><tspan x="0" y="0">a</tspan></text>
      <text class="cls-14" transform="translate(113.64 384.47) rotate(20.79)"><tspan x="0" y="0">b</tspan></text>
      <text class="cls-14" transform="translate(120.8 387.18) rotate(18.27)"><tspan x="0" y="0">e</tspan></text>
      <text class="cls-7" transform="translate(127.43 389.34) rotate(16.57)"><tspan x="0" y="0">l</tspan></text>
      <text class="cls-8" transform="translate(130.11 390.14) rotate(15.6)"><tspan x="0" y="0">l</tspan></text>
      <text class="cls-14" transform="translate(132.79 390.88) rotate(14.62)"><tspan x="0" y="0">i</tspan></text>
      <text class="cls-14" transform="translate(135.5 391.61) rotate(13.09)"><tspan x="0" y="0">s</tspan></text>
      <text class="cls-14" transform="translate(141.25 392.97) rotate(10.68)"><tspan x="0" y="0">a</tspan></text>
      <text class="cls-14" transform="translate(148.76 394.35) rotate(8.58)"><tspan x="0" y="0">t</tspan></text>
      <text class="cls-14" transform="translate(152.83 394.96) rotate(7.34)"><tspan x="0" y="0">i</tspan></text>
      <text class="cls-11" transform="translate(155.58 395.34) rotate(5.53)"><tspan x="0" y="0">o</tspan></text>
      <text class="cls-14" transform="translate(162.81 396.04) rotate(2.9)"><tspan x="0" y="0">n</tspan></text>
      <text class="cls-14" transform="translate(173.07 396.46) rotate(-.81)"><tspan x="0" y="0">e</tspan></text>
      <text class="cls-4" transform="translate(180.06 396.33) rotate(-2.85)"><tspan x="0" y="0">t</tspan></text>
      <text class="cls-14" transform="translate(187.2 395.94) rotate(-6.13)"><tspan x="0" y="0">V</tspan></text>
      <text class="cls-14" transform="translate(194.8 395.11) rotate(-8.84)"><tspan x="0" y="0">é</tspan></text>
      <text class="cls-14" transform="translate(201.71 394.01) rotate(-10.92)"><tspan x="0" y="0">r</tspan></text>
      <text class="cls-15" transform="translate(205.86 393.2) rotate(-12.22)"><tspan x="0" y="0">i</tspan></text>
      <text class="cls-14" transform="translate(208.58 392.62) rotate(-13.42)"><tspan x="0" y="0">f</tspan></text>
      <text class="cls-14" transform="translate(212.19 391.75) rotate(-14.63)"><tspan x="0" y="0">i</tspan></text>
      <text class="cls-14" transform="translate(214.92 391.07) rotate(-16.43)"><tspan x="0" y="0">c</tspan></text>
      <text class="cls-13" transform="translate(221.51 389.14) rotate(-19.12)"><tspan x="0" y="0">a</tspan></text>
      <text class="cls-12" transform="translate(228.71 386.6) rotate(-21.31)"><tspan x="0" y="0">t</tspan></text>
      <text class="cls-14" transform="translate(232.54 385.1) rotate(-22.6)"><tspan x="0" y="0">i</tspan></text>
      <text class="cls-5" transform="translate(235.14 384.06) rotate(-24.46)"><tspan x="0" y="0">o</tspan></text>
      <text class="cls-14" transform="translate(241.75 381.05) rotate(-27.16)"><tspan x="0" y="0">n</tspan></text>
      <text class="cls-28" transform="translate(13.87 188.19) rotate(-75.14)"><tspan x="0" y="0">C</tspan></text>
      <text class="cls-30" transform="translate(15.84 180.79) rotate(-72.68)"><tspan x="0" y="0">o</tspan></text>
      <text class="cls-17" transform="translate(17.73 174.73) rotate(-70.44)"><tspan x="0" y="0">n</tspan></text>
      <text class="cls-17" transform="translate(19.86 168.76) rotate(-68.42)"><tspan x="0" y="0">s</tspan></text>
      <text class="cls-25" transform="translate(21.78 163.94) rotate(-66.88)"><tspan x="0" y="0">t</tspan></text>
      <text class="cls-17" transform="translate(23.19 160.63) rotate(-65.6)"><tspan x="0" y="0">r</tspan></text>
      <text class="cls-17" transform="translate(24.69 157.27) rotate(-63.83)"><tspan x="0" y="0">u</tspan></text>
      <text class="cls-10" transform="translate(27.48 151.59) rotate(-61.67)"><tspan x="0" y="0">c</tspan></text>
      <text class="cls-20" transform="translate(30.35 146.3) rotate(-59.98)"><tspan x="0" y="0">t</tspan></text>
      <text class="cls-22" transform="translate(32.18 143.16) rotate(-58.91)"><tspan x="0" y="0">i</tspan></text>
      <text class="cls-21" transform="translate(33.4 141.08) rotate(-57.36)"><tspan x="0" y="0">o</tspan></text>
      <text class="cls-26" transform="translate(36.81 135.75) rotate(-55.13)"><tspan x="0" y="0">n</tspan></text>
      <text class="cls-17" transform="translate(42.01 128.42) rotate(-51.99)"><tspan x="0" y="0">e</tspan></text>
      <text class="cls-27" transform="translate(45.82 123.57) rotate(-50.26)"><tspan x="0" y="0">t</tspan></text>
      <text class="cls-24" transform="translate(49.83 118.8) rotate(-47.6)"><tspan x="0" y="0">e</tspan></text>
      <text class="cls-17" transform="translate(53.96 114.27) rotate(-45.38)"><tspan x="0" y="0">n</tspan></text>
      <text class="cls-17" transform="translate(58.43 109.77) rotate(-43.61)"><tspan x="0" y="0">t</tspan></text>
      <text class="cls-17" transform="translate(61.04 107.29) rotate(-42.32)"><tspan x="0" y="0">r</tspan></text>
      <text class="cls-17" transform="translate(63.75 104.79) rotate(-40.46)"><tspan x="0" y="0">a</tspan></text>
      <text class="cls-17" transform="translate(68.87 100.45) rotate(-38.84)"><tspan x="0" y="0">i</tspan></text>
      <text class="cls-17" transform="translate(70.75 98.91) rotate(-37.27)"><tspan x="0" y="0">n</tspan></text>
      <text class="cls-23" transform="translate(75.78 95.08) rotate(-35.05)"><tspan x="0" y="0">e</tspan></text>
      <text class="cls-18" transform="translate(80.77 91.51) rotate(-32.14)"><tspan x="0" y="0">m</tspan></text>
      <text class="cls-17" transform="translate(89.44 86.13) rotate(-29.25)"><tspan x="0" y="0">e</tspan></text>
      <text class="cls-19" transform="translate(94.81 83.11) rotate(-27.03)"><tspan x="0" y="0">n</tspan></text>
      <text class="cls-29" transform="translate(100.47 80.25) rotate(-25.29)"><tspan x="0" y="0">t</tspan></text>
      <text class="cls-17" transform="translate(106.1 77.61) rotate(-22.57)"><tspan x="0" y="0">d</tspan></text>
      <text class="cls-17" transform="translate(112.32 75.04) rotate(-20.31)"><tspan x="0" y="0">’</tspan></text>
      <text class="cls-3" transform="translate(114.34 74.28) rotate(-20.24)"><tspan x="0" y="0">I</tspan></text>
      <text class="cls-9" transform="translate(116.62 73.41) rotate(-18.64)"><tspan x="0" y="0">A</tspan></text>
    </g>
  </g>
</svg>