<?xml version="1.0" encoding="UTF-8"?>
<svg id="Calque_2" data-name="Calque 2" xmlns="http://www.w3.org/2000/svg" viewBox="0 0 255.48 255.58">
  <defs>
    <style>
      .cls-1 {
        fill: #fff;
      }

      .cls-2 {
        fill: #fff;
      }
    </style>
  </defs>
  <g id="Calque_4" data-name="Calque 4">
    <g>
      <path class="cls-1" d="M68.93,49.62c-6.65,4.93-12.14,10.3-17.04,16.3-.63,.77-1.23,1.57-1.88,2.33-2.04,2.37-4.8,2.77-7.05,1.05-2.36-1.8-2.73-4.66-.76-7.25,5.05-6.64,10.84-12.58,17.32-17.83,1.07-.87,2.14-1.73,3.21-2.6-.67-.89-1.63-.59-2.37-.96-2.33-1.15-3.54-3.62-2.79-5.98,.78-2.43,3.11-3.98,5.58-3.55,4.4,.78,8.8,1.6,13.18,2.51,4,.83,5.35,2.98,4.58,6.99-.84,4.39-1.59,8.8-2.58,13.16-.64,2.82-3.09,4.18-5.89,3.63-2.39-.47-3.98-2.7-3.8-5.35,.05-.65,.14-1.31,.27-2.46Z"/>
      <path class="cls-2" d="M34.34,89.47c-2.92-.02-5-2.15-4.93-5.07,.07-2.72,2.26-4.86,4.97-4.85,2.79,0,5.06,2.37,4.97,5.14-.09,2.76-2.22,4.79-5.01,4.78Z"/>
      <path class="cls-1" d="M174.06,137.26c-1.84-1.41-3.74-2.76-5.61-4.14-.61-.45-1.2-.85-1.03-1.8,.48-2.64-.74-5.7,.3-7.83,1.04-2.13,3.97-3.34,6.07-4.96,.07-.05,.12-.11,.19-.16,2.88-2.24,3.35-4.38,1.54-7.57-2.49-4.4-5.05-8.75-7.58-13.13-4.04-6.99-4.69-7.29-12.1-3.85-2.91,1.35-5.43,1.98-8.01-.48-.7-.66-1.67-1.13-2.61-1.41-1.36-.42-1.76-1.34-1.87-2.58-.2-2.15-.41-4.3-.64-6.45-.33-3.14-2.28-5-5.39-5.02-6.41-.04-12.81-.03-19.22,0-3.16,.01-4.94,1.59-5.37,4.69-.34,2.47-.68,4.94-.9,7.42-.08,.86-.5,1.19-1.12,1.68-4.61,3.6-9.3,4.39-14.25,.72-.06-.05-.16-.05-.24-.08-3.1-1.23-5.32-.58-6.99,2.25-3.24,5.5-6.43,11.02-9.58,16.57-1.61,2.84-1.06,5.18,1.56,7.18,1.78,1.36,3.58,2.71,5.44,3.95,.95,.63,1.05,1.41,1.22,2.46,.92,5.62-.84,9.77-6.17,12.17-.22,.1-.42,.27-.61,.43-2.46,1.95-3.04,4.31-1.5,7.02,3.18,5.62,6.42,11.22,9.71,16.78,1.59,2.69,3.85,3.35,6.82,2.15,2.15-.87,4.28-1.78,6.38-2.75,.91-.42,1.62-.53,2.51,.13,2,1.48,4.83,2.1,6.3,3.82,1.55,1.82,.8,4.92,1.26,7.43,.04,.25,.08,.49,.12,.74,.52,3.6,2.16,5.05,5.81,5.05,5.99,.01,11.98,0,17.97,0,4.28,0,6.04-1.55,6.25-5.93,.22-4.54,.78-8.72,6.12-10.11,.23-.06,.45-.24,.62-.41,1.31-1.31,2.64-1.16,4.24-.42,2.53,1.18,4.98,2.64,7.07,2.95,2.81,.12,4.27-.88,5.25-2.57,3.25-5.59,6.51-11.17,9.68-16.8,1.64-2.91,1.1-5.06-1.63-7.15Zm-16.98-15.33c.63,3.89,.67,7.77,0,11.66-.39,2.29,.54,3.96,2.36,5.36,1.8,1.39,4.85,2.25,5.01,4.36,.14,1.85-1.93,3.88-3.04,5.81q-1.93,3.37-5.43,1.85c-.99-.43-1.99-.82-2.97-1.26-2.09-.94-4.05-.76-5.81,.73-2.88,2.43-6.06,4.33-9.62,5.58-2.19,.77-3.36,2.34-3.67,4.58-.21,1.48-.51,2.97-.47,4.45,.06,2.26-.87,2.95-3.05,2.72-1.89-.2-3.86-.27-5.73,.02-2.4,.36-2.81-.91-2.89-2.75-.03-.66-.11-1.33-.11-1.99,0-4.07-1.81-6.64-5.84-7.84-2.7-.8-5.07-2.45-7.19-4.34-2.12-1.88-4.36-2.12-6.9-.99-1.94,.86-4.08,2.83-5.82,2.1-1.54-.64-2.27-3.27-3.31-5.04-2.3-3.92-2.4-4.1,1.4-6.58,3.48-2.28,4.99-4.92,3.94-9.18-.6-2.44-.45-5.13,.12-7.68,.69-3.08-.04-5.49-2.81-7.31-1.69-1.11-4.29-2.07-4.52-3.82-.2-1.58,1.68-3.44,2.67-5.17,2.38-4.16,2.49-4.37,6.67-2.2,3.66,1.89,6.66,1.81,9.7-1.13,1.66-1.6,3.76-2.84,5.98-3.46,4.05-1.13,5.68-3.73,5.94-7.78,.31-4.77,.48-4.79,5.13-4.74,2.06,.02,4.8-.9,6,.36,1.14,1.2,.74,3.9,.93,5.95,.26,2.74,1.5,4.67,4.2,5.57,3.27,1.08,6.19,2.82,8.78,5.05,2.08,1.79,4.22,1.99,6.68,.95,2.01-.85,4.22-2.93,6.04-2.08,1.61,.76,2.31,3.47,3.4,5.32,.63,1.07,1.25,2.14,1.83,3.15,.08,.84-.57,1.04-1,1.36-1.45,1.11-2.9,2.22-4.4,3.27-1.81,1.27-2.59,2.98-2.24,5.16Z"/>
      <path class="cls-1" d="M220.22,57.57c-2.24-.47-4.72,.96-5.54,3.24-.24,.68-.21,1.46-.74,2.02-2.73-3.14-5.31-6.4-8.18-9.38-14.17-14.75-31.14-24.81-50.96-29.97-1.6-.42-2.23-.99-2.17-2.78,.16-4.9,.07-9.81,.05-14.71-.02-4.04-1.93-5.97-5.93-5.97-12.72,0-25.44,0-38.17,0-3.99,0-5.82,1.79-5.83,5.73-.02,12.8-.02,25.61,0,38.41,0,3.95,1.85,5.76,5.8,5.76,12.72,.01,25.44,0,38.17,0,4.01,0,5.93-1.92,5.96-5.95,.02-3.48,0-6.97,0-10.76,21.74,6.07,39.24,17.87,53.16,35.79-.92-.07-1.33-.1-1.75-.13-3.58-.23-5.77,1.28-6.16,4.26-.38,2.89,1.52,5.06,4.94,5.71,4.15,.78,8.29,1.61,12.44,2.39,2.83,.54,5.56-.78,6.14-3.36,1.12-5.01,2.07-10.07,2.85-15.14,.38-2.5-1.53-4.63-4.08-5.16Zm-79.32-17.6c-8.81-.06-17.61-.06-26.42,0-1.44,.01-1.77-.42-1.76-1.81,.06-8.81,.06-17.61,0-26.42-.01-1.4,.36-1.8,1.78-1.79,8.81,.06,17.61,.06,26.42,0,1.41,0,1.82,.39,1.79,1.8-.09,4.49-.03,8.97-.03,13.46,0,4.32-.06,8.64,.03,12.96,.03,1.43-.41,1.8-1.81,1.79Z"/>
      <path class="cls-1" d="M152.65,210.9c-.01-3.23-2.15-5.23-5.39-5.23-13.06-.02-26.11-.02-39.17,0-3.33,0-5.28,1.92-5.33,5.21-.05,3.16-.08,6.32,.01,9.48,.05,1.58-.19,1.96-1.91,1.46-20.48-5.97-37.25-17.4-50.46-34.1-.23-.29-.64-.57-.31-1.07,1.39,0,2.81,.37,4.19-.13,2.04-.74,3.29-2.83,3.12-5.14-.17-2.31-1.82-4.03-4.54-4.57-4.14-.82-8.31-1.55-12.45-2.37-3.69-.73-6.15,.83-6.89,4.56-.86,4.31-1.68,8.62-2.48,12.94-.48,2.59,.82,4.88,3.2,5.79,2.24,.85,4.82-.02,6-2.15,.46-.84,.65-1.82,1.07-3.02,2.32,2.74,4.38,5.35,6.62,7.78,14.48,15.69,32.01,26.37,52.69,31.78,1.6,.42,2.23,1,2.18,2.79-.16,5.07-.08,10.14-.05,15.22,.03,3.5,1.92,5.46,5.34,5.46,13.06,.03,26.11,.03,39.17,0,3.24,0,5.37-2.02,5.39-5.24,.06-13.14,.06-26.28,0-39.42Zm-11.95,34.72c-4.4-.08-8.81-.03-13.21-.03s-8.64-.05-12.96,.03c-1.35,.02-1.84-.28-1.82-1.74,.07-8.81,.06-17.61,0-26.42,0-1.32,.21-1.86,1.72-1.85,8.81,.07,17.61,.06,26.42,0,1.34,0,1.87,.25,1.85,1.74-.07,8.81-.09,17.61,0,26.42,.02,1.67-.61,1.87-2.01,1.84Z"/>
      <path class="cls-1" d="M240.9,103.57c-10.21-5.45-22.74-4.06-31.28,3.78-7.71,7.08-10.35,16.15-8.34,26.28,2,10.08,8.26,16.83,18.02,20.05,2.17,.71,2.37,1.47,1.74,3.4-4.15,12.77-10.42,24.34-19.21,34.52-4.57,5.29-9.6,10.08-15.51,14.4,.13-.74,.22-1.13,.27-1.53,.4-3.54-1.12-5.93-4.01-6.34-3.2-.46-5.22,1.22-5.93,4.88-.77,3.99-1.58,7.97-2.35,11.95-.74,3.83,.67,6.09,4.51,6.91,4.46,.95,8.94,1.8,13.43,2.58,2.51,.44,4.79-1.17,5.46-3.65,.67-2.46-.54-4.89-2.87-5.94-.67-.3-1.52-.05-2.28-.93,.27-.22,.46-.37,.66-.53,19.02-14.8,31.85-33.78,38.35-56.99,.37-1.31,1.11-1.53,2.26-1.79,11.85-2.7,20.12-11.88,21.52-24.41,1.12-10.03-3.92-21.03-14.43-26.64Zm-12.76,41.69c-9.59,.06-17.53-7.76-17.54-17.27-.01-9.98,7.48-17.56,17.39-17.58,9.82-.02,17.45,7.64,17.5,17.55,.05,9.26-7.96,17.24-17.35,17.3Z"/>
      <path class="cls-1" d="M27.33,100.34C11.86,100.37-.05,112.4,0,127.9c.05,15.47,12.05,27.37,27.56,27.34,14.93-.03,27.34-12.58,27.26-27.57-.08-15.04-12.48-27.37-27.5-27.33Zm-.02,44.92c-9.57-.01-17.41-7.87-17.38-17.43,.03-9.93,7.65-17.5,17.55-17.42,9.83,.08,17.44,7.85,17.34,17.71-.09,9.32-8.08,17.15-17.51,17.14Z"/>
      <path class="cls-1" d="M127.79,110.32c-9.66-.03-17.53,7.69-17.55,17.21-.03,9.99,7.42,17.6,17.29,17.66,9.92,.07,17.63-7.65,17.64-17.65,0-9.3-7.96-17.2-17.38-17.22Zm-.18,24.95c-4.05-.02-7.38-3.4-7.37-7.47,0-4.19,3.18-7.41,7.34-7.46,4.18-.05,7.62,3.38,7.58,7.55-.04,3.94-3.58,7.41-7.55,7.38Z"/>
    </g>
  </g>
</svg>