<?xml version="1.0" encoding="UTF-8"?>
<svg id="Calque_2" data-name="Calque 2" xmlns="http://www.w3.org/2000/svg" viewBox="0 0 70.03 70">
  <defs>
    <style>
      .cls-1 {
        fill: #fff;
      }

      .cls-2 {
        fill: #fff;
      }

      .cls-3 {
        fill: #fff;
      }

      .cls-4 {
        fill: #fff;
      }

      .cls-5 {
        fill: #fff;
      }

      .cls-6 {
        fill: #fff;
      }

      .cls-7 {
        fill: #ffff;
      }

      .cls-8 {
        fill: #fff;
      }
    </style>
  </defs>
  <g id="Calque_1-2" data-name="Calque 1">
    <g>
      <path class="cls-6" d="M4.92,30.56c1.28,0,2.55,0,3.83,0,.78,0,1.23,.38,1.22,.98,0,.6-.47,.97-1.24,.97-2.51,0-5.01,0-7.52,0-.78,0-1.22-.38-1.21-.99,0-.62,.42-.95,1.23-.96,1.23-.01,2.46,0,3.69,0Z"/>
      <path class="cls-6" d="M65.04,30.56c1.25,0,2.51,0,3.76,0,.81,0,1.23,.34,1.23,.96,0,.61-.44,.99-1.22,.99-2.51,0-5.01,0-7.52,0-.78,0-1.23-.38-1.24-.98,0-.6,.44-.97,1.22-.98,1.25-.01,2.51,0,3.76,0Z"/>
      <path class="cls-6" d="M4.99,39.44c-1.25,0-2.51,0-3.76,0-.81,0-1.23-.35-1.23-.96,0-.61,.44-.99,1.22-.99,2.51,0,5.01,0,7.52,0,.78,0,1.23,.38,1.24,.98,0,.6-.44,.97-1.23,.98-1.25,.01-2.51,0-3.76,0Z"/>
      <path class="cls-6" d="M64.99,39.44c-1.21,0-2.42,0-3.62,0-.85,0-1.31-.34-1.32-.96,0-.62,.46-1,1.29-1,2.48,0,4.97,0,7.45,0,.79,0,1.23,.36,1.24,.97,0,.62-.4,.98-1.21,.98-1.28,.01-2.55,0-3.83,0Z"/>
      <path class="cls-5" d="M32.53,5c0,1.28,0,2.55,0,3.83,0,.43-.13,.8-.55,1.02-.34,.18-.66,.14-.97-.05-.32-.2-.43-.53-.43-.88,0-2.62-.01-5.24,0-7.86,0-.69,.4-1.08,.99-1.06,.57,.02,.94,.42,.95,1.11,.02,1.3,0,2.6,0,3.89Z"/>
      <path class="cls-5" d="M39.46,5c0,1.25,0,2.5,0,3.76,0,.79-.38,1.23-.98,1.22-.6-.01-.96-.47-.96-1.25,0-2.5,0-5.01,0-7.51,0-.77,.39-1.22,1-1.2,.6,.01,.94,.41,.95,1.17,.01,1.27,0,2.55,0,3.83Z"/>
      <path class="cls-8" d="M30.57,65.08c0-1.28,0-2.55,0-3.83,0-.79,.37-1.23,.97-1.23,.6,0,.97,.47,.97,1.24,0,2.5,0,5.01,0,7.51,0,.78-.38,1.22-.99,1.22-.62,0-.95-.41-.96-1.23-.01-1.23,0-2.46,0-3.69Z"/>
      <path class="cls-5" d="M39.46,65.07c0,1.23,0,2.46,0,3.69,0,.83-.33,1.23-.95,1.25-.63,.01-1-.44-1-1.27,0-2.48,0-4.96,0-7.45,0-.78,.36-1.24,.96-1.25,.62-.02,.98,.44,.99,1.28,0,1.25,0,2.5,0,3.76Z"/>
      <path class="cls-3" d="M23.64,4.99c0-1.28,0-2.55,0-3.83,0-.75,.34-1.16,.94-1.16,.58,0,.98,.44,.98,1.14,0,2.55,0,5.1,0,7.65,0,.71-.39,1.16-.96,1.17-.57,0-.96-.44-.96-1.15,0-1.28,0-2.55,0-3.83Z"/>
      <path class="cls-3" d="M46.39,5.04c0,1.23,0,2.46,0,3.69,0,.79-.35,1.24-.94,1.25-.59,0-.99-.47-.99-1.22,0-2.53,0-5.06,0-7.58,0-.72,.38-1.16,.96-1.17,.61,0,.96,.4,.97,1.14,0,1.3,0,2.6,0,3.89Z"/>
      <path class="cls-3" d="M4.99,23.63c1.28,0,2.55,0,3.83,0,.72,0,1.16,.39,1.15,.96,0,.57-.47,.96-1.17,.96-2.55,0-5.1,0-7.65,0-.7,0-1.15-.41-1.14-.99,0-.6,.41-.94,1.16-.94,1.28,0,2.55,0,3.83,0Z"/>
      <path class="cls-3" d="M65.08,23.63c1.28,0,2.55,0,3.83,0,.7,0,1.1,.34,1.12,.92,.02,.58-.42,1.01-1.12,1.01-2.57,0-5.15,0-7.72,0-.69,0-1.15-.44-1.13-1.01,.02-.55,.45-.91,1.13-.92,1.3,0,2.6,0,3.9,0Z"/>
      <path class="cls-7" d="M4.92,46.37c-1.25,0-2.51,0-3.76,0-.76,0-1.16-.34-1.16-.94,0-.58,.44-.98,1.15-.98,2.55,0,5.1,0,7.65,0,.71,0,1.16,.39,1.17,.96,0,.57-.44,.96-1.16,.96-1.3,0-2.6,0-3.9,0Z"/>
      <path class="cls-7" d="M65,46.37c-1.28,0-2.55,0-3.83,0-.68,0-1.1-.38-1.12-.93-.01-.57,.45-.99,1.14-.99,2.57,0,5.15,0,7.72,0,.67,0,1.09,.39,1.11,.95,.01,.61-.39,.97-1.13,.97-1.3,0-2.6,0-3.9,0Z"/>
      <path class="cls-3" d="M23.64,64.98c0-1.28,0-2.55,0-3.83,0-.68,.37-1.11,.92-1.13,.57-.02,1,.44,1.01,1.13,0,2.57,0,5.15,0,7.72,0,.7-.42,1.14-1.01,1.12-.57-.02-.91-.42-.92-1.12,0-1.3,0-2.6,0-3.89Z"/>
      <path class="cls-3" d="M46.39,65.05c0,1.28,0,2.55,0,3.83,0,.7-.34,1.1-.92,1.12-.59,.02-1.01-.42-1.01-1.12,0-2.57,0-5.15,0-7.72,0-.69,.43-1.15,1-1.13,.55,.02,.92,.45,.92,1.13,0,1.3,0,2.6,0,3.89Z"/>
      <path class="cls-1" d="M56.89,19.27c0-3.61-2.49-6.11-6.08-6.11-10.53,0-21.06,0-31.59,0-.55,0-1.09,.04-1.62,.18-2.74,.7-4.46,2.95-4.46,5.86,0,10.48,.04,20.96-.02,31.44-.02,3.8,2.87,6.33,6.24,6.26,5.22-.1,10.44-.03,15.66-.03s10.53,0,15.8,0c3.61,0,6.08-2.48,6.08-6.09,0-10.5,0-21.01,0-31.51Zm-1.93,31.47c0,2.6-1.62,4.21-4.22,4.21-10.48,0-20.97,0-31.45,0-2.6,0-4.22-1.61-4.22-4.21,0-10.48,0-20.96,0-31.43,0-2.61,1.59-4.2,4.22-4.2,5.26,0,10.53,0,15.79,0s10.44,0,15.66,0c2.06,0,3.48,.98,4.03,2.72,.15,.48,.2,.98,.2,1.48,0,10.48,0,20.96,0,31.43Z"/>
      <path class="cls-2" d="M51.9,21.06c-.54-1.93-2.11-3.06-4.31-3.06-4.19-.01-8.39,0-12.58,0-4.1,0-8.2,0-12.31,0-.52,0-1.05-.01-1.56,.12-2.01,.54-3.18,2.13-3.18,4.37,0,8.34,0,16.67,0,25.01,0,2.84,1.76,4.57,4.62,4.57,8.3,0,16.59,0,24.89,0,2.85,0,4.61-1.74,4.61-4.59,0-8.31,0-16.63,0-24.94,0-.5-.04-1-.17-1.49Zm-1.79,26.42c0,1.82-.85,2.65-2.69,2.65-8.27,0-16.55,0-24.82,0-1.84,0-2.68-.83-2.68-2.65,0-4.17,0-8.34,0-12.51,0-4.12,.04-8.25-.02-12.37-.03-1.73,1.08-2.7,2.67-2.69,8.3,.05,16.6,.05,24.89,0,1.59,0,2.68,.95,2.67,2.69-.04,8.29-.02,16.59-.02,24.88Z"/>
      <path class="cls-4" d="M40.91,34.04c0,1.87,0,3.73,0,5.6,0,.63-.28,.91-.9,.92-.64,.02-.97-.29-.97-.94,0-3.69,0-7.38,0-11.07,0-.69,.27-.94,.95-.94,.68,0,.92,.24,.92,.95,0,1.82,0,3.64,0,5.47Z"/>
      <path class="cls-1" d="M37.49,39.22c-1.1-3.6-2.2-7.19-3.28-10.8-.2-.68-.68-.89-1.28-.89-.61,0-1.09,.21-1.29,.88-1.11,3.67-2.23,7.33-3.35,10.99-.18,.59,.01,.9,.66,1.08,.67,.19,.96,.05,1.15-.57,.19-.61,.38-1.21,.53-1.83,.08-.33,.21-.45,.55-.44,1.16,.02,2.33,.03,3.49,0,.39-.01,.51,.17,.59,.48,.17,.63,.38,1.26,.54,1.9,.1,.41,.38,.53,.71,.55,.89-.03,1.25-.53,1-1.35Zm-3.15-3.07c-.95,0-1.91,0-2.86,0-.43,0-.25-.24-.19-.45,.52-1.8,1.04-3.6,1.62-5.58,.59,2.01,1.13,3.85,1.67,5.68,.06,.21,.03,.35-.24,.35Z"/>
    </g>
  </g>
</svg>