<?xml version="1.0" encoding="UTF-8"?>
<svg id="Calque_2" data-name="Calque 2" xmlns="http://www.w3.org/2000/svg" viewBox="0 0 70 70">
  <defs>
    <style>
      path {
        fill: #fff;
      }
    </style>
  </defs>
  <g id="Calque_1-2" data-name="Calque 1">
    <g>
      <path d="M38.92,0c2.57,.2,5.31,.41,8.06,.62,3.31,.25,6.63,.49,9.94,.77,1.68,.14,3.37,.2,5.01,.55,3.57,.76,6.18,4,6.44,7.64,.32,4.56,.7,9.12,1.05,13.68,.19,2.47,.4,4.94,.56,7.42,.18,2.62-.67,4.87-2.54,6.73-10.03,10.03-20.05,20.07-30.1,30.09-3.37,3.36-8.43,3.34-11.79-.02-7.65-7.64-15.3-15.29-22.94-22.94-3.46-3.47-3.49-8.47-.03-11.93C12.59,22.57,22.61,12.56,32.62,2.55,34.31,.85,36.34,0,38.92,0Zm26.7,31.33c-.2-2.68-.38-5.24-.58-7.8-.35-4.54-.72-9.07-1.05-13.61-.14-1.86-1.36-3.4-3.2-3.76-1.07-.21-2.17-.23-3.25-.32-3.29-.26-6.58-.51-9.87-.77-2.65-.2-5.31-.35-7.96-.63-1.69-.18-3.04,.24-4.26,1.46C25.6,15.79,15.72,25.65,5.85,35.52c-1.94,1.94-1.95,4.11-.02,6.03,7.55,7.55,15.1,15.1,22.66,22.65,1.89,1.89,4.07,1.88,5.98-.02,4.67-4.67,9.34-9.34,14.01-14.01,5.27-5.26,10.53-10.53,15.8-15.79,.88-.88,1.38-1.9,1.35-3.05Z"/>
      <path d="M51.23,27.07c-4.56,0-8.29-3.72-8.29-8.28,0-4.59,3.74-8.35,8.31-8.34,4.55,0,8.28,3.73,8.31,8.29,.02,4.57-3.73,8.33-8.33,8.33Zm3.93-8.3c0-2.16-1.72-3.9-3.89-3.93-2.18-.03-3.96,1.74-3.96,3.92,0,2.15,1.75,3.91,3.89,3.93,2.19,.01,3.95-1.74,3.96-3.92Z"/>
    </g>
  </g>
</svg>