<?xml version="1.0" encoding="UTF-8"?>
<svg id="Calque_2" data-name="Calque 2" xmlns="http://www.w3.org/2000/svg" viewBox="0 0 57.55 70">
  <defs>
    <style>
      .cls-1 {
        fill: #fff;
      }

      .cls-2 {
        fill: #fff;
      }
    </style>
  </defs>
  <g id="Calque_1-2" data-name="Calque 1">
    <g>
      <path class="cls-2" d="M57.52,35.2c0-4.55,0-9.11,0-13.66,0-4.03-.06-8.06,.03-12.09,.04-1.72-.6-2.98-1.88-4.01-.3-.24-.62-.46-.94-.67-1.65-1.07-3.48-1.74-5.35-2.29C43.45,.75,37.37,.19,31.25,.04c-6.66-.17-13.28,.24-19.81,1.62-2.8,.59-5.54,1.37-8.06,2.78C1.18,5.66-.08,7.3,0,10.06c.17,5.94,.05,11.88,.05,17.83v18.31c0,4.85,.03,9.7-.02,14.55-.02,1.58,.6,2.75,1.77,3.72,1.64,1.36,3.57,2.14,5.56,2.78,5.19,1.67,10.56,2.27,15.96,2.58,4.73,.28,9.46,.19,14.19-.24,3.85-.35,7.67-.89,11.4-1.94,2.41-.68,4.76-1.5,6.75-3.1,1.24-.99,1.88-2.22,1.87-3.88-.04-8.49-.02-16.99-.02-25.48ZM2.98,7.82c.84-.94,1.96-1.46,3.09-1.93,3.06-1.27,6.28-1.94,9.53-2.44,4.71-.72,9.46-1.01,14.22-.94,6.24,.1,12.44,.61,18.49,2.29,1.77,.49,3.51,1.09,5.09,2.05,.45,.27,.87,.59,1.21,.99,.55,.66,.56,1.17,0,1.83-.6,.71-1.4,1.15-2.22,1.55-2.81,1.34-5.81,2.03-8.85,2.58-4.87,.88-9.8,1.17-14.85,1.22-5.73-.06-11.53-.45-17.24-1.75-2.26-.51-4.48-1.13-6.55-2.19-.71-.36-1.39-.77-1.93-1.38-.58-.67-.59-1.21,0-1.88Zm-.44,5.52v-.75c3.23,1.99,6.71,2.88,10.26,3.54,6.11,1.15,12.28,1.51,18.48,1.34,6.1-.17,12.16-.72,18.06-2.43,1.96-.57,3.86-1.29,5.68-2.48v.73c0,4.1-.03,8.2,.02,12.3,.01,1.02-.39,1.69-1.16,2.24-1.29,.92-2.75,1.49-4.24,1.97-3.67,1.18-7.45,1.81-11.27,2.21-4.7,.49-9.41,.63-14.12,.39-5.68-.29-11.32-.93-16.76-2.73-1.34-.44-2.63-.99-3.79-1.8-.78-.55-1.21-1.24-1.19-2.29,.06-4.08,.02-8.16,.02-12.23ZM55.04,60.76c0,.79-.29,1.35-.86,1.83-1.01,.84-2.2,1.35-3.41,1.81-2.9,1.09-5.92,1.72-8.97,2.17-5.81,.86-11.65,1.11-17.5,.81-5.96-.3-11.87-.96-17.53-3-1.15-.42-2.27-.93-3.25-1.69-.67-.52-1-1.14-.99-2.04,.04-4.33,.02-8.66,.02-13.07,3.68,2.23,7.7,3.13,11.78,3.8,5.59,.93,11.22,1.24,16.87,1.08,6.15-.17,12.25-.72,18.19-2.44,1.94-.56,3.82-1.28,5.55-2.41,.17,.21,.08,.44,.08,.65,0,4.17-.01,8.34,.02,12.51Zm-1.15-15.43c-1.25,.9-2.66,1.46-4.11,1.93-3.69,1.19-7.49,1.84-11.33,2.24-4.67,.49-9.36,.63-14.05,.39-5.98-.31-11.91-.95-17.6-3-1.18-.42-2.31-.94-3.31-1.72-.64-.5-.98-1.11-.97-1.98,.04-4.12,.02-8.25,.02-12.37v-.74c3.3,2.03,6.92,2.91,10.6,3.61,2.82,.53,5.66,.84,8.52,1.04,3.07,.22,6.14,.33,9.22,.25,6.24-.18,12.44-.7,18.47-2.44,1.96-.57,3.86-1.3,5.68-2.47v.73c0,4.1-.03,8.2,.02,12.3,.01,1.02-.4,1.69-1.16,2.23Z"/>
      <path class="cls-1" d="M52.54,21.23c.02,.66-.58,1.27-1.26,1.28-.65,0-1.22-.54-1.26-1.2-.03-.66,.54-1.29,1.21-1.32,.65-.03,1.28,.57,1.3,1.24Z"/>
      <path class="cls-1" d="M51.28,40c-.68,0-1.27-.6-1.25-1.28,.01-.64,.58-1.22,1.23-1.24,.66-.02,1.28,.58,1.29,1.25,0,.67-.59,1.27-1.27,1.27Z"/>
      <path class="cls-1" d="M52.54,56.25c0,.67-.61,1.26-1.28,1.25-.66-.01-1.22-.57-1.23-1.23-.02-.67,.58-1.28,1.24-1.29,.66,0,1.28,.61,1.27,1.27Z"/>
    </g>
  </g>
</svg>