<?xml version="1.0" encoding="UTF-8"?>
<svg id="Calque_2" data-name="Calque 2" xmlns="http://www.w3.org/2000/svg" viewBox="0 0 214.62 255.52">
  <defs>
    <style>
      .cls-1 {
        fill: #fff;
      }
    </style>
  </defs>
  <g id="Calque_4" data-name="Calque 4">
    <g>
      <path class="cls-1" d="M214.05,45.88c0-.65-.09-1.33-.26-1.96-1.21-4.45-4.55-6.84-10-6.86-8.08-.04-16.12-.56-24.1-1.77-25.26-3.85-47.23-14.42-65.63-32.23-1.14-1.11-2.4-2.03-3.93-2.55-4.17-1.4-7.36,.25-10.32,3.08-21.18,20.29-46.68,30.65-75.73,32.93-5.4,.42-10.82,.05-16.18,.82-4.37,.63-7.45,4.2-7.47,8.6-.06,9.65-.02,19.29-.02,28.94-.36,11.14-.66,22.28-.08,33.42,.84,15.95,2.59,31.76,6.59,47.25,6.47,25.04,18.36,46.97,37.37,64.79,17.32,16.24,37.84,26.9,60.04,34.7,2.23,.78,4.37,.52,6.56-.26,11.09-3.96,21.83-8.65,32.07-14.5,30.6-17.46,51.56-42.74,62.19-76.45,6.71-21.27,8.84-43.18,9.34-65.32,.39-17.55-.22-35.1-.44-52.65Zm-17.98,67.11c-1.52,22.47-5.14,44.44-15.64,64.75-10.04,19.44-24.95,34.2-43.56,45.4-8.96,5.39-18.43,9.73-28.22,13.38-.74,.28-1.38,.56-2.33,.2-20.61-7.66-39.45-18.15-54.73-34.29-14.57-15.38-23.44-33.72-28.22-54.23-4.46-19.14-5.62-38.58-5.52-58.14,.05-11.06,.29-22.12,.37-33.18,.01-1.55,.41-2.1,2.02-2.21,9.36-.61,18.67-1.68,27.85-3.7,21.29-4.67,40.28-14.01,56.9-28.08,1.75-1.48,2.71-1.52,4.48-.02,18.36,15.61,39.55,25.2,63.23,29.39,7.12,1.26,14.31,2,21.52,2.41,1.57,.09,2.07,.58,2.05,2.18-.08,8.23-.04,16.46-.04,24.7,.5,10.48,.54,20.96-.16,31.42Z"/>
      <path class="cls-1" d="M153.21,102.89c.15,2.79-1,4.95-2.82,6.77-16.28,16.3-32.54,32.61-48.88,48.84-4.17,4.14-9.28,3.99-13.46-.16-7.96-7.91-15.9-15.85-23.82-23.81-3.93-3.95-4.06-9.46-.42-13.09,3.63-3.62,8.92-3.56,12.89,.32,5.59,5.46,11.14,10.97,16.57,16.59,1.37,1.42,1.99,1.16,3.23-.08,13.6-13.68,27.25-27.32,40.91-40.94,4.6-4.59,11.08-4.21,14.37,.75,.99,1.49,1.53,3.11,1.43,4.8Z"/>
    </g>
  </g>
</svg>