<svg width="309" height="176" viewBox="0 0 309 176" fill="none" xmlns="http://www.w3.org/2000/svg">
<path d="M104 19L135 33.5M149 6.5L138.5 31M152.5 6.5L174 23M179.5 28L202 41.5M202 41.5L223 25M202 41.5L221.5 68M175.5 29V66.5M141 37L171.5 63.5M141 78L169.5 69M194.5 86L179.5 73M114.5 63.5L135 79.5M133.5 37L115.5 57M79.5 47.5L105.5 59M93 86L105.5 68" stroke="url(#paint0_linear_219_189)" stroke-width="4"/>
<circle cx="101.5" cy="16.5" r="6" fill="url(#paint1_linear_219_189)" stroke="white"/>
<circle cx="136.5" cy="34.5" r="7" fill="url(#paint2_linear_219_189)" stroke="white"/>
<circle cx="149" cy="5" r="4.5" fill="url(#paint3_linear_219_189)" stroke="white"/>
<circle cx="176" cy="25" r="5.5" fill="url(#paint4_linear_219_189)" stroke="white"/>
<circle cx="223.5" cy="23.5" r="5" fill="url(#paint5_linear_219_189)" stroke="white"/>
<circle cx="222" cy="67" r="3.5" fill="url(#paint6_linear_219_189)" stroke="white"/>
<circle cx="197" cy="86" r="4.5" fill="url(#paint7_linear_219_189)" stroke="white"/>
<circle cx="176" cy="68" r="8.5" fill="url(#paint8_linear_219_189)" stroke="white"/>
<circle cx="110" cy="60" r="10.5" fill="url(#paint9_linear_219_189)" stroke="white"/>
<circle cx="136.5" cy="78.5" r="7" fill="url(#paint10_linear_219_189)" stroke="white"/>
<circle cx="77" cy="46" r="5.5" fill="url(#paint11_linear_219_189)" stroke="white"/>
<circle cx="92.5" cy="85.5" r="4" fill="url(#paint12_linear_219_189)" stroke="white"/>
<path d="M104.962 131H100.762V106.5H104.962V131ZM108.853 131V106.5H115.643L121.418 121.97L127.193 106.5H133.983V131H129.783V111.645L123.413 127.5H119.458L113.053 111.645V131H108.853ZM137.546 130.965L145.106 106.5H150.391L157.986 130.965H153.506L151.756 125.05H143.776L142.026 130.965H137.546ZM147.766 111.75L144.896 121.41H150.636L147.766 111.75ZM171.073 131.315C169.416 131.315 167.864 131 166.418 130.37C164.971 129.717 163.699 128.818 162.603 127.675C161.506 126.532 160.643 125.213 160.013 123.72C159.406 122.203 159.103 120.593 159.103 118.89C159.103 117.187 159.406 115.577 160.013 114.06C160.619 112.543 161.471 111.202 162.568 110.035C163.664 108.845 164.936 107.912 166.383 107.235C167.829 106.558 169.393 106.22 171.073 106.22C173.126 106.22 175.039 106.722 176.813 107.725C178.586 108.728 180.126 110.245 181.433 112.275L177.723 114.69C176.836 113.29 175.821 112.275 174.678 111.645C173.534 110.992 172.333 110.665 171.073 110.665C169.649 110.665 168.366 111.038 167.223 111.785C166.103 112.532 165.204 113.535 164.528 114.795C163.874 116.032 163.548 117.397 163.548 118.89C163.548 119.917 163.746 120.908 164.143 121.865C164.539 122.822 165.076 123.685 165.753 124.455C166.453 125.202 167.258 125.797 168.168 126.24C169.078 126.683 170.046 126.905 171.073 126.905C172.566 126.905 173.756 126.707 174.643 126.31C175.553 125.913 176.323 125.237 176.953 124.28V122.67H172.998V118.54H181.398V125.4C180.394 127.477 179.041 128.982 177.338 129.915C175.634 130.848 173.546 131.315 171.073 131.315ZM208.6 118.68C208.6 120.43 208.285 122.075 207.655 123.615C207.048 125.132 206.196 126.462 205.1 127.605C204.003 128.748 202.731 129.647 201.285 130.3C199.838 130.953 198.286 131.28 196.63 131.28C194.95 131.28 193.386 130.953 191.94 130.3C190.493 129.623 189.221 128.713 188.125 127.57C187.028 126.403 186.165 125.062 185.535 123.545C184.928 122.005 184.625 120.383 184.625 118.68C184.625 116.977 184.94 115.378 185.57 113.885C186.2 112.368 187.075 111.038 188.195 109.895C189.315 108.728 190.598 107.818 192.045 107.165C193.491 106.512 195.02 106.185 196.63 106.185C198.286 106.185 199.826 106.512 201.25 107.165C202.696 107.818 203.968 108.728 205.065 109.895C206.185 111.038 207.048 112.368 207.655 113.885C208.285 115.378 208.6 116.977 208.6 118.68ZM204.26 118.68C204.26 117.14 203.91 115.74 203.21 114.48C202.533 113.22 201.611 112.217 200.445 111.47C199.301 110.7 198.03 110.315 196.63 110.315C195.23 110.315 193.946 110.7 192.78 111.47C191.613 112.24 190.68 113.267 189.98 114.55C189.303 115.81 188.965 117.187 188.965 118.68C188.965 120.22 189.303 121.632 189.98 122.915C190.68 124.198 191.613 125.225 192.78 125.995C193.946 126.765 195.23 127.15 196.63 127.15C198.053 127.15 199.336 126.765 200.48 125.995C201.623 125.225 202.533 124.198 203.21 122.915C203.91 121.608 204.26 120.197 204.26 118.68Z" fill="url(#paint13_linear_219_189)"/>
<defs>
<linearGradient id="paint0_linear_219_189" x1="104.5" y1="15" x2="210" y2="84.5" gradientUnits="userSpaceOnUse">
<stop stop-color="#F17674"/>
<stop offset="1" stop-color="#8F3CC1"/>
</linearGradient>
<linearGradient id="paint1_linear_219_189" x1="104.5" y1="19" x2="92.5" y2="9" gradientUnits="userSpaceOnUse">
<stop stop-color="#F17674"/>
<stop offset="1" stop-color="#8F3CC1"/>
</linearGradient>
<linearGradient id="paint2_linear_219_189" x1="139.962" y1="37.3846" x2="126.115" y2="25.8462" gradientUnits="userSpaceOnUse">
<stop stop-color="#F17674"/>
<stop offset="1" stop-color="#8F3CC1"/>
</linearGradient>
<linearGradient id="paint3_linear_219_189" x1="151.308" y1="6.92308" x2="142.077" y2="-0.769231" gradientUnits="userSpaceOnUse">
<stop stop-color="#F17674"/>
<stop offset="1" stop-color="#8F3CC1"/>
</linearGradient>
<linearGradient id="paint4_linear_219_189" x1="178.769" y1="27.3077" x2="167.692" y2="18.0769" gradientUnits="userSpaceOnUse">
<stop stop-color="#F17674"/>
<stop offset="1" stop-color="#8F3CC1"/>
</linearGradient>
<linearGradient id="paint5_linear_219_189" x1="226.038" y1="25.6154" x2="215.885" y2="17.1538" gradientUnits="userSpaceOnUse">
<stop stop-color="#F17674"/>
<stop offset="1" stop-color="#8F3CC1"/>
</linearGradient>
<linearGradient id="paint6_linear_219_189" x1="223.846" y1="68.5385" x2="216.462" y2="62.3846" gradientUnits="userSpaceOnUse">
<stop stop-color="#F17674"/>
<stop offset="1" stop-color="#8F3CC1"/>
</linearGradient>
<linearGradient id="paint7_linear_219_189" x1="199.308" y1="87.9231" x2="190.077" y2="80.2308" gradientUnits="userSpaceOnUse">
<stop stop-color="#F17674"/>
<stop offset="1" stop-color="#8F3CC1"/>
</linearGradient>
<linearGradient id="paint8_linear_219_189" x1="180.154" y1="71.4615" x2="163.538" y2="57.6154" gradientUnits="userSpaceOnUse">
<stop stop-color="#F17674"/>
<stop offset="1" stop-color="#8F3CC1"/>
</linearGradient>
<linearGradient id="paint9_linear_219_189" x1="115.077" y1="64.2308" x2="94.7692" y2="47.3077" gradientUnits="userSpaceOnUse">
<stop stop-color="#F17674"/>
<stop offset="1" stop-color="#8F3CC1"/>
</linearGradient>
<linearGradient id="paint10_linear_219_189" x1="139.962" y1="81.3846" x2="126.115" y2="69.8462" gradientUnits="userSpaceOnUse">
<stop stop-color="#F17674"/>
<stop offset="1" stop-color="#8F3CC1"/>
</linearGradient>
<linearGradient id="paint11_linear_219_189" x1="79.7692" y1="48.3077" x2="68.6923" y2="39.0769" gradientUnits="userSpaceOnUse">
<stop stop-color="#F17674"/>
<stop offset="1" stop-color="#8F3CC1"/>
</linearGradient>
<linearGradient id="paint12_linear_219_189" x1="94.5769" y1="87.2308" x2="86.2692" y2="80.3077" gradientUnits="userSpaceOnUse">
<stop stop-color="#F17674"/>
<stop offset="1" stop-color="#8F3CC1"/>
</linearGradient>
<linearGradient id="paint13_linear_219_189" x1="225.808" y1="153.846" x2="190.761" y2="28.507" gradientUnits="userSpaceOnUse">
<stop stop-color="#F17674"/>
<stop offset="1" stop-color="#8F3CC1"/>
</linearGradient>
</defs>
</svg>
