<?xml version="1.0" encoding="UTF-8"?>
<svg id="Calque_2" data-name="Calque 2" xmlns="http://www.w3.org/2000/svg" viewBox="0 0 250.38 255.57">
  <defs>
    <style>
      .cls-1 {
        fill: #fff;
      }

      .cls-2 {
        fill: #fff;
      }
    </style>
  </defs>
  <g id="Calque_4" data-name="Calque 4">
    <g>
      <path class="cls-1" d="M218.56,169.53c-1.16-.94-1.95-1.54-2.69-2.2-3.77-3.32-3.91-7.7-.07-10.91,1.46-1.22,1.76-2.3,1.22-3.93-.23-.7-.5-1.49-.4-2.19,.45-3.21-1.35-4.52-4.1-5.02-7.85-1.45-10.5-8.22-10.25-13.58,.34-7.31,4.9-12.19,12.27-13.45,1.78-.3,3.25-1.18,4.62-2.29,2.7-2.18,5.04-4.86,8.43-6.09,.85-.31,.88-1.1,1.06-1.83,1.1-4.54,1.24-9.21,1.81-13.82,.92-7.49,2.61-14.56,8.86-19.62,.3-.24,.46-.67,.73-1.1-4.77-2.29-9.85-3.16-14.88-4.12-3.89-.74-7.31-2.08-9.84-5.27-1.2-1.51-2.93-2.14-4.71-2.57-3.1-.75-5.7-2.25-7.55-4.89-1.3-1.86-3.21-2.49-5.33-2.79-1.97-.28-3.96-.51-5.88-.99-5.07-1.25-8.53-4.27-9.82-9.46-.36-1.46-.94-2.07-2.64-2.07-7.28-.02-13.09-2.63-16.14-9.76-1.04-2.42-2.73-4.32-4.89-5.84-4.92-3.47-8.5-8.14-11.53-13.25-.89-1.5-1.81-1.96-3.38-1.26-.44,.2-.97,.2-1.45,.34-1.74,.52-3.75,.69-5.15,1.69-1.58,1.13,.03,3.26-.54,4.9-.24,.69-.21,1.48-.41,2.19-1.07,3.81-3.23,7.17-4.32,11-.69,2.43-2.95,3.95-5.11,5.26-5.42,3.28-11.19,5.45-17.62,5.25-2.49-.08-3.77,.61-4.06,3.3-.35,3.23-2.79,4.97-5.53,6.18-8.72,3.86-18.97,.49-23.94-7.96-1.78-3.03-4.18-4.76-7.91-5.06,1.28,5.16,2.92,10,3.7,15.04,.35,2.23,.51,4.5,.04,6.7-1.19,5.54-7.06,8.67-13.1,7.01-1.27-.35-2.41-.33-3.64-.04-7.28,1.73-12.49-.45-16.31-6.78-1.3-2.15-4.83-2.61-6.49-.83-2.47,2.63-4.75,3.15-8.04,1.65-1.43-.65-2.83-1.42-4.09-2.34-1.78-1.3-3.58-2.1-6.04-1.09,3.92,4.6,1.54,8.51-1.67,12.21-1.17,1.35-.91,2.07,.64,2.66,.85,.32,1.63,.8,2.58,.85,4.17,.21,7.88,1.77,11.43,3.84,7.71,4.5,15.11,9.42,20.73,16.51,4.26,5.37,6.82,11.15,3.86,18.17-.89,2.12,2.75,8.88,5.34,9.78,4.73,1.65,6.2,5.42,6.95,9.74,.33,1.88,.36,3.8,.57,5.7,.28,2.53,.38,5.02,2.15,7.23,1.52,1.9,.94,4.31,.11,6.44-1.02,2.62-2.13,5.21-3.34,7.74-1.15,2.43-3.89,3.43-6.32,2.48-2.26-.88-4.02-3.73-2.88-5.88,2.31-4.34,2.4-8.46,.88-13.06-.92-2.78-.81-5.9-1.04-8.88-.1-1.31-.63-1.97-1.79-2.64-7.25-4.22-9.89-11.23-11.18-18.99-.15-.93,.15-1.87,.69-2.6,1.74-2.32,1.11-4.51-.19-6.71-2.21-3.72-5.42-6.49-8.73-9.14-3.38-2.7-7-5.04-10.74-7.19-2.53-1.45-5.19-2.36-8.17-2.69-3.86-.44-7.29-2.25-10.07-5.01-3.55-3.52-3.8-8.17-.61-12.67,.94-1.32,1.05-1.94-.23-3.14-3.3-3.09-3.13-7.3,.17-10.52,5.26-5.13,15.24-6.13,21.4-2.07,1.17,.77,1.97,.8,3.23,.09,4.12-2.31,8.53-1.4,12.9-.85,3.14,.39,5.03,1.96,6.12,4.97,1.3,3.56,2.9,4.24,6.6,3.15,2.82-.83,5.59-1.66,8.54,.27-.04-4.09-1.36-7.69-2.25-11.37-.61-2.49-1.65-4.87-1.82-7.46-.38-5.93,3.36-10.09,9.29-10.2,7.42-.14,13.12,2.97,16.98,9.35,2.48,4.11,6.23,5.92,10.18,4.88,.8-.21,1.42-.36,1.66-1.46,1.46-6.59,5.56-9.1,12.6-9.21,4.62-.08,8.81-1.3,12.76-3.57,1.18-.68,2.14-1.37,2.05-3.05-.08-1.42,.8-2.67,1.63-3.82,1.76-2.43,2.27-4.99,1.49-7.99-.94-3.63,.86-6.73,4.72-8.6,4.58-2.22,9.55-3.22,14.44-4.44,4.3-1.07,5.55-.64,7.87,3.14,3.72,6.04,7.68,11.8,13.62,15.99,2.6,1.83,4.39,4.55,5.6,7.51,1.15,2.82,3.22,4.06,6.12,4.2,.66,.03,1.33,.08,1.99,.09,7.16,.1,9.26,1.61,11.08,8.5,.61,2.3,1.85,3.27,4.11,3.57,2.95,.39,5.93,.66,8.74,1.78,2.21,.88,4.22,2.07,5.6,3.98,1.25,1.73,2.85,2.63,4.86,3.13,2.71,.66,5.25,1.89,7,4.04,1.85,2.27,4.23,2.96,6.89,3.45,4.48,.82,8.92,1.81,13.18,3.49,1.7,.67,3.33,1.48,4.78,2.62,3.96,3.1,4.91,7.49,2.59,11.96-.77,1.49-1.67,2.95-2.98,3.95-4.09,3.12-4.97,7.64-5.63,12.29-.73,5.18-.87,10.43-2.03,15.55-1.01,4.44-2.71,8.37-7.74,9.73-.96,.26-1.77,1.2-2.56,1.93-3.72,3.43-7.72,6.25-12.94,6.89-2.1,.26-2.84,1.9-2.97,3.76-.13,1.84,.57,3.17,2.6,3.58,1.13,.23,2.2,.7,3.3,1.07,5.33,1.79,8.15,5.46,8.29,11.11,.04,1.68,.34,3.28,.99,4.84,1.23,2.98,.74,5.7-1.47,8.04-.73,.77-.93,1.17-.12,2.18,5.15,6.49,3.69,13.03-3.75,16.82,1.35,1.77,2.78,3.46,4.01,5.29,3.19,4.72,2.72,7.98-1.64,11.6-.93,.77-1.01,1.28-.21,2.18,1.55,1.75,3.24,2.99,5.77,2.87,1.64-.07,3.31-.15,4.96,.31,3.45,.98,5.07,4.01,3.67,7.33-.84,2-1.45,4.01-1.85,6.15-.95,5.15-3.9,8.9-8.59,11.21-1.55,.76-3.16,1.49-4.83,1.92-4.08,1.05-7.25,2.47-9.79,6.64-4.9,8.03-15.97,9.55-23.7,4.19-2.11-1.46-4.05-3.18-6.02-4.84-2.36-1.99-4.92-2.76-8.06-2.24-3.43,.56-6.95,.65-10.4-.2-2.07-.51-4.03-1.36-5.32-3.01-1.39-1.78-2.97-1.82-4.83-1.31-1.51,.42-3.04,.81-4.52,1.32-8.91,3.04-12.13,8.62-10.38,17.9,.14,.73,.24,1.47,.39,2.2,.47,2.25-.11,4.14-2.05,5.45-1.94,1.31-3.93,1.18-5.79-.2-1.12-.83-2.04-.9-3.36-.19-3.46,1.86-7.04,1.74-10.45-.21-1.42-.81-2.82-1.12-4.47-1.04-6.48,.31-9.47-1.82-11.33-8.01-.32-1.05-.62-1.23-1.69-1.09-4.81,.64-9.35,.38-12.39-4.24-.67-1.01-1.63-.56-2.49-.4-4.68,.88-9.48,1.71-14.06,.24-4.23-1.36-8.74-1.92-12.74-3.58-5.01-2.08-10.22-3.75-15.04-6.31-3.62-1.92-5.66-4.83-5.49-9,.06-1.57-.5-2.37-1.87-3.06-5.85-2.93-6.95-5.97-4.42-12.05,1.43-3.45,3.35-6.66,5.31-9.83,1.54-2.5,4.32-3.2,6.68-1.89,2.42,1.35,3.26,4.22,1.9,6.88-1.14,2.21-2.38,4.36-3.63,6.51-.62,1.06-.8,1.75,.54,2.56,3.58,2.16,5.68,5.31,5.43,9.66-.07,1.17,.55,1.66,1.45,1.99,2.01,.75,4.02,1.52,6.06,2.18,1.43,.46,2.84,.91,4.05,1.83,1.66,1.27,3.55,1.77,5.61,1.67,1.44-.07,2.94,.01,4.09,.8,4.74,3.21,9.82,2.43,14.91,1.44,4.66-.9,8.82-.53,11.5,4.05,.42,.71,.98,.83,1.67,.75,.9-.11,1.81-.22,2.7-.4,6.31-1.31,9.96,.93,11.22,7.25,.38,1.89,1.05,2.38,2.77,1.97,2.81-.67,5.23,.45,7.52,1.84,1.2,.73,2.07,.41,3.37,.04,3.39-.98,3.85-3.05,4.13-6.24,.57-6.53,4-11.7,9.56-15.27,5.32-3.42,11.18-5.34,17.48-5.88,3.45-.3,6.43,.71,8.63,3.46,1.03,1.3,2.27,1.84,3.89,1.73,1.57-.1,3.19,.07,4.73-.22,5.72-1.09,10.66,.52,15.1,4.06,1.88,1.5,3.68,3.13,5.62,4.54,4.1,2.97,9.67,1.15,11.23-3.67,1.11-3.45,3.73-5.12,6.89-6.26,3.11-1.12,6.43-1.6,9.46-2.97,2.08-.94,3.57-2.34,4.05-4.68,.29-1.41,.03-2-1.59-2.25-5.89-.91-12-8.18-11.93-13.92,.03-2.35,.76-4.49,2.36-6.11,1.29-1.3,1-2.05-.06-3.21-1.51-1.65-2.94-3.41-4.2-5.25-4.35-6.36-2.05-11.63,5.58-12.93,.31-.05,.63-.09,1.36-.2Z"/>
      <path class="cls-2" d="M53.07,183.18c-2.73-.02-4.87-2.14-4.91-4.88-.04-2.79,2.25-5.13,5-5.1,2.66,.03,4.88,2.26,4.92,4.94,.04,2.81-2.19,5.05-5.01,5.03Z"/>
      <path class="cls-1" d="M145.95,43.28c-2.33,.02-4.64,.18-6.94,.61-18.08,3.34-31.27,22.75-27.44,40.64,3.5,16.32,12.59,29.26,25.1,39.89,6.84,5.81,11.71,5.7,18.61-.07,11.06-9.25,19.18-20.69,23.65-34.42,8.17-25.07-11.45-47.07-32.98-46.64Zm18.85,53.94c-4.15,7.36-9.22,13.99-15.79,19.39-2.9,2.38-3.31,2.47-6.1,.05-10.26-8.88-17.96-19.52-21.23-32.86-3.22-13.11,5.56-26.98,18.6-29.9,13.46-3.01,26.83,5.47,29.9,18.92,.43,1.88,.51,3.78,.62,5.98-.14,6.54-2.72,12.61-6,18.42Z"/>
      <path class="cls-1" d="M145.82,63.26c-8.25,.03-14.87,6.63-14.91,14.87-.04,8.21,6.9,15.14,15.09,15.07,8.2-.08,14.83-6.78,14.84-14.99,0-8.41-6.59-14.97-15.02-14.94Zm.11,19.9c-2.76,.02-5.04-2.36-4.95-5.15,.08-2.73,2.27-4.78,5.04-4.73,2.79,.05,4.81,2.14,4.79,4.94-.02,2.72-2.2,4.93-4.88,4.94Z"/>
    </g>
  </g>
</svg>