<?xml version="1.0" encoding="UTF-8"?>
<svg id="Calque_2" data-name="Calque 2" xmlns="http://www.w3.org/2000/svg" viewBox="0 0 255.56 255.67">
  <defs>
    <style>
      .cls-1 {
        fill: #fff;
      }
    </style>
  </defs>
  <g id="Calque_4" data-name="Calque 4">
    <g>
      <path class="cls-1" d="M252.07,174.22c-3-4.13-7.03-6.56-12.12-7.8,.72-.84,1.24-1.47,1.78-2.07,8.26-9.32,13.11-20.26,13.71-32.62,1.09-22.59-8.24-39.99-27.61-51.82-1.55-.95-2.1-1.87-2.1-3.67,.07-23.37,.05-46.75,.04-70.12C225.77,1.19,224.55,0,219.56,0,158.41,0,97.26,0,36.11,0c-5.09,0-6.23,1.16-6.23,6.32,0,46.92,0,93.83,0,140.75,0,5.15,1.1,6.23,6.29,6.23,37.19,0,74.38,.03,111.57-.07,2.59,0,3.83,.86,5.15,3.01,10.32,16.76,25.47,25.61,45.06,26.89,5.58,.37,11.07-.51,16.8-1.92-.8,1.05-1.4,1.85-2.01,2.62-6.03,7.62-12.08,15.23-18.1,22.87-4.54,5.76-11.24,7.92-18.67,5.89,1.36-2.41,2.51-4.9,2.76-7.66,1.11-12.53-7.3-21.72-19.87-21.74-16.47-.02-32.95-.01-49.42,0-1.26,0-2.46-.14-3.64-.6-7.94-3.09-15.93-6.04-23.81-9.27-10.3-4.21-20.87-6.99-32.05-7.25-8.17-.19-16.24,.54-24.18,2.52-.81-6.36-1.34-6.81-7.89-6.81-3.99,0-7.99-.01-11.98,0-4.36,.02-5.86,1.51-5.86,5.82,0,15.06,0,30.11,0,45.17,0,12.56-.01,25.12,0,37.68,0,3.47,1.59,5.08,5,5.1,5.24,.03,10.48,.04,15.72,0,3.15-.03,4.71-1.62,4.77-4.77,.04-2.32,0-4.64,0-7.15,16.48,3.09,32.77,6.09,49.03,9.23,8.57,1.65,17.11,2.85,25.91,2.78,31.45-.23,62.9-.13,94.34-.05,5.15,.01,9.07-1.9,12.32-5.79,14.71-17.61,29.48-35.16,44.24-52.73,5.34-6.36,5.59-16.17,.71-22.89ZM14.5,247.11c-1.94-.29-4.55,.86-5.69-.48-.95-1.12-.31-3.64-.31-5.54-.01-10.8,0-21.6,0-32.4,0-12.05,.03-24.09-.04-36.14,0-1.69,.35-2.25,2.15-2.24,6.37,.04,6.38-.03,6.38,6.21,0,22.68-.03,45.36,.05,68.04,0,2.04-.42,2.86-2.54,2.54ZM110.82,29.72c0-6.41,.06-12.81-.04-19.21-.02-1.62,.41-2.06,2.04-2.05,9.98,.08,19.97,.08,29.95,0,1.6-.01,2.08,.37,2.07,2.03-.07,12.89-.07,25.79,0,38.68,0,1.53-.37,1.94-1.92,1.93-10.07-.07-20.13-.07-30.2,0-1.51,.01-1.97-.34-1.94-1.91,.1-6.49,.04-12.98,.04-19.46Zm39.11,74.97c-5.73,12.14-6.64,24.89-3,37.85,.58,2.06,.11,2.27-1.77,2.27-34.86-.05-69.71-.06-104.57,.02-2.04,0-2.21-.7-2.21-2.39,.05-21.96,.03-43.92,.03-65.88s.03-43.58-.04-65.38c0-2.04,.28-2.78,2.61-2.76,19.63,.12,39.27,.1,58.9,.02,1.92,0,2.48,.43,2.47,2.43-.09,14.31-.05,28.61-.05,42.92,0,4.48,1.31,5.84,5.73,5.85,13.23,.02,26.45,.02,39.68,0,4.27,0,5.61-1.41,5.62-5.71,0-14.39,.04-28.78-.04-43.17-.01-1.89,.48-2.32,2.33-2.31,19.8,.07,39.6,.08,59.4,0,1.98,0,2.25,.61,2.24,2.37-.06,20.63-.06,41.26,0,61.88,0,1.79-.07,2.4-2.24,1.83-26.85-7.1-53.22,5.04-65.08,30.17Zm50.22,69.98c-25.65-.09-46.68-21.13-46.8-46.8-.12-25.64,21.15-46.95,46.87-46.96,25.75-.01,46.94,21.18,46.9,46.91-.03,25.76-21.27,46.94-46.97,46.85Zm44.57,17.08c-14.78,17.65-29.63,35.26-44.42,52.91-1.53,1.82-3.37,2.45-5.69,2.45-17.22-.04-34.45-.02-51.67-.02-13.15,0-26.3-.29-39.44,.09-10.4,.3-20.48-1.3-30.6-3.27-14.73-2.87-29.48-5.59-44.25-8.26-2.29-.41-3.23-1.02-3.21-3.65,.15-17.39,.1-34.77,.04-52.16,0-1.7,.38-2.37,2.16-2.81,17.53-4.35,34.49-2.81,51.11,4.22,8.14,3.45,16.51,6.37,24.75,9.6,1.51,.59,3,.85,4.6,.85,17.06-.02,34.11-.05,51.17,0,7.89,.02,13.06,7.18,10.46,14.3-1.61,4.41-5.54,6.96-10.98,6.99-8.15,.05-16.31,.06-24.46-.02-1.67-.02-2.28,.33-2.28,2.16,.03,6.43-.04,6.44,6.46,6.44,14.48,0,28.96-.06,43.43,.02,8.06,.05,14.38-3.05,19.33-9.43,8.82-11.35,17.81-22.57,26.74-33.84,3.42-4.31,10.53-4.98,15.03-1.44,4.67,3.68,5.52,10.33,1.72,14.86Z"/>
      <path class="cls-1" d="M132.11,107.53c-.03-3.8-1.56-5.24-5.35-5.24-24.87-.01-49.74-.01-74.61,0-3.79,0-5.23,1.47-5.24,5.28-.02,7.73-.01,15.47,0,23.2,0,4.12,1.4,5.51,5.53,5.51,12.31,0,24.62,0,36.93,0,12.39,0,24.79,0,37.18,0,3.95,0,5.53-1.45,5.56-5.31,.06-7.82,.06-15.64,0-23.45Zm-10.54,20.29c-10.72-.06-21.45-.03-32.17-.03-10.56,0-21.11-.04-31.67,.04-1.75,.01-2.45-.24-2.36-2.23,.18-4.31,.1-8.64,.03-12.96-.02-1.3,.17-1.87,1.7-1.87,21.53,.05,43.06,.06,64.59,0,1.64,0,1.88,.56,1.85,1.99-.08,4.4-.12,8.81,.01,13.21,.05,1.64-.54,1.87-1.98,1.86Z"/>
      <path class="cls-1" d="M87.16,38.48c-5.02-4.96-9.99-9.98-14.99-14.96-3.03-3.01-4.99-3.01-8.04,.02-4.65,4.63-9.29,9.27-13.92,13.92-1.79,1.8-4.17,3.46-3.06,6.5,1.15,3.16,4.01,3.1,6.7,2.91,1.47-.1,1.6,.59,1.56,1.75-.06,1.99-.04,3.99-.01,5.98,.04,3.32,1.48,4.89,4.8,5.02,2.65,.1,5.32,.02,7.97,.02h0c2.74-.01,5.49,.1,8.22-.04,3.04-.15,4.44-1.73,4.5-4.79,.04-1.66,.17-3.34-.03-4.98-.29-2.34,.38-3.31,2.88-2.97,2.29,.31,4.39-.38,5.35-2.7,.98-2.36-.32-4.08-1.95-5.69Zm-13.12,.88c-1.31,.92-1.72,2.37-1.65,3.95,.02,.5,0,.99,0,1.49,0,6.83-.51,7.23-7.45,6.28-.93-.13-1.07-.48-1.05-1.24,.03-1.24,0-2.48,0-3.87-.15-2.42,.72-5.25-2.12-7.05-.89-.56,.07-.98,.38-1.3,1.61-1.67,3.3-3.26,4.89-4.95,.78-.83,1.32-.98,2.17-.06,1.57,1.7,3.23,3.33,4.91,4.93,.76,.72,.88,1.14-.1,1.83Z"/>
      <path class="cls-1" d="M234.03,113.55c-.66-1.92-2.26-2.64-4.26-2.85-5.28-.55-10.55-1.31-15.83-1.85-1.42-.15-2.2-.65-2.79-1.95-2.14-4.75-4.43-9.43-6.62-14.16-.86-1.87-2.12-3.24-4.27-3.3-2.2-.07-3.41,1.34-4.3,3.19-2.29,4.77-4.68,9.5-6.95,14.28-.6,1.27-1.37,1.8-2.8,1.95-5.2,.53-10.38,1.27-15.58,1.86-1.98,.22-3.58,.97-4.23,2.91-.68,2.03,.15,3.69,1.66,5.12,2.89,2.75,5.54,5.81,8.66,8.26,3.48,2.72,4.71,5.6,2.57,9.65-.49,.93-.64,2.05-.93,3.08-1.24,4.37-2.48,8.75-3.55,12.55-.22,2.34,.44,3.68,1.91,4.61,1.79,1.13,3.5,.72,5.13-.34,5.57-3.61,11.16-7.18,16.66-10.88,1.32-.89,2.19-.82,3.48,.04,5.37,3.61,10.84,7.06,16.25,10.61,1.86,1.22,3.76,1.92,5.73,.41,2.02-1.55,2-3.59,1.23-5.83-2.01-5.86-3.89-11.77-5.92-17.62-.53-1.52-.41-2.44,.91-3.57,4.1-3.52,8-7.26,12.04-10.86,1.64-1.47,2.51-3.19,1.78-5.3Zm-21.39,11.5c-3.11,2.43-3.7,5.12-2.16,8.7,1.2,2.78,1.93,5.75,3.07,9.27-3.46-2.24-6.49-4-9.29-6.08-2.83-2.1-5.3-2.01-8.11,.05-2.97,2.18-6.17,4.04-9.86,6.42,1.14-4.09,1.96-7.53,3.07-10.87,.89-2.69,.43-4.73-1.67-6.69-2.54-2.36-4.83-4.99-7.42-7.7,3.49-.45,6.95-.99,10.44-1.3,2.16-.19,3.53-1.22,4.44-3.08,1.6-3.25,3.2-6.51,4.99-10.16,1.59,3.32,3.14,6.29,4.46,9.37,1.06,2.47,2.63,3.77,5.42,3.93,3.2,.18,6.38,.76,10.19,1.24-2.76,2.53-5.02,4.89-7.57,6.88Z"/>
    </g>
  </g>
</svg>