<?xml version="1.0" encoding="utf-8"?>
<!-- Generator: Adobe Illustrator 27.0.1, SVG Export Plug-In . SVG Version: 6.00 Build 0)  -->
<svg version="1.1" id="Calque_2_00000018203374704629022810000011758596888000344450_"
	 xmlns="http://www.w3.org/2000/svg" xmlns:xlink="http://www.w3.org/1999/xlink" x="0px" y="0px" viewBox="0 0 380.8 443.1"
	 style="enable-background:new 0 0 380.8 443.1;" xml:space="preserve">
<style type="text/css">
	.st0{fill:none;stroke:#000000;stroke-miterlimit:10;}
	.st1{fill:#FFFFFF;}
	.st2{fill:#448ECC;}
	.st3{font-family:'ArialMT';}
	.st4{font-size:12px;}
	.st5{font-family:'Poppins-Regular';}
	.st6{font-size:11px;}
	.st7{font-size:11.21px;}
	.st8{font-size:10px;}
</style>
<g id="Calque_3">
	<path class="st0" d="M52.8,284.4c17,39.7,47.9,61.6,53.5,65.5c5,3.5,40.6,27.3,86,26.7c59.5-0.8,116.2-43.3,145-107.4"/>
	<path class="st0" d="M158.2,77.3C99.6,90.9,54,138.4,43.2,198"/>
	<path class="st0" d="M339.3,187.6C325.6,133.7,283,91.3,228.9,77.9"/>
</g>
<g id="Calque_1-2">
	<g>
		<path class="st1" d="M215.2,236.7c0.1,0,0.1-0.1,0-0.1c0-0.1,0-0.1,0-0.2c0.8-0.1,1.6-0.2,2.4-0.3c0.2,0.5,0.5,0.8,1,0.7
			c1.2-0.2,2.5-0.6,3.5-1.4c0.6-0.4,0.9-0.9,0.9-1.7c0-9.3,0-18.6,0-27.9c0-0.6-0.2-1-0.6-1.4c-0.4-0.4-1-0.7-1.6-1
			c-1.5-0.6-3-0.9-4.6-1.1c-1.6-0.2-3.3-0.4-5-0.4c-0.4,0-0.6-0.1-0.5-0.6c0-0.5,0-1.1,0-1.6c0.2-1.4-0.6-2.3-1.7-3
			c-1.2-0.7-2.5-1.1-3.9-1.4c-5-1.2-10.1-1.5-15.2-1.4c-2.1,0-4.3,0.1-6.4,0.3c-0.6,0.1-1.2,0.1-1.4,0.9c-0.1,0.1-0.2,0.2-0.4,0.3
			c-0.7,0.1-1.4,0.2-2.1,0.4c-0.3-0.7-0.6-0.9-1.4-0.7c-0.7,0.1-1.4,0.3-2.1,0.5c-1.4,0.4-2.8,0.8-4,1.8c-0.6,0.5-1,1.2-1,2.1
			c0,0.7,0,1.3,0,2c0,0.5-0.1,0.6-0.6,0.6c-2.1,0-4.3,0.2-6.4,0.6c-1.4,0.3-2.9,0.6-4.2,1.4c-0.8,0.5-1.1,1.1-1.1,2.1
			c0,9.1,0,18.3,0,27.4c0,0.9,0.4,1.6,1.1,2c0.8,0.5,1.6,0.8,2.5,1c2.7,0.7,5.4,1,8.1,1c0.4,0,0.6,0.1,0.6,0.6
			c-0.2,1.3,0.5,2.2,1.6,2.8c1.2,0.7,2.6,1.1,3.9,1.5c4,1,8.1,1.3,12.3,1.4c4.9,0.1,9.8-0.1,14.6-1c1.9-0.4,3.7-0.8,5.4-1.8
			c1.1-0.6,2-1.5,1.8-2.9c-0.1-0.4,0.2-0.5,0.5-0.5c0.9,0,1.9-0.1,2.8-0.1C214.7,237.4,215.1,237.2,215.2,236.7L215.2,236.7z"/>
		<path d="M182.2,195c0.1-0.8,0.8-0.8,1.4-0.9c2.1-0.2,4.3-0.3,6.4-0.3c5.1,0,10.2,0.2,15.2,1.4c1.3,0.3,2.6,0.7,3.9,1.4
			c1.1,0.7,1.9,1.6,1.7,3c-0.1,0.5,0,1.1,0,1.6c0,0.4,0.1,0.6,0.5,0.6c1.7,0,3.3,0.2,5,0.4c1.6,0.2,3.1,0.5,4.6,1.1
			c0.6,0.2,1.1,0.5,1.6,1c0.4,0.4,0.6,0.8,0.6,1.4c0,9.3,0,18.6,0,27.9c0,0.8-0.4,1.3-0.9,1.7c-1.1,0.8-2.3,1.1-3.5,1.4
			c-0.5,0.1-0.9-0.2-1-0.7c-0.1-0.7,0.3-1,0.9-1.2c0.8-0.2,1.5-0.4,2.2-0.8c0.2-0.1,0.4-0.2,0.4-0.5c0-1.5,0-3,0-4.6
			c-0.2,0.1-0.3,0.1-0.4,0.1c-1.5,0.6-3,0.9-4.5,1.1c-1.7,0.2-3.3,0.3-5,0.4c-0.4,0-0.5,0.1-0.5,0.5c0,1.4,0,2.8,0,4.1
			c0,0.4,0.2,0.5,0.5,0.5c0.9-0.1,1.8-0.1,2.7-0.1c0.6-0.1,1.1,0.2,1.2,0.8c0,0.1,0,0.1,0,0.2c0,0.1,0,0.1,0,0.1
			c-0.2,0.5-0.6,0.7-1.1,0.8c-0.9,0-1.9,0.1-2.8,0.1c-0.4,0-0.6,0.1-0.5,0.5c0.2,1.4-0.6,2.3-1.8,2.9c-1.7,0.9-3.5,1.4-5.4,1.8
			c-4.8,1-9.7,1.1-14.6,1c-4.1-0.1-8.2-0.4-12.3-1.4c-1.4-0.3-2.7-0.8-3.9-1.5c-1.1-0.6-1.8-1.5-1.6-2.8c0.1-0.5-0.1-0.6-0.6-0.6
			c-2.7-0.1-5.4-0.3-8.1-1c-0.9-0.2-1.8-0.5-2.5-1c-0.7-0.5-1.1-1.1-1.1-2c0-9.1,0-18.3,0-27.4c0-0.9,0.4-1.6,1.1-2.1
			c1.3-0.8,2.7-1.1,4.2-1.4c2.1-0.4,4.2-0.6,6.4-0.6c0.5,0,0.6-0.1,0.6-0.6c0-0.7,0-1.3,0-2c0-0.9,0.3-1.5,1-2.1
			c1.2-1,2.6-1.4,4-1.8c0.7-0.2,1.4-0.3,2.1-0.5c0.7-0.2,1,0,1.4,0.7c0,0.7-0.3,1.1-1,1.1c-0.2,0-0.4,0.1-0.6,0.1
			c-1.5,0.4-3.1,0.7-4.4,1.6c-0.7,0.4-0.7,0.6,0,1.1c0.2,0.1,0.4,0.2,0.6,0.3c1.2,0.6,2.5,0.9,3.9,1.2c3.9,0.9,7.9,1.1,11.9,1.2
			c4.7,0,9.4-0.1,14-1.2c1.6-0.3,3.1-0.7,4.4-1.6c0.7-0.4,0.7-0.6,0-1.1c-0.9-0.6-1.9-0.9-3-1.2c-3.3-0.9-6.6-1.2-10-1.4
			c-4-0.2-7.9-0.2-11.9,0.2C182.7,196.2,182.3,195.9,182.2,195L182.2,195z M173.1,211.5c0,2.3,0,4.6,0,6.9c0,0.5,0.2,0.8,0.6,1.1
			c0.9,0.6,1.9,0.9,2.9,1.2c4,1.1,8.1,1.4,12.3,1.5c5.1,0.1,10.1-0.1,15.1-1.1c1.5-0.3,3-0.7,4.4-1.5c0.4-0.3,0.7-0.6,0.7-1.2
			c0-2.1,0-4.2,0-6.3c0-0.2,0.1-0.4-0.1-0.5c-2.1,1.1-4.4,1.5-6.8,1.9c-0.7,0.1-1.2-0.2-1.2-0.8c-0.1-0.5,0.3-0.9,1-1.1
			c0.9-0.2,1.8-0.3,2.7-0.5c1.3-0.3,2.6-0.7,3.7-1.4c0.4-0.3,0.7-0.6,0.7-1.1c-0.1-1.4,0-2.9,0-4.3c0-0.9,0-1.7,0-2.6
			c-2.4,1.1-4.8,1.7-7.3,2c-4.1,0.6-8.3,0.8-12.4,0.7c-3.4-0.1-6.8-0.3-10.2-0.9c-2-0.4-4-0.8-5.9-1.8c0,2.1,0,4.1,0,6.1
			c0,1.7,0.1,1.8,1.7,2.5c0.1,0,0.1,0.1,0.2,0.1c2.8,1.1,5.8,1.5,8.7,1.8c4.4,0.4,8.7,0.4,13.1,0.1c1-0.1,1.5,0.2,1.5,0.9
			c0,0.6-0.5,1-1.4,1c-3.8,0.2-7.5,0.3-11.3,0C181.4,213.7,177.1,213.2,173.1,211.5L173.1,211.5z M173.1,231.3c0,2.3,0,4.6,0,6.9
			c0,0.5,0.2,0.8,0.6,1.1c0.9,0.6,1.9,0.9,2.9,1.2c3.7,1,7.6,1.4,11.4,1.5c2.7,0.1,5.4,0.1,8.1-0.1c2.8-0.2,5.6-0.5,8.4-1.2
			c1.3-0.3,2.5-0.7,3.7-1.4c0.5-0.3,0.7-0.6,0.7-1.2c-0.1-1.1,0-2.3,0-3.4c0-1.1,0-2.2,0-3.4c-0.7,0.3-1.3,0.5-2,0.8
			c-3.3,1.1-6.7,1.5-10.1,1.7c-4.3,0.3-8.6,0.3-12.8-0.1C180.3,233.3,176.6,232.8,173.1,231.3z M173.1,221.3c0,2.2,0.1,4.4,0,6.5
			c0,1,0.4,1.4,1.1,1.8c1.6,0.8,3.4,1.2,5.1,1.5c4.2,0.8,8.5,0.9,12.8,0.9c4.2-0.1,8.3-0.3,12.4-1.3c1.3-0.3,2.6-0.7,3.8-1.4
			c0.4-0.2,0.6-0.6,0.6-1.1c0-1.5,0-3,0-4.4c0-0.8,0-1.6,0-2.5c-2.4,1.1-4.9,1.6-7.3,2c-4.1,0.6-8.2,0.8-12.4,0.7
			c-3.7-0.1-7.3-0.3-10.9-1C176.6,222.6,174.8,222.2,173.1,221.3L173.1,221.3z M160.8,228.9v3.6c0,1.4,0,1.4,1.3,1.9
			c2.8,1,5.8,1.2,8.8,1.3c0.4,0,0.3-0.2,0.3-0.4c0-1.4,0-2.8,0-4.2c0-0.3-0.1-0.5-0.4-0.5c-1,0-1.9-0.1-2.9-0.2c-0.6,0-1-0.4-1-0.9
			c0-0.6,0.4-0.9,1.1-0.9c0.9,0,1.8,0.1,2.7,0.1c0.4,0,0.6-0.1,0.6-0.5c0-1.2,0-2.5,0-3.7c0-0.9,0-0.9-0.9-0.9
			c-1.8-0.1-3.6-0.2-5.4-0.5c-1.4-0.2-2.8-0.6-4.1-1.1c0,0.1-0.1,0.1-0.1,0.1c0,1.4,0,2.8,0,4.1c0,0.4,0.1,0.6,0.5,0.8
			c0.7,0.4,1.5,0.6,2.2,0.8c0.7,0.2,0.9,0.6,0.8,1.2c-0.1,0.5-0.6,0.8-1.2,0.6C162.3,229.5,161.6,229.2,160.8,228.9L160.8,228.9z
			 M160.8,207.9c0,1.1,0,2.1,0,3.1c0,2,0.1,2.1,2,2.7c0,0,0,0,0.1,0c2.6,0.7,5.2,0.9,7.9,1c0.3,0,0.4-0.1,0.4-0.4c0-1.3,0-2.6,0-3.8
			c0-0.6-0.3-0.9-0.9-0.9c-1.8-0.1-3.6-0.2-5.4-0.5C163.5,208.8,162.1,208.4,160.8,207.9L160.8,207.9z M221.2,207.9
			c-0.2,0.1-0.3,0.1-0.4,0.1c-1.4,0.5-2.9,0.9-4.5,1.1c-1.6,0.2-3.1,0.4-4.7,0.4c-0.6,0-0.9,0.2-0.8,0.8c0.1,1.3,0,2.5,0,3.8
			c0,0.4,0.1,0.5,0.5,0.5c1.9,0,3.9-0.2,5.8-0.6c1.3-0.2,2.5-0.5,3.7-1.1c0.2-0.1,0.5-0.2,0.4-0.6
			C221.2,210.9,221.2,209.4,221.2,207.9z M160.8,214.9v3.1c0,1.9,0.1,2,1.9,2.6c0,0,0.1,0,0.1,0c2.6,0.7,5.3,0.9,8,1
			c0.4,0,0.4-0.1,0.4-0.4c0-1.3,0-2.6,0-3.9c0-0.6-0.1-0.8-0.8-0.8C167.2,216.4,163.9,216.1,160.8,214.9L160.8,214.9z M221.2,214.9
			c-1.3,0.5-2.6,0.9-4,1.1c-2,0.3-4,0.5-6,0.6c-0.4,0-0.5,0.1-0.5,0.5c0,1.4,0,2.8,0,4.1c0,0.4,0.1,0.5,0.5,0.5
			c1.9,0,3.8-0.2,5.7-0.5c1.3-0.2,2.6-0.5,3.7-1.1c0.2-0.1,0.4-0.2,0.4-0.5C221.2,218,221.2,216.5,221.2,214.9L221.2,214.9z
			 M221.2,221.9c-1.4,0.5-2.7,0.9-4,1.1c-1.9,0.3-3.9,0.5-5.9,0.5c-0.4,0-0.6,0.1-0.6,0.6c0,1.3,0,2.7,0,4c0,0.4,0.1,0.6,0.5,0.5
			c1.9,0,3.8-0.2,5.7-0.6c1.3-0.2,2.5-0.5,3.7-1.1c0.3-0.1,0.5-0.3,0.5-0.6C221.2,224.9,221.2,223.5,221.2,221.9L221.2,221.9z
			 M160.9,205.7c0.5,0.4,1,0.6,1.5,0.8c2.7,0.9,5.6,1.1,8.4,1.1c0.3,0,0.4-0.1,0.4-0.4c0-1,0-2,0-3c0-0.4-0.1-0.4-0.4-0.4
			c-2.7,0.1-5.3,0.3-7.9,1C162.2,205,161.5,205.2,160.9,205.7z M221.1,205.7c-0.5-0.4-1.1-0.6-1.6-0.8c-2.7-0.8-5.5-1.1-8.3-1.1
			c-0.4,0-0.4,0.1-0.4,0.4c0,0.9,0,1.9,0,2.8c0,0.4,0.1,0.6,0.5,0.6c1.9,0,3.8-0.2,5.7-0.5C218.5,206.8,219.9,206.6,221.1,205.7
			L221.1,205.7z"/>
		<path class="st1" d="M182.2,195c0.1,0.9,0.4,1.1,1.3,1.1c4-0.4,7.9-0.4,11.9-0.2c3.4,0.2,6.7,0.5,10,1.4c1.1,0.3,2.1,0.6,3,1.2
			c0.6,0.4,0.6,0.6,0,1.1c-1.4,0.9-2.9,1.2-4.4,1.6c-4.6,1-9.3,1.2-14,1.2c-4,0-8-0.3-11.9-1.2c-1.3-0.3-2.6-0.6-3.9-1.2
			c-0.2-0.1-0.4-0.2-0.6-0.3c-0.7-0.4-0.7-0.7,0-1.1c1.4-0.9,2.9-1.2,4.4-1.6c0.2,0,0.4-0.1,0.6-0.1c0.7-0.1,1-0.5,1-1.1
			c0.7-0.1,1.4-0.2,2.1-0.4C182,195.3,182.1,195.2,182.2,195L182.2,195z"/>
		<path class="st1" d="M215.3,236.3c-0.2-0.6-0.6-0.8-1.2-0.8c-0.9,0.1-1.8,0.1-2.7,0.1c-0.4,0-0.6,0-0.5-0.5c0-1.4,0-2.8,0-4.1
			c0-0.4,0.1-0.5,0.5-0.5c1.7-0.1,3.3-0.2,5-0.4c1.6-0.2,3.1-0.5,4.5-1.1c0.1,0,0.2-0.1,0.4-0.1c0,1.6,0,3.1,0,4.6
			c0,0.3-0.2,0.4-0.4,0.5c-0.7,0.4-1.4,0.6-2.2,0.8c-0.6,0.1-1,0.5-0.9,1.2C216.9,236.1,216.1,236.2,215.3,236.3L215.3,236.3z"/>
		<path class="st1" d="M215.2,236.7c0,0,0-0.1,0-0.1C215.4,236.6,215.3,236.6,215.2,236.7z"/>
		<path class="st1" d="M173.1,211.5c4.1,1.7,8.3,2.2,12.6,2.5c3.8,0.3,7.5,0.2,11.3,0c1-0.1,1.5-0.4,1.4-1c0-0.6-0.5-0.9-1.5-0.9
			c-4.4,0.3-8.7,0.3-13.1-0.1c-3-0.3-5.9-0.7-8.7-1.8c-0.1,0-0.1-0.1-0.2-0.1c-1.6-0.6-1.7-0.8-1.7-2.5c0-2,0-4,0-6.1
			c1.9,0.9,3.9,1.4,5.9,1.8c3.4,0.6,6.8,0.9,10.2,0.9c4.2,0.1,8.3-0.1,12.4-0.7c2.5-0.4,5-0.9,7.3-2c0,0.9,0,1.8,0,2.6
			c0,1.4,0,2.9,0,4.3c0,0.6-0.2,0.9-0.7,1.1c-1.2,0.7-2.4,1.1-3.7,1.4c-0.9,0.2-1.8,0.4-2.7,0.5c-0.7,0.1-1.1,0.6-1,1.1
			c0.1,0.6,0.5,0.9,1.2,0.8c2.3-0.4,4.6-0.8,6.8-1.9c0.2,0.2,0.1,0.4,0.1,0.5c0,2.1,0,4.2,0,6.3c0,0.6-0.2,0.9-0.7,1.2
			c-1.4,0.8-2.8,1.2-4.4,1.5c-5,1.1-10,1.2-15.1,1.1c-4.1-0.1-8.2-0.4-12.3-1.5c-1-0.3-2-0.6-2.9-1.2c-0.4-0.2-0.6-0.6-0.6-1.1
			C173.1,216.1,173.1,213.8,173.1,211.5L173.1,211.5z"/>
		<path class="st1" d="M173.1,231.3c3.6,1.6,7.2,2.1,11,2.4c4.3,0.4,8.6,0.4,12.8,0.1c3.4-0.2,6.8-0.6,10.1-1.7
			c0.6-0.2,1.3-0.5,2-0.8c0,1.1,0,2.3,0,3.4c0,1.1,0,2.3,0,3.4c0,0.6-0.2,0.9-0.7,1.2c-1.1,0.7-2.4,1-3.7,1.4
			c-2.8,0.7-5.6,1-8.4,1.2c-2.7,0.2-5.4,0.2-8.1,0.1c-3.9-0.1-7.7-0.4-11.4-1.5c-1-0.3-2-0.6-2.9-1.2c-0.4-0.2-0.6-0.6-0.6-1.1
			C173.1,235.9,173.1,233.6,173.1,231.3z"/>
		<path class="st1" d="M173.1,221.3c1.7,0.9,3.5,1.3,5.3,1.6c3.6,0.7,7.2,1,10.9,1c4.1,0.1,8.3-0.1,12.4-0.7c2.5-0.4,5-0.9,7.3-2
			c0,0.9,0,1.7,0,2.5c0,1.5,0,3,0,4.4c0,0.6-0.2,0.9-0.6,1.1c-1.2,0.7-2.5,1.1-3.8,1.4c-4.1,1-8.2,1.2-12.4,1.3
			c-4.3,0.1-8.6-0.1-12.8-0.9c-1.8-0.3-3.5-0.7-5.1-1.5c-0.8-0.4-1.2-0.8-1.1-1.8C173.1,225.7,173.1,223.5,173.1,221.3L173.1,221.3z
			"/>
		<path class="st1" d="M160.8,228.9c0.8,0.3,1.5,0.6,2.3,0.7c0.6,0.1,1.1-0.1,1.2-0.6c0.1-0.6-0.1-1-0.8-1.2
			c-0.8-0.2-1.5-0.4-2.2-0.8c-0.4-0.2-0.5-0.4-0.5-0.8c0-1.4,0-2.8,0-4.1c0,0,0-0.1,0.1-0.1c1.3,0.5,2.7,0.8,4.1,1.1
			c1.8,0.3,3.6,0.4,5.4,0.5c0.9,0,0.9,0.1,0.9,0.9c0,1.2,0,2.5,0,3.7c0,0.4-0.1,0.6-0.6,0.5c-0.9-0.1-1.8-0.1-2.7-0.1
			c-0.7,0-1.1,0.4-1.1,0.9c0,0.5,0.4,0.9,1,0.9c1,0.1,1.9,0.1,2.9,0.2c0.4,0,0.4,0.1,0.4,0.5c0,1.4,0,2.8,0,4.2
			c0,0.2,0.1,0.4-0.3,0.4c-3-0.1-5.9-0.3-8.8-1.3c-1.3-0.5-1.3-0.5-1.3-1.9L160.8,228.9L160.8,228.9z"/>
		<path class="st1" d="M160.8,207.9c1.4,0.5,2.7,0.9,4.1,1.1c1.8,0.3,3.6,0.4,5.4,0.5c0.6,0,0.9,0.3,0.9,0.9c0,1.3,0,2.6,0,3.8
			c0,0.3-0.1,0.4-0.4,0.4c-2.7-0.1-5.3-0.3-7.9-1c0,0,0,0-0.1,0c-1.9-0.6-2-0.6-2-2.7C160.8,209.9,160.8,208.9,160.8,207.9
			L160.8,207.9z"/>
		<path class="st1" d="M221.2,207.9c0,1.5,0,3,0,4.5c0,0.4-0.2,0.5-0.4,0.6c-1.1,0.6-2.4,0.9-3.7,1.1c-1.9,0.3-3.8,0.5-5.8,0.6
			c-0.4,0-0.5-0.1-0.5-0.5c0-1.3,0.1-2.6,0-3.8c0-0.7,0.2-0.8,0.8-0.8c1.6,0,3.1-0.2,4.7-0.4c1.5-0.2,3-0.5,4.5-1.1
			C220.9,208,221.1,207.9,221.2,207.9z"/>
		<path class="st1" d="M160.8,214.9c3.2,1.2,6.4,1.5,9.7,1.6c0.6,0,0.8,0.2,0.8,0.8c-0.1,1.3,0,2.6,0,3.9c0,0.3,0,0.4-0.4,0.4
			c-2.7-0.1-5.4-0.3-8-1c0,0-0.1,0-0.1,0c-1.9-0.6-1.9-0.6-1.9-2.6L160.8,214.9L160.8,214.9z"/>
		<path class="st1" d="M221.2,214.9c0,1.6,0,3.1,0,4.6c0,0.3-0.2,0.4-0.4,0.5c-1.2,0.6-2.4,0.9-3.7,1.1c-1.9,0.3-3.8,0.5-5.7,0.5
			c-0.4,0-0.6,0-0.5-0.5c0-1.4,0-2.8,0-4.1c0-0.4,0.1-0.5,0.5-0.5c2-0.1,4-0.2,6-0.6C218.6,215.7,219.9,215.4,221.2,214.9
			L221.2,214.9z"/>
		<path class="st1" d="M221.2,221.9c0,1.6,0,3,0,4.5c0,0.4-0.2,0.5-0.5,0.6c-1.2,0.6-2.4,0.9-3.7,1.1c-1.9,0.3-3.8,0.5-5.7,0.6
			c-0.4,0-0.6-0.1-0.5-0.5c0-1.3,0-2.7,0-4c0-0.4,0.1-0.6,0.6-0.6c2-0.1,3.9-0.2,5.9-0.5C218.6,222.8,219.9,222.4,221.2,221.9
			L221.2,221.9z"/>
		<path class="st1" d="M160.9,205.7c0.6-0.5,1.3-0.7,1.9-0.9c2.6-0.7,5.2-1,7.9-1c0.3,0,0.4,0,0.4,0.4c0,1,0,2,0,3
			c0,0.3-0.1,0.4-0.4,0.4c-2.8-0.1-5.7-0.3-8.4-1.1C161.9,206.3,161.4,206.1,160.9,205.7z"/>
		<path class="st1" d="M221.1,205.7c-1.3,0.8-2.7,1.1-4.1,1.4c-1.9,0.3-3.8,0.5-5.7,0.5c-0.5,0-0.6-0.1-0.5-0.6c0-0.9,0-1.9,0-2.8
			c0-0.3,0.1-0.4,0.4-0.4c2.8,0.1,5.6,0.3,8.3,1.1C220.1,205.1,220.6,205.3,221.1,205.7L221.1,205.7z"/>
	</g>
	<g>
		<path d="M192.4,93c-6.8,0-13.6,0-20.4,0c-2.7,0-4.1-2.2-2.9-4.6c0,0,0-0.1,0.1-0.1c2.1-3.1,2.5-6.4,2.4-10.1
			c-0.2-7-0.1-13.9-0.1-20.9c0-2.1,1.2-3.3,3.3-3.3c11.8,0,23.6,0,35.3,0c2.2,0,3.4,1.2,3.4,3.3c0,8.5,0,17,0,25.5
			c0,0.5,0.1,1,0.4,1.5c0.7,1.3,1.4,2.7,2.1,4.1c1.1,2.4-0.2,4.6-2.8,4.6C206.2,93,199.3,93,192.4,93L192.4,93z"/>
		<path d="M215.4,51.8c-0.8-0.6-1.6-1-2.3-1.6c-0.3-0.2,0.1-0.5,0.3-0.7c2.3-3.4,4.6-6.9,6.9-10.3c5.1-7.6,10.2-15.2,15.4-22.8
			c0.4-0.6,0.6-0.7,1.2-0.3c1.7,1.2,1.8,1.2,0.5,3c-7.2,10.6-14.4,21.3-21.6,31.9C215.8,51.4,215.6,51.6,215.4,51.8L215.4,51.8z"/>
		<path d="M171.9,50.1c-0.1,0.1-0.2,0.2-0.3,0.3c-1.3,1.1-2.4,1-3.4-0.4c-7.2-10.6-14.3-21.2-21.5-31.8c-0.4-0.6-0.5-0.9,0.2-1.3
			c1.8-1.1,1.8-1.1,2.9,0.5c7.2,10.7,14.4,21.3,21.6,32C171.6,49.6,171.8,49.8,171.9,50.1L171.9,50.1z"/>
		<path d="M158.7,15c-1.7,0-3.3,0-5,0c-1.2,0-1.7-0.6-1.7-1.7c0-3.4,0-6.8,0-10.1c0-1.1,0.6-1.7,1.7-1.7c3.4,0,6.8,0,10.1,0
			c1.1,0,1.7,0.6,1.7,1.7c0,3.4,0,6.8,0,10.2c0,1-0.6,1.6-1.6,1.6C162.1,15,160.4,15,158.7,15L158.7,15z"/>
		<path d="M213.4,19.5c-1.4,0-2.8,0-4.2,0c-1.2,0-1.7-0.6-1.7-1.7c0-2.9,0-5.7,0-8.6c0-1.1,0.6-1.7,1.7-1.7c2.9,0,5.8,0,8.6,0
			c1.1,0,1.7,0.6,1.7,1.7c0,2.9,0,5.8,0,8.7c0,1-0.6,1.6-1.6,1.6C216.4,19.5,214.9,19.5,213.4,19.5L213.4,19.5z"/>
		<path d="M174.5,36c-1.4,0-2.9,0-4.3,0c-1.1,0-1.7-0.6-1.7-1.7c0-2.9,0-5.8,0-8.7c0-1,0.6-1.6,1.6-1.6c2.9,0,5.8,0,8.7,0
			c1.1,0,1.6,0.6,1.6,1.6c0,2.9,0,5.9,0,8.8c0,1-0.6,1.5-1.6,1.6C177.4,36,175.9,36,174.5,36L174.5,36z"/>
		<path d="M198.5,5.3c0,1.2,0,2.4,0,3.6c0,1.1-0.6,1.7-1.7,1.7c-2.4,0-4.8,0-7.2,0c-1,0-1.6-0.6-1.6-1.6c0-2.4,0-4.8,0-7.2
			c0-1,0.6-1.6,1.6-1.6c2.4,0,4.9,0,7.3,0c1,0,1.6,0.6,1.6,1.6C198.5,2.8,198.5,4,198.5,5.3L198.5,5.3z"/>
		<path d="M231.5,10.5c-1,0-1.9,0-2.9,0c-1,0-1.6-0.6-1.6-1.6c0-1.9,0-3.9,0-5.8c0-1,0.6-1.6,1.6-1.6c1.9,0,3.8,0,5.7,0
			c1,0,1.6,0.6,1.6,1.6c0,1.9,0,3.8,0,5.7c0,1.1-0.6,1.6-1.7,1.7C233.3,10.5,232.4,10.5,231.5,10.5L231.5,10.5z"/>
		<path d="M177.4,18c-0.9,0-1.9,0-2.8,0c-1.1,0-1.6-0.6-1.6-1.6c0-1.9,0-3.9,0-5.8c0-1,0.6-1.6,1.6-1.6c1.9,0,3.9,0,5.8,0
			c1,0,1.6,0.6,1.6,1.6c0,2,0,3.9,0,5.9c0,0.9-0.6,1.5-1.5,1.5C179.4,18,178.4,18,177.4,18L177.4,18z"/>
		<path d="M191,27c0-0.9,0-1.9,0-2.8c0-1,0.6-1.6,1.6-1.6c1.9,0,3.9,0,5.8,0c1,0,1.6,0.6,1.6,1.6c0,1.9,0,3.9,0,5.8
			c0,1-0.6,1.6-1.6,1.6c-2,0-3.9,0-5.9,0c-0.9,0-1.5-0.6-1.5-1.5C191,29,191,28,191,27z"/>
		<path d="M214.9,34.5c-0.9,0-1.9,0-2.8,0c-1.1,0-1.6-0.6-1.6-1.6c0-1.9,0-3.9,0-5.8c0-1,0.6-1.6,1.6-1.6c1.9,0,3.9,0,5.8,0
			c1,0,1.6,0.6,1.6,1.6c0,2,0,3.9,0,5.9c0,0.9-0.6,1.5-1.5,1.5C216.9,34.5,215.9,34.5,214.9,34.5L214.9,34.5z"/>
		<path d="M204.6,39c0.9,0,1.9,0,2.8,0c1,0,1.6,0.6,1.6,1.6c0,1.9,0,3.8,0,5.7c0,1.1-0.6,1.6-1.7,1.7c-1.9,0-3.8,0-5.6,0
			c-1.1,0-1.7-0.6-1.7-1.7c0-1.9,0-3.8,0-5.6c0-1.1,0.6-1.7,1.8-1.7C202.7,39,203.6,39,204.6,39z"/>
		<path d="M189.5,46.6c0,0.9,0,1.9,0,2.8c0,1-0.6,1.6-1.6,1.6c-1.9,0-3.8,0-5.7,0c-1.1,0-1.6-0.6-1.6-1.7c0-1.9,0-3.8,0-5.6
			c0-1.1,0.6-1.7,1.7-1.7c1.9,0,3.8,0,5.6,0c1.1,0,1.7,0.6,1.7,1.7C189.5,44.7,189.5,45.6,189.5,46.6z"/>
		<path class="st1" d="M192.5,57c5.7,0,11.4,0,17.2,0c0.7,0,0.9,0.2,0.9,0.9c0,7.9,0,15.9,0,23.8c0,0.7-0.2,0.9-0.9,0.9
			c-11.4,0-22.9,0-34.3,0c-0.7,0-0.9-0.2-0.9-0.9c0-7.9,0-15.9,0-23.8c0-0.7,0.2-0.9,0.9-0.9C181.1,57,186.8,57,192.5,57L192.5,57z"
			/>
		<path class="st1" d="M213.3,90h-41.6c0.7-1.4,1.4-2.8,2.1-4.1c0.1-0.3,0.3-0.4,0.6-0.3c0.1,0,0.3,0,0.5,0c11.8,0,23.6,0,35.4,0
			c0.6,0,1,0.2,1.3,0.8C212,87.5,212.6,88.7,213.3,90L213.3,90z"/>
		<path class="st1" d="M155,8.2c0-1.1,0-2.1,0-3.2c0-0.5,0.1-0.6,0.6-0.6c2.1,0,4.2,0,6.4,0c0.5,0,0.6,0.1,0.6,0.6
			c0,2.1,0,4.3,0,6.4c0,0.5-0.1,0.6-0.6,0.6c-2.1,0-4.2,0-6.4,0c-0.5,0-0.6-0.1-0.6-0.6C155,10.4,155,9.3,155,8.2L155,8.2z"/>
		<path class="st1" d="M213.5,16.5c-1,0-2.3,0.4-2.8-0.1c-0.6-0.5-0.2-1.9-0.2-2.9c0-1-0.4-2.3,0.1-2.8c0.6-0.6,1.9-0.2,2.9-0.2
			c1,0,2.3-0.4,2.8,0.1c0.6,0.6,0.2,1.9,0.2,2.9c0,1,0.4,2.3-0.1,2.8C215.8,16.9,214.5,16.4,213.5,16.5L213.5,16.5z"/>
		<path class="st1" d="M177.5,30.1c0,0.8,0,1.5,0,2.2c0,0.5-0.1,0.7-0.6,0.7c-1.6,0-3.2,0-4.8,0c-0.5,0-0.6-0.2-0.6-0.6
			c0-1.6,0-3.2,0-4.8c0-0.5,0.2-0.6,0.6-0.6c1.6,0,3.2,0,4.8,0c0.5,0,0.6,0.2,0.6,0.6C177.4,28.4,177.5,29.3,177.5,30.1L177.5,30.1z
			"/>
		<path class="st1" d="M193.3,3.1c2.2-0.1,2.2-0.1,2.2,2.1c0,0.8,0.3,1.8-0.1,2.2c-0.4,0.4-1.4,0.1-2.2,0.1c-2.2,0-2.2,0-2.2-2.1
			c0-0.8-0.4-1.8,0.1-2.2C191.6,2.8,192.6,3.1,193.3,3.1z"/>
		<path class="st1" d="M231.5,4.5c1,0,1.4,0.5,1.4,1.5s-0.5,1.5-1.6,1.5c-1,0.1-1.5-0.4-1.4-1.5S230.6,4.5,231.5,4.5z"/>
		<path class="st1" d="M176,13.4c0-0.9,0.5-1.4,1.4-1.4c1.1,0,1.6,0.5,1.6,1.6c0,0.9-0.5,1.4-1.4,1.4C176.5,15,176,14.5,176,13.4z"
			/>
		<path class="st1" d="M197,27.1c0,1-0.5,1.4-1.5,1.4S194,28,194,27c0-1,0.5-1.5,1.5-1.5C196.5,25.5,197,26,197,27.1z"/>
		<path class="st1" d="M215,31.5c-1,0-1.5-0.5-1.5-1.5s0.5-1.5,1.5-1.5s1.5,0.5,1.5,1.5S216,31.5,215,31.5z"/>
		<path class="st1" d="M204.5,42c1,0,1.4,0.5,1.4,1.5s-0.5,1.5-1.6,1.5c-1,0.1-1.5-0.4-1.4-1.5S203.6,42,204.5,42z"/>
		<path class="st1" d="M186.5,46.5c0,1-0.5,1.5-1.5,1.5s-1.5-0.5-1.5-1.5c-0.1-1,0.4-1.5,1.5-1.5S186.5,45.6,186.5,46.5z"/>
		<path d="M194,73.2c0.8-1.2,1.5-2.1,2.1-3.1c0.3-0.4,0.4-0.5,0.9-0.2c2,1.3,2,1.3,0.7,3.3c-1.2,1.8-2.5,3.5-3.7,5.3
			c-0.9,1.3-2,1.4-3,0c-1.5-2.2-3.1-4.4-4.6-6.6c-0.3-0.5-0.3-0.7,0.2-1c0.6-0.4,1.3-1.2,1.9-1.1c0.5,0,0.9,1,1.3,1.6
			c0.4,0.5,0.7,1,1.3,1.8v-1.1c0-3.8,0-7.6,0-11.3c0-0.6,0.1-0.8,0.8-0.8c2.2,0,2.2,0,2.2,2.3c0,3.3,0,6.6,0,9.8
			C194,72.4,194,72.7,194,73.2L194,73.2z"/>
	</g>
	<g>
		<path class="st1" d="M320.7,216.5c0,5,0,10,0,14.9c0,0.2,0,0.4,0,0.6c0.1,1.6,1.4,2.8,3,2.8c1.5,0,3.1,0,4.6,0
			c0.4,0,0.6,0.1,0.6,0.5c0,0.5,0.1,1,0.2,1.5c1.8,8.4,10.2,13.2,18.3,10.7c5.4-1.7,9.4-6.8,9.8-12.3c0-0.3,0.1-0.4,0.4-0.4
			c1.6,0,3.2,0,4.8,0c0.2,0,0.4,0,0.6-0.1c1.5-0.3,2.4-1.5,2.4-3.2c0-7,0-14.1,0-21.1c0-0.2,0-0.4,0-0.5c-0.1-1.3-1-2.4-2.4-2.6
			c-0.3-0.1-0.4-0.2-0.4-0.5c0-1.2,0-2.4,0-3.6c0.1-1.3-0.7-2.3-2.2-2.3c-7.4,0-14.8,0-22.2,0c-0.9,0-1.4-0.2-1.8-1.1
			c-0.5-1.1-1.4-1.7-2.7-1.7c-3.4,0-6.7,0-10.1,0c-0.4,0-0.7,0.1-1,0.2c-1.3,0.4-2,1.5-2,3.1C320.7,206.5,320.7,211.5,320.7,216.5
			L320.7,216.5z"/>
		<path d="M320.7,216.5c0-5,0-10,0-15c0-1.6,0.7-2.7,2-3.1c0.3-0.1,0.7-0.2,1-0.2c3.4,0,6.7,0,10.1,0c1.3,0,2.2,0.6,2.7,1.7
			c0.4,0.9,0.8,1.1,1.8,1.1c7.4,0,14.8,0,22.2,0c1.6,0,2.3,1,2.2,2.3c-0.1,1.2,0,2.4,0,3.6c0,0.3,0.1,0.4,0.4,0.5
			c1.3,0.3,2.2,1.3,2.4,2.6c0,0.2,0,0.4,0,0.5c0,7,0,14.1,0,21.1c0,1.7-0.9,2.9-2.4,3.2c-0.2,0-0.4,0-0.6,0.1c-1.6,0-3.2,0-4.8,0
			c-0.3,0-0.4,0-0.4,0.4c-0.4,5.6-4.4,10.7-9.8,12.3c-8.1,2.6-16.5-2.3-18.3-10.7c-0.1-0.5-0.2-1-0.2-1.5c0-0.5-0.2-0.5-0.6-0.5
			c-1.5,0-3.1,0-4.6,0c-1.6,0-2.9-1.1-3-2.8c0-0.2,0-0.4,0-0.6C320.7,226.5,320.7,221.5,320.7,216.5L320.7,216.5z M322.3,216.5
			c0,4.9,0,9.8,0,14.6c0,0.3,0,0.5,0,0.8c0.1,0.8,0.6,1.4,1.4,1.4c1.6,0,3.2,0,4.9,0c0.3,0,0.4-0.1,0.4-0.4c0-0.6,0.1-1.2,0.2-1.7
			c1.7-8.1,9.7-13,17.6-10.9c5.8,1.5,10.1,6.7,10.5,12.6c0,0.3,0.1,0.3,0.4,0.3c1.5,0,3,0,4.5,0c1.3,0,1.8-0.5,1.8-1.8
			c0-6.9,0-13.9,0-20.8c0-1.3-0.5-1.8-1.8-1.8c-7.2,0-14.4,0-21.6,0c-1,0-1.7-0.4-2.1-1.4c-1-2.3-2.1-4.5-3.2-6.8
			c-0.3-0.7-0.8-1-1.6-1c-3.2,0-6.4,0-9.6,0c-1.3,0-1.8,0.5-1.8,1.8C322.2,206.5,322.2,211.5,322.3,216.5L322.3,216.5z M330.5,234
			c0,7,5.7,12.6,12.7,12.6c7,0,12.6-5.7,12.6-12.6c0-7-5.7-12.6-12.7-12.6C336.1,221.4,330.4,227.1,330.5,234z M337.8,202.6
			c0.7,1.5,1.4,3,2.1,4.5c0.1,0.2,0.3,0.3,0.5,0.3c6.8,0,13.6,0,20.4,0c0.3,0,0.4-0.1,0.4-0.4c0-1.2,0-2.4,0-3.6
			c0-0.5-0.2-0.7-0.7-0.7c-7.4,0-14.7,0-22.1,0C338.2,202.6,338.1,202.6,337.8,202.6L337.8,202.6z"/>
		<path class="st1" d="M322.3,216.5c0-5,0-9.9,0-14.9c0-1.4,0.5-1.8,1.8-1.8c3.2,0,6.4,0,9.6,0c0.8,0,1.2,0.3,1.6,1
			c1,2.3,2.1,4.5,3.2,6.8c0.4,0.9,1.1,1.4,2.1,1.4c7.2,0,14.4,0,21.6,0c1.3,0,1.8,0.5,1.8,1.8c0,6.9,0,13.9,0,20.8
			c0,1.3-0.5,1.8-1.8,1.8c-1.5,0-3,0-4.5,0c-0.3,0-0.4-0.1-0.4-0.3c-0.4-6-4.7-11.1-10.5-12.6c-8-2.1-16,2.9-17.6,10.9
			c-0.1,0.6-0.2,1.1-0.2,1.7c0,0.3-0.1,0.4-0.4,0.4c-1.6,0-3.2,0-4.9,0c-0.8,0-1.4-0.6-1.4-1.4c0-0.3,0-0.5,0-0.8
			C322.3,226.3,322.3,221.4,322.3,216.5L322.3,216.5z"/>
		<path class="st1" d="M330.5,234c0-6.9,5.6-12.6,12.6-12.6c7,0,12.7,5.6,12.7,12.6c0,7-5.7,12.6-12.6,12.6
			C336.1,246.6,330.5,241,330.5,234z M341.8,242.5c0.5,0,1-0.2,1.4-0.6c2.6-2.6,5.1-5.1,7.7-7.7c0.4-0.4,0.5-0.9,0.5-1.4
			c0-1.1-0.1-2.1-0.2-3.2c-0.1-0.7,0-1.4-0.2-2.1c-0.1-0.3,0-0.4,0.2-0.6c0.2-0.2,0.4-0.4,0.3-0.7c0-0.3-0.2-0.5-0.5-0.6
			c-0.3-0.1-0.6-0.1-0.9,0.2c-0.2,0.3-0.5,0.4-0.8,0.3c-1.7-0.2-3.4-0.3-5.1-0.4c-0.5,0-1,0.2-1.4,0.5c-2.6,2.6-5.1,5.1-7.7,7.7
			c-0.8,0.8-0.8,1.9,0,2.7c1.8,1.8,3.5,3.6,5.3,5.3C340.8,242.3,341.3,242.5,341.8,242.5L341.8,242.5z"/>
		<path class="st1" d="M337.8,202.6c0.2,0,0.4,0,0.6,0c7.4,0,14.7,0,22.1,0c0.5,0,0.7,0.2,0.7,0.7c0,1.2,0,2.4,0,3.6
			c0,0.3-0.1,0.4-0.4,0.4c-6.8,0-13.6,0-20.4,0c-0.2,0-0.4,0-0.5-0.3C339.2,205.6,338.5,204.1,337.8,202.6L337.8,202.6z"/>
		<path d="M341.8,242.5c-0.5,0-1-0.2-1.3-0.5c-1.8-1.8-3.5-3.5-5.3-5.3c-0.8-0.8-0.8-1.9,0-2.7c2.5-2.6,5.1-5.1,7.7-7.7
			c0.4-0.4,0.8-0.6,1.4-0.5c1.7,0.1,3.4,0.2,5.1,0.4c0.4,0,0.6-0.1,0.8-0.3s0.5-0.3,0.9-0.2c0.3,0.1,0.4,0.3,0.5,0.6
			c0.1,0.3-0.1,0.5-0.3,0.7c-0.2,0.2-0.3,0.4-0.2,0.6c0.2,0.7,0.1,1.4,0.2,2.1c0.1,1.1,0.1,2.1,0.2,3.2c0,0.5-0.1,1-0.5,1.4
			c-2.6,2.6-5.1,5.1-7.7,7.7C342.8,242.3,342.4,242.5,341.8,242.5L341.8,242.5z M348.4,227.6c-0.1,0-0.2,0-0.2,0
			c-1.2-0.1-2.4-0.2-3.6-0.3c-0.4,0-0.6,0.1-0.8,0.3c-2.4,2.4-4.8,4.8-7.2,7.2c-0.5,0.5-0.5,0.6,0,1.1c1.6,1.6,3.1,3.1,4.7,4.7
			c0.5,0.5,0.6,0.5,1.1,0c2.2-2.2,4.3-4.4,6.5-6.5c0.8-0.7,1.1-1.4,1-2.4c-0.1-1-0.1-2-0.2-3c-0.3,0.1-0.3,0.3-0.2,0.5
			c0.2,1.1-0.5,2.1-1.6,2.1c-1,0.1-1.9-0.8-1.9-1.8c0-1.1,0.9-1.8,2-1.7C348.1,227.7,348.2,227.8,348.4,227.6L348.4,227.6z
			 M347.7,229.2c-0.1,0-0.2,0.1-0.2,0.2c0,0.1,0.1,0.2,0.2,0.2c0.1,0,0.2-0.1,0.2-0.2C347.9,229.3,347.8,229.3,347.7,229.2
			L347.7,229.2z"/>
		<path class="st1" d="M348.4,227.6c-0.1,0.3-0.3,0.1-0.4,0.1c-1.1-0.1-2,0.6-2,1.7c0,1.1,0.8,1.9,1.9,1.8c1.1-0.1,1.8-1,1.6-2.1
			c0-0.2,0-0.3,0.2-0.5c0.1,1,0.1,2,0.2,3c0.2,1-0.2,1.7-1,2.4c-2.2,2.1-4.3,4.3-6.5,6.5c-0.5,0.5-0.6,0.5-1.1,0
			c-1.6-1.6-3.1-3.1-4.7-4.7c-0.5-0.5-0.5-0.6,0-1.1c2.4-2.4,4.8-4.8,7.2-7.2c0.2-0.2,0.5-0.4,0.8-0.3c1.2,0.1,2.4,0.2,3.6,0.3
			C348.2,227.5,348.3,227.6,348.4,227.6L348.4,227.6z"/>
		<path class="st2" d="M347.7,229.2c0.1,0,0.2,0.1,0.2,0.2c0,0.1-0.1,0.2-0.2,0.2c-0.1,0-0.2-0.1-0.2-0.2
			C347.5,229.3,347.5,229.3,347.7,229.2L347.7,229.2z"/>
	</g>
	<g>
		<text transform="matrix(1 0 0 1 40.69 269.84)" class="st3 st4">IA</text>
		<g>
			<path class="st1" d="M64.7,214.1c-0.2,0.1-0.3,0.2-0.5,0.3c-0.8,0.8-1.2,1.7-1.1,2.8c0,0.4,0.2,0.8,0.4,1.1
				c0.5,0.9,0.9,1.9,1.2,2.9c0.6,1.6,1.6,2.4,3.3,2.4c0.5,0,0.6,0.2,0.7,0.6c0.3,2.2,0.3,4.4,0,6.7c-0.1,0.4-0.2,0.4-0.5,0.4
				c-0.4,0-0.9,0-1.3,0.1c-1,0.3-1.7,1-2.1,2c-0.4,1.1-0.8,2.2-1.3,3.2c-0.7,1.5-0.5,2.8,0.7,3.9c0.4,0.4,0.4,0.6,0.1,1
				c-1.4,1.8-2.9,3.3-4.7,4.7c-0.3,0.2-0.4,0.2-0.7-0.1c-1.1-1.3-2.8-1.6-4.3-0.7c-0.8,0.5-1.8,0.8-2.7,1.1
				c-1.6,0.6-2.4,1.6-2.4,3.4c0,0.4-0.1,0.6-0.5,0.7c-2.3,0.3-4.6,0.3-6.9-0.1c-0.2,0-0.2-0.1-0.2-0.3c0-0.3,0-0.6,0-1
				c-0.2-1.3-0.9-2.2-2.2-2.7c-1.1-0.4-2.1-0.8-3.1-1.3c-1.4-0.7-2.7-0.5-3.9,0.6c-0.5,0.5-0.5,0.5-1.1,0.1
				c-1.8-1.4-3.3-2.9-4.7-4.7c-0.2-0.3-0.1-0.5,0.1-0.6c1.2-1.2,1.5-2.4,0.9-3.7c-0.2-0.4-0.4-0.8-0.6-1.2c-0.3-0.7-0.6-1.4-0.8-2.1
				c-0.6-1.6-1.6-2.4-3.3-2.4c-0.5,0-0.6-0.1-0.7-0.6c-0.3-2.2-0.3-4.4,0-6.7c0.1-0.4,0.2-0.4,0.5-0.4c1.2,0.1,2.4-0.3,2.9-1.4
				c0.8-1.6,1.5-3.2,2.1-4.9c0.4-1.1-0.1-2.2-1-3c-0.4-0.3-0.4-0.5-0.1-0.9c1.4-1.8,3-3.4,4.8-4.7c0.3-0.2,0.4-0.2,0.6,0
				c1,1.2,2.6,1.7,4.4,0.7c0.8-0.5,1.7-0.8,2.6-1.1c1.6-0.5,2.4-1.6,2.4-3.3c0-0.4,0.1-0.6,0.6-0.7c2.3-0.3,4.6-0.3,6.9,0.1
				c0.2,0,0.3,0.1,0.3,0.3c0,0.4,0,0.8,0.1,1.1c0.2,1.2,0.9,2,2,2.4c1.2,0.4,2.3,0.9,3.5,1.4c1.3,0.6,2.6,0.4,3.7-0.7
				c0.3-0.3,0.7-0.4,1.1-0.1c1.8,1.3,3.3,2.9,4.6,4.7c0.1,0.1,0.1,0.2,0.2,0.3C64.7,214,64.7,214,64.7,214.1L64.7,214.1z"/>
			<path d="M70.7,227.6c0,1.6-0.2,3.1-0.4,4.6c-0.1,0.6-0.4,0.8-1,0.8c-0.4,0-0.9,0-1.3,0c-0.8,0-1.3,0.4-1.5,1.1
				c-0.4,1.2-0.9,2.3-1.4,3.5c-0.3,0.7-0.2,1.3,0.3,1.9c0.3,0.3,0.6,0.6,1,1c0.4,0.4,0.4,0.8,0.1,1.2c-1.8,2.6-4,4.8-6.6,6.6
				c-0.5,0.3-0.8,0.3-1.2-0.1c-0.3-0.3-0.6-0.6-1-1c-0.5-0.5-1.2-0.6-1.8-0.3c-1.1,0.6-2.3,1-3.5,1.4c-0.7,0.3-1.1,0.8-1.1,1.6
				c0,0.4,0,0.9,0,1.3c0,0.5-0.2,0.8-0.7,0.9c-2,0.4-4.1,0.6-6.2,0.4c-1-0.1-2-0.2-3-0.4c-0.8-0.1-1-0.4-1-1.2c0-0.4,0-0.7,0-1.1
				c0-0.8-0.4-1.3-1.1-1.6c-1.2-0.4-2.3-0.9-3.4-1.4c-0.7-0.4-1.3-0.2-1.9,0.3c-0.3,0.3-0.7,0.6-1,1c-0.3,0.4-0.7,0.4-1.1,0.1
				c-2.7-1.8-4.9-4.1-6.7-6.7c-0.3-0.4-0.2-0.8,0.1-1.1c0.3-0.3,0.7-0.7,1-1c0.5-0.6,0.6-1.2,0.3-1.9c-0.5-1.1-1-2.2-1.4-3.4
				c-0.3-0.8-0.8-1.1-1.6-1.1c-0.4,0-0.9,0-1.3,0c-0.5,0-0.8-0.2-0.9-0.7c-0.4-2.1-0.6-4.1-0.4-6.3c0.1-1,0.2-2,0.4-3
				c0.1-0.7,0.4-0.9,1.1-1c0.4,0,0.8,0,1.3,0c0.7,0,1.2-0.4,1.5-1.1c0.4-1.2,0.9-2.4,1.5-3.5c0.3-0.6,0.2-1.3-0.3-1.8
				c-0.3-0.4-0.7-0.7-1-1c-0.3-0.3-0.4-0.7-0.1-1.1c1.8-2.7,4-4.9,6.7-6.7c0.4-0.3,0.8-0.2,1.1,0.1c0.3,0.3,0.7,0.7,1,1
				c0.5,0.5,1.2,0.6,1.8,0.3c1.1-0.6,2.2-1,3.4-1.4c0.8-0.3,1.1-0.8,1.2-1.6c0-0.4,0-0.9,0-1.3c0-0.5,0.2-0.8,0.7-0.9
				c2-0.4,4-0.5,6.1-0.4c1.1,0.1,2.1,0.2,3.2,0.4c0.7,0.1,0.9,0.4,0.9,1.1c0,0.4,0,0.8,0,1.2c0,0.8,0.4,1.3,1.1,1.6
				c1.2,0.4,2.3,0.9,3.5,1.4c0.7,0.3,1.3,0.2,1.8-0.3c0.3-0.3,0.7-0.7,1-1c0.3-0.4,0.7-0.4,1.1-0.1c2.7,1.8,4.9,4,6.7,6.7
				c0.3,0.4,0.2,0.8-0.1,1.1c-0.3,0.3-0.6,0.6-1,1c-0.6,0.6-0.7,1.2-0.3,1.9c0.5,1.1,1,2.2,1.4,3.4c0.3,0.8,0.8,1.1,1.6,1.2
				c0.4,0,0.8,0,1.2,0c0.6,0,0.9,0.2,1,0.8C70.5,224.5,70.7,226,70.7,227.6L70.7,227.6z"/>
			<path class="st1" d="M27.9,227.5c0-9.8,8-17.7,17.7-17.7c9.8,0,17.8,7.9,17.8,17.8c0,9.8-8,17.6-17.9,17.6
				C35.8,245.3,27.9,237.3,27.9,227.5z"/>
			<path class="st1" d="M45.7,211.4c8.8,0,16.1,7.2,16.1,16.1c0,8.9-7.2,16.2-16.2,16.2c-8.9,0-16.1-7.3-16.1-16.2
				C29.5,218.6,36.8,211.4,45.7,211.4z"/>
			<path d="M44.8,227.6c0,3.1,0,6.2,0,9.3c0,0.5-0.2,0.8-0.5,1.1c-2.6,2.5-7.2,2-9-1c-0.3-0.5-0.5-1.1-0.6-1.7
				c0-0.2-0.1-0.4-0.3-0.5c-2.3-1.2-3.5-4.3-1.7-6.7c0.1-0.1,0.1-0.2,0-0.4c-1.8-2.4-0.6-5.6,1.7-6.7c0.2-0.1,0.3-0.2,0.3-0.4
				c-0.2-2.7,2-4.7,4.5-5.1c2-0.3,3.7,0.2,5.1,1.5c0.3,0.3,0.5,0.6,0.5,1.1C44.8,221.3,44.8,224.5,44.8,227.6L44.8,227.6z"/>
			<path d="M47.4,234c-0.5,0-1,0-1.5,0c-0.2,0-0.3-0.1-0.3-0.3c0-1.3,0-1.4,1.3-1.3c1.2,0.1,1.9-0.3,2.6-1.2
				c1.1-1.5,0.7-1.2,2.5-1.2c0.7,0,1.4,0,2.1,0c0.3,0,0.5-0.1,0.7-0.4c0.5-0.9,1.6-1.4,2.5-1.2c1,0.2,1.8,1,2,2
				c0.1,1.1-0.4,2.1-1.4,2.6c-1.1,0.5-2.5,0.1-3.1-1c-0.2-0.3-0.3-0.4-0.6-0.4c-0.8,0-1.6,0-2.4,0c-0.3,0-0.5,0.1-0.8,0.4
				c-0.4,0.5-0.8,1-1.2,1.6c-0.2,0.3-0.6,0.5-1,0.5S47.8,234,47.4,234z"/>
			<path d="M45.8,221.9c0-0.5,0.2-0.8,0.8-0.8c0.8,0,1.5,0,2.3,0c0.4,0,0.6,0.1,0.9,0.4c0.5,0.6,0.9,1.1,1.4,1.7
				c0.2,0.2,0.3,0.3,0.6,0.3c0.9,0,1.7,0,2.6,0c0.3,0,0.4-0.1,0.5-0.3c0.6-1.1,1.8-1.6,3-1.2c1.1,0.4,1.8,1.6,1.6,2.7
				c-0.2,1.2-1.3,2.1-2.5,2c-0.9-0.1-1.5-0.5-1.9-1.2c-0.2-0.3-0.3-0.4-0.7-0.4c-1,0-2,0-3,0c-0.4,0-0.7-0.1-1-0.5
				c-0.4-0.6-0.9-1.1-1.3-1.7c-0.2-0.2-0.3-0.3-0.6-0.3c-0.7,0-1.3,0-2,0c-0.4,0-0.6-0.1-0.5-0.5C45.8,222.1,45.8,222,45.8,221.9
				L45.8,221.9z"/>
			<path d="M47,215.5c1.1-0.3,1.8,0.2,2.3,1.1c0.2,0.3,0.5,0.6,0.6,0.9c0.2,0.3,0.4,0.4,0.8,0.4c0.4,0,0.3-0.3,0.4-0.5
				c0.4-1,1.4-1.6,2.5-1.5c1.1,0.1,1.9,1,2.1,2.1c0.2,1-0.4,2.1-1.4,2.5c-1,0.4-2.1,0.2-2.8-0.6c-0.2-0.3-0.5-0.4-0.8-0.4
				c-1,0.2-1.7-0.2-2.1-1.1c-0.5-1.1-1.4-1.6-2.6-1.3c-0.3,0.1-0.4-0.1-0.4-0.4c0-1.2,0-1.2,1.2-1.2L47,215.5L47,215.5z"/>
			<path d="M46.8,238c0.6,0.2,1.1-0.1,1.4-0.8c0.2-0.4,0.6-0.8,0.8-1.1c0.2-0.4,0.6-0.6,1-0.5c0.1,0,0.3,0,0.4,0
				c0.5,0.1,0.9-0.1,1.2-0.5c0.7-0.8,1.9-0.9,2.8-0.4c0.9,0.5,1.4,1.6,1.2,2.6c-0.2,1.1-1.1,1.8-2.2,1.9c-1,0.1-2.1-0.6-2.5-1.6
				c-0.1-0.2,0-0.4-0.3-0.4c-0.3,0-0.6-0.1-0.8,0.3c-0.4,0.6-0.8,1.1-1.2,1.7c-0.2,0.3-0.5,0.4-0.8,0.4c-0.7,0-1.3,0-2,0
				c-0.3,0-0.4-0.1-0.3-0.3c0-0.1,0-0.2,0-0.2C45.6,238.4,46,238,46.8,238L46.8,238z"/>
			<path d="M47.3,225.9c-0.6,0-0.8-0.3-0.8-0.9s0.3-0.8,0.8-0.8s0.8,0.4,0.8,0.9S47.9,225.9,47.3,225.9z"/>
			<path d="M49.7,228.4c0,0.5-0.3,0.8-0.8,0.8c-0.5,0-0.8-0.3-0.8-0.8c0-0.5,0.2-0.8,0.8-0.8C49.4,227.6,49.7,227.9,49.7,228.4z"/>
			<path class="st1" d="M43.2,227.4v4.1c0,1.7,0,3.4,0,5c0,0.2,0,0.4-0.2,0.5c-1.8,1.5-5.2,1.5-6.4-1.2c-0.2-0.4-0.2-0.6,0.3-0.8
				c1-0.4,1.6-1.3,1.8-2.4c0-0.2,0-0.4-0.3-0.3c-0.2,0-0.3,0-0.5,0c-0.5,0-0.9-0.1-1,0.6c-0.2,0.8-1,0.9-1.7,0.5
				c-1.9-1.1-2.2-3.3-0.7-4.8c0.5-0.5,0.5-0.9,0-1.4c-1.9-1.8-0.8-4.2,1-5c0.9-0.4,1.7,0.2,1.8,0.9c0.1,0.3,0.2,0.4,0.5,0.4
				c0.2,0,0.5,0,0.7,0c0.5,0.1,0.5-0.2,0.5-0.6c-0.3-1.2-1-2-2.2-2.4c-0.3-0.1-0.4-0.2-0.4-0.5c0.1-0.8,0.4-1.4,1-1.9
				c1.5-1.4,4.1-1.5,5.7-0.2c0.2,0.1,0.2,0.3,0.2,0.5c0,2.3,0,4.6,0,6.9c0,0.3-0.2,0.4-0.4,0.4c-1.2,0.4-2,1.1-2.5,2.2
				c-0.1,0.3-0.1,0.4,0.2,0.5c0,0,0.1,0,0.1,0c0.3,0.1,0.6,0.3,1,0.3c0.4,0,0.3-0.5,0.5-0.7C42.5,227.8,42.8,227.6,43.2,227.4
				L43.2,227.4z"/>
			<path class="st1" d="M56.8,231.6c-0.4,0-0.8-0.4-0.8-0.8c0-0.4,0.4-0.8,0.8-0.8c0.4,0,0.8,0.4,0.8,0.8
				C57.5,231.2,57.2,231.6,56.8,231.6L56.8,231.6z"/>
			<path class="st1" d="M56.9,225.1c-0.4,0-0.8-0.4-0.8-0.8c0-0.4,0.3-0.8,0.8-0.8c0.4,0,0.8,0.4,0.8,0.8
				C57.7,224.8,57.4,225.1,56.9,225.1z"/>
			<path class="st1" d="M54.2,218.3c0,0.4-0.4,0.8-0.8,0.8c-0.4,0-0.8-0.3-0.8-0.8c0-0.5,0.3-0.8,0.8-0.8
				C53.8,217.5,54.2,217.8,54.2,218.3z"/>
			<path class="st1" d="M54.2,236.8c0,0.4-0.4,0.8-0.8,0.8c-0.4,0-0.8-0.3-0.8-0.8c0-0.5,0.3-0.8,0.8-0.9
				C53.8,236,54.2,236.4,54.2,236.8z"/>
		</g>
	</g>
	<text transform="matrix(1 0 0 1 180.4 258.46)" class="st3 st4">D</text>
	<text transform="matrix(1 0 0 1 188.39 258.46)" class="st3 st4">a</text>
	<text transform="matrix(1 0 0 1 194.13 258.46)" class="st3 st4">ta</text>
	<text transform="matrix(1 0 0 1 159.73 110.46)" class="st3 st4">C</text>
	<text transform="matrix(1 0 0 1 166.56 110.46)" class="st3 st4">olle</text>
	<text transform="matrix(1 0 0 1 184.82 110.46)" class="st3 st4">c</text>
	<text transform="matrix(1 0 0 1 190.35 110.46)" class="st3 st4">t</text>
	<text transform="matrix(1 0 0 1 194.25 110.46)" class="st3 st4">e de la </text>
	<text transform="matrix(1 0 0 1 182.11 124.86)" class="st3 st4">d</text>
	<text transform="matrix(1 0 0 1 188.88 124.86)" class="st3 st4">a</text>
	<text transform="matrix(1 0 0 1 194.61 124.86)" class="st3 st4">ta</text>
	<text transform="matrix(1 0 0 1 308.37 262.28)" class="st3 st4">D</text>
	<text transform="matrix(1 0 0 1 316.36 262.28)" class="st3 st4">a</text>
	<text transform="matrix(1 0 0 1 322.1 262.28)" class="st3 st4">ta Labeling</text>
	<text transform="matrix(0.8868 0.4622 -0.4622 0.8868 263.5302 79.4699)" class="st5 st6">C</text>
	<text transform="matrix(0.8685 0.4958 -0.4958 0.8685 270.9801 83.3999)" class="st5 st6">r</text>
	<text transform="matrix(0.8515 0.5243 -0.5243 0.8515 274.5102 85.39)" class="st5 st6">é</text>
	<text transform="matrix(0.828 0.5608 -0.5608 0.828 280.2699 88.9199)" class="st5 st6">a</text>
	<text transform="matrix(0.8081 0.5891 -0.5891 0.8081 286.33 93.06)" class="st5 st6">t</text>
	<text transform="matrix(0.7958 0.6056 -0.6056 0.7958 289.5401 95.41)" class="st5 st6">i</text>
	<text transform="matrix(0.7775 0.6289 -0.6289 0.7775 291.6702 96.99)" class="st5 st6">o</text>
	<text transform="matrix(0.7496 0.6618 -0.6618 0.7496 297.0902 101.37)" class="st5 st6">n</text>
	<text transform="matrix(0.707 0.7072 -0.7072 0.707 304.4297 107.96)" class="st5 st6">d</text>
	<text transform="matrix(0.6753 0.7375 -0.7375 0.6753 309.6296 113.1701)" class="st5 st6">e</text>
	<text transform="matrix(0.6397 0.7686 -0.7686 0.6397 316.0904 120.3901)" class="st5 st6">l</text>
	<text transform="matrix(0.6155 0.7881 -0.7881 0.6155 317.8001 122.3899)" class="st5 st6">a</text>
	<text transform="matrix(0.564 0.8258 -0.8258 0.564 324.0498 130.53)" class="st5 st6">d</text>
	<text transform="matrix(0.5256 0.8507 -0.8507 0.5256 328.1895 136.5999)" class="st5 st6">a</text>
	<text transform="matrix(0.4955 0.8686 -0.8686 0.4955 332.0396 142.89)" class="st5 st6">t</text>
	<text transform="matrix(0.4648 0.8854 -0.8854 0.4648 334.0197 146.3)" class="st5 st6">a</text>
	<text transform="matrix(0.9023 0.4311 -0.4311 0.9023 123.1298 379.5101)" class="st5 st7">L</text>
	<text transform="matrix(0.918 0.3967 -0.3967 0.918 127.5598 381.65)" class="st5 st7">a</text>
	<text transform="matrix(0.9349 0.3549 -0.3549 0.9349 134.56 384.67)" class="st5 st7">b</text>
	<text transform="matrix(0.9496 0.3135 -0.3135 0.9496 141.72 387.3801)" class="st5 st7">e</text>
	<text transform="matrix(0.9585 0.2852 -0.2852 0.9585 148.3499 389.54)" class="st5 st7">l</text>
	<text transform="matrix(0.9632 0.2689 -0.2689 0.9632 151.03 390.34)" class="st5 st7">l</text>
	<text transform="matrix(0.9676 0.2524 -0.2524 0.9676 153.7099 391.0799)" class="st5 st7">i</text>
	<text transform="matrix(0.974 0.2265 -0.2265 0.974 156.42 391.81)" class="st5 st7">s</text>
	<text transform="matrix(0.9827 0.1853 -0.1853 0.9827 162.1701 393.17)" class="st5 st7">a</text>
	<text transform="matrix(0.9888 0.1492 -0.1492 0.9888 169.6799 394.55)" class="st5 st7">t</text>
	<text transform="matrix(0.9918 0.1278 -0.1278 0.9918 173.7499 395.16)" class="st5 st7">i</text>
	<text transform="matrix(0.9953 9.636693e-02 -9.636693e-02 0.9953 176.5 395.54)" class="st5 st7">o</text>
	<text transform="matrix(0.9987 5.059294e-02 -5.059294e-02 0.9987 183.73 396.24)" class="st5 st7">n</text>
	<text transform="matrix(0.9999 -1.413670e-02 1.413670e-02 0.9999 193.99 396.66)" class="st5 st7">e</text>
	<text transform="matrix(0.9988 -4.972137e-02 4.972137e-02 0.9988 200.98 396.53)" class="st5 st7">t</text>
	<text transform="matrix(0.9943 -0.1068 0.1068 0.9943 208.12 396.14)" class="st5 st7">V</text>
	<text transform="matrix(0.9881 -0.1537 0.1537 0.9881 215.72 395.31)" class="st5 st7">é</text>
	<text transform="matrix(0.9819 -0.1894 0.1894 0.9819 222.63 394.21)" class="st5 st7">r</text>
	<text transform="matrix(0.9773 -0.2117 0.2117 0.9773 226.78 393.4)" class="st5 st7">i</text>
	<text transform="matrix(0.9727 -0.2321 0.2321 0.9727 229.5 392.82)" class="st5 st7">f</text>
	<text transform="matrix(0.9676 -0.2526 0.2526 0.9676 233.1101 391.95)" class="st5 st7">i</text>
	<text transform="matrix(0.9592 -0.2828 0.2828 0.9592 235.84 391.2701)" class="st5 st7">c</text>
	<text transform="matrix(0.9448 -0.3275 0.3275 0.9448 242.43 389.34)" class="st5 st7">a</text>
	<text transform="matrix(0.9316 -0.3634 0.3634 0.9316 249.6301 386.7999)" class="st5 st7">t</text>
	<text transform="matrix(0.9232 -0.3843 0.3843 0.9232 253.46 385.2999)" class="st5 st7">i</text>
	<text transform="matrix(0.9103 -0.4141 0.4141 0.9103 256.06 384.26)" class="st5 st7">o</text>
	<text transform="matrix(0.8897 -0.4565 0.4565 0.8897 262.67 381.2503)" class="st5 st7">n</text>
	<text transform="matrix(0.2565 -0.9666 0.9666 0.2565 34.79 188.39)" class="st5 st8">C</text>
	<text transform="matrix(0.2977 -0.9547 0.9547 0.2977 36.7599 180.9901)" class="st5 st8">o</text>
	<text transform="matrix(0.3348 -0.9423 0.9423 0.3348 38.6501 174.9295)" class="st5 st8">n</text>
	<text transform="matrix(0.3678 -0.9299 0.9299 0.3678 40.7799 168.9601)" class="st5 st8">s</text>
	<text transform="matrix(0.3927 -0.9197 0.9197 0.3927 42.6999 164.1402)" class="st5 st8">t</text>
	<text transform="matrix(0.4131 -0.9107 0.9107 0.4131 44.11 160.8296)" class="st5 st8">r</text>
	<text transform="matrix(0.441 -0.8975 0.8975 0.441 45.6101 157.4703)" class="st5 st8">u</text>
	<text transform="matrix(0.4745 -0.8802 0.8802 0.4745 48.3999 151.7901)" class="st5 st8">c</text>
	<text transform="matrix(0.5003 -0.8659 0.8659 0.5003 51.2699 146.5)" class="st5 st8">t</text>
	<text transform="matrix(0.5164 -0.8564 0.8564 0.5164 53.0999 143.3602)" class="st5 st8">i</text>
	<text transform="matrix(0.5394 -0.8421 0.8421 0.5394 54.32 141.2798)" class="st5 st8">o</text>
	<text transform="matrix(0.5717 -0.8205 0.8205 0.5717 57.73 135.9497)" class="st5 st8">n</text>
	<text transform="matrix(0.6158 -0.7879 0.7879 0.6158 62.9301 128.6196)" class="st5 st8">e</text>
	<text transform="matrix(0.6393 -0.769 0.769 0.6393 66.7401 123.7698)" class="st5 st8">t</text>
	<text transform="matrix(0.6743 -0.7385 0.7385 0.6743 70.7499 118.9999)" class="st5 st8">e</text>
	<text transform="matrix(0.7024 -0.7118 0.7118 0.7024 74.8799 114.4698)" class="st5 st8">n</text>
	<text transform="matrix(0.7241 -0.6897 0.6897 0.7241 79.35 109.97)" class="st5 st8">t</text>
	<text transform="matrix(0.7394 -0.6733 0.6733 0.7394 81.96 107.49)" class="st5 st8">r</text>
	<text transform="matrix(0.7609 -0.6489 0.6489 0.7609 84.67 104.9898)" class="st5 st8">a</text>
	<text transform="matrix(0.7789 -0.6271 0.6271 0.7789 89.79 100.6501)" class="st5 st8">i</text>
	<text transform="matrix(0.7958 -0.6056 0.6056 0.7958 91.6699 99.1098)" class="st5 st8">n</text>
	<text transform="matrix(0.8187 -0.5743 0.5743 0.8187 96.7 95.2802)" class="st5 st8">e</text>
	<text transform="matrix(0.8468 -0.532 0.532 0.8468 101.69 91.7101)" class="st5 st8">m</text>
	<text transform="matrix(0.8725 -0.4886 0.4886 0.8725 110.3599 86.3298)" class="st5 st8">e</text>
	<text transform="matrix(0.8908 -0.4545 0.4545 0.8908 115.73 83.3099)" class="st5 st8">n</text>
	<text transform="matrix(0.9042 -0.4272 0.4272 0.9042 121.39 80.4499)" class="st5 st8">t</text>
	<text transform="matrix(0.9234 -0.3838 0.3838 0.9234 127.02 77.8099)" class="st5 st8">d</text>
	<text transform="matrix(0.9378 -0.3471 0.3471 0.9378 133.24 75.2399)" class="st5 st8">’</text>
	<text transform="matrix(0.9383 -0.346 0.346 0.9383 135.26 74.48)" class="st5 st8">I</text>
	<text transform="matrix(0.9475 -0.3196 0.3196 0.9475 137.5399 73.61)" class="st5 st8">A</text>
</g>
</svg>
