<?xml version="1.0" encoding="UTF-8"?>
<svg id="Calque_2" data-name="Calque 2" xmlns="http://www.w3.org/2000/svg" viewBox="0 0 388.61 443.11">
  <defs>
    <style>
      .cls-1 {
        fill: #f9fbfc;
      }

      .cls-2 {
        fill: #f9fbfb;
      }

      .cls-3 {
        fill: #fff;
      }

      .cls-4 {
        fill: #ee7675;
      }

      .cls-5, .cls-6, .cls-7, .cls-8, .cls-9 {
        fill: #1d1d1b;
      }

      .cls-10 {
        fill: #974a96;
      }

      .cls-11 {
        fill: #448ecc;
      }

      .cls-6 {
        font-size: 11px;
      }

      .cls-6, .cls-8, .cls-9 {
        font-family: Poppins-Regular, Poppins;
      }

      .cls-7 {
        font-family: Poppins-Bold, Poppins;
        font-size: 12px;
        font-weight: 700;
      }

      .cls-8 {
        font-size: 11.21px;
      }

      .cls-12 {
        fill: none;
        stroke: #1d1d1b;
        stroke-miterlimit: 10;
        stroke-width: 2px;
      }

      .cls-9 {
        font-size: 10px;
      }
    </style>
  </defs>
  <g id="Calque_3" data-name="Calque 3">
    <path class="cls-12" d="M52.85,284.41c16.95,39.73,47.89,61.63,53.55,65.53,5.01,3.45,40.58,27.32,85.99,26.73,59.51-.77,116.24-43.27,145.04-107.39"/>
    <path class="cls-12" d="M158.16,77.35c-58.61,13.53-104.21,61.04-114.95,120.66"/>
    <path class="cls-12" d="M339.33,187.63c-13.7-53.94-56.32-96.33-110.38-109.72"/>
  </g>
  <g id="Calque_1-2" data-name="Calque 1">
    <g>
      <path class="cls-1" d="M215.25,236.67c.08-.03,.11-.07,.03-.14,0-.07,0-.14,0-.22,.79-.11,1.58-.21,2.37-.32,.17,.49,.52,.82,1.03,.72,1.25-.25,2.47-.59,3.52-1.36,.56-.41,.91-.94,.91-1.68,0-9.29,0-18.59,0-27.88,0-.56-.2-1.01-.59-1.39-.45-.45-1-.74-1.59-.97-1.48-.6-3.03-.9-4.6-1.12-1.65-.24-3.32-.4-4.99-.4-.44,0-.57-.15-.54-.58,.04-.54-.04-1.09,.02-1.63,.16-1.44-.57-2.33-1.72-2.99-1.2-.69-2.51-1.1-3.85-1.42-5.01-1.19-10.1-1.46-15.23-1.43-2.15,.02-4.3,.12-6.44,.31-.6,.05-1.25,.07-1.4,.86-.11,.15-.24,.24-.45,.27-.71,.09-1.42,.23-2.14,.35-.34-.71-.64-.87-1.38-.71-.69,.15-1.39,.29-2.07,.49-1.42,.41-2.84,.83-4.01,1.8-.64,.53-1.01,1.19-.97,2.07,.03,.67-.03,1.34,.02,2,.03,.47-.11,.6-.58,.61-2.15,.03-4.29,.24-6.41,.65-1.45,.28-2.9,.6-4.18,1.4-.76,.47-1.15,1.11-1.15,2.06,.02,9.15,.02,18.3,0,27.45,0,.93,.39,1.55,1.11,2.03,.77,.51,1.64,.8,2.53,1.04,2.66,.7,5.37,.97,8.11,1.04,.41,.01,.61,.1,.56,.56-.17,1.32,.53,2.17,1.59,2.81,1.22,.74,2.58,1.15,3.95,1.49,4.03,.99,8.15,1.32,12.28,1.4,4.91,.1,9.81-.08,14.65-1.04,1.86-.37,3.7-.81,5.38-1.75,1.15-.64,1.96-1.51,1.77-2.95-.06-.45,.16-.51,.53-.53,.94-.04,1.88-.12,2.81-.15,.54-.02,.93-.21,1.09-.75Z"/>
      <path class="cls-5" d="M182.2,195.05c.15-.8,.8-.81,1.4-.86,2.14-.19,4.29-.3,6.44-.31,5.12-.04,10.22,.23,15.23,1.43,1.34,.32,2.65,.73,3.85,1.42,1.15,.66,1.88,1.56,1.72,2.99-.06,.54,.02,1.09-.02,1.63-.03,.43,.1,.58,.54,.58,1.67,0,3.33,.17,4.99,.4,1.57,.22,3.12,.52,4.6,1.12,.58,.24,1.14,.52,1.59,.97,.39,.38,.59,.83,.59,1.39,0,9.29,0,18.59,0,27.88,0,.75-.35,1.27-.91,1.68-1.05,.77-2.28,1.11-3.52,1.36-.51,.1-.86-.23-1.03-.72-.05-.68,.31-1.04,.94-1.18,.77-.17,1.53-.41,2.23-.79,.19-.11,.42-.2,.41-.49,0-1.52,0-3.03,0-4.59-.18,.05-.3,.07-.41,.12-1.47,.56-2.99,.88-4.54,1.1-1.66,.23-3.32,.33-4.99,.41-.36,.02-.5,.12-.49,.51,.03,1.38,.03,2.75,0,4.13-.01,.45,.16,.51,.54,.48,.89-.07,1.79-.08,2.69-.15,.63-.05,1.05,.18,1.25,.78,0,.07,0,.14,0,.22-.01,.05-.02,.09-.03,.14-.16,.54-.55,.73-1.09,.75-.94,.04-1.88,.12-2.81,.15-.37,.01-.58,.08-.53,.53,.18,1.44-.62,2.31-1.77,2.95-1.68,.94-3.52,1.38-5.38,1.75-4.84,.96-9.74,1.13-14.65,1.04-4.14-.08-8.25-.41-12.28-1.4-1.38-.34-2.73-.75-3.95-1.49-1.05-.64-1.75-1.49-1.59-2.81,.06-.46-.15-.55-.56-.56-2.74-.08-5.45-.34-8.11-1.04-.89-.24-1.76-.53-2.53-1.04-.72-.48-1.11-1.1-1.11-2.03,.02-9.15,.02-18.3,0-27.45,0-.95,.39-1.59,1.15-2.06,1.28-.8,2.72-1.12,4.18-1.4,2.12-.41,4.25-.62,6.41-.65,.47,0,.61-.14,.58-.61-.04-.67,.01-1.34-.02-2-.04-.87,.33-1.53,.97-2.07,1.17-.97,2.59-1.39,4.01-1.8,.68-.2,1.37-.34,2.07-.49,.74-.16,1.04,0,1.38,.71,.02,.67-.31,1.05-.98,1.14-.19,.03-.37,.08-.55,.12-1.54,.36-3.09,.72-4.45,1.58-.69,.44-.69,.65-.02,1.1,.19,.13,.39,.24,.6,.34,1.22,.61,2.53,.95,3.85,1.24,3.91,.85,7.89,1.12,11.88,1.16,4.71,.04,9.4-.15,14.01-1.16,1.55-.34,3.09-.71,4.45-1.59,.66-.43,.66-.63,.01-1.06-.91-.61-1.94-.95-2.99-1.23-3.28-.88-6.63-1.25-10.02-1.42-3.97-.21-7.94-.16-11.89,.23-.87,.08-1.24-.2-1.31-1.06Zm-9.12,16.43c0,2.33,.02,4.61-.01,6.88,0,.51,.19,.82,.59,1.07,.91,.56,1.91,.92,2.94,1.2,4.02,1.09,8.13,1.42,12.27,1.5,5.06,.11,10.11-.05,15.08-1.14,1.51-.33,3-.71,4.35-1.51,.44-.27,.67-.59,.66-1.16-.04-2.11,0-4.22-.01-6.33,0-.17,.08-.37-.1-.53-2.14,1.05-4.44,1.54-6.77,1.89-.71,.11-1.18-.22-1.25-.8-.06-.52,.34-.94,1.01-1.06,.9-.17,1.81-.31,2.7-.52,1.3-.31,2.58-.66,3.74-1.36,.44-.26,.7-.57,.68-1.15-.05-1.44-.01-2.88,0-4.32,0-.85,0-1.69,0-2.61-2.38,1.15-4.84,1.66-7.33,2.03-4.12,.62-8.27,.76-12.44,.68-3.43-.06-6.84-.3-10.22-.92-2-.37-3.99-.82-5.89-1.77,0,2.08,0,4.08,0,6.08,0,1.72,.1,1.84,1.72,2.49,.08,.03,.15,.07,.23,.1,2.82,1.07,5.77,1.47,8.74,1.75,4.36,.42,8.72,.4,13.09,.13,1-.06,1.49,.22,1.51,.86,.02,.64-.46,.96-1.45,1.03-3.76,.23-7.52,.28-11.28,.01-4.27-.31-8.51-.77-12.56-2.5Zm0,19.8c0,2.33,.02,4.61-.01,6.88,0,.51,.18,.82,.58,1.07,.91,.57,1.91,.92,2.94,1.2,3.74,1.04,7.59,1.37,11.45,1.49,2.71,.09,5.43,.08,8.14-.1,2.83-.19,5.65-.48,8.41-1.16,1.27-.31,2.53-.67,3.68-1.35,.47-.28,.71-.61,.69-1.2-.05-1.15,0-2.3,0-3.45,0-1.12,0-2.24,0-3.39-.7,.27-1.32,.54-1.97,.76-3.27,1.08-6.66,1.5-10.08,1.73-4.28,.29-8.56,.29-12.83-.09-3.74-.33-7.44-.84-11-2.39Zm0-9.94c0,2.23,.06,4.38-.03,6.52-.04,.96,.37,1.41,1.12,1.78,1.63,.78,3.37,1.2,5.14,1.52,4.23,.77,8.5,.95,12.79,.9,4.18-.05,8.34-.32,12.43-1.29,1.32-.31,2.62-.68,3.79-1.4,.42-.25,.65-.56,.63-1.11-.04-1.48-.01-2.97,0-4.45,0-.8,0-1.61,0-2.48-2.38,1.15-4.85,1.65-7.33,2.03-4.1,.62-8.23,.76-12.37,.68-3.66-.07-7.3-.32-10.89-1.04-1.79-.36-3.57-.79-5.26-1.65Zm-12.3,7.61v3.59c0,1.4,0,1.43,1.33,1.89,2.83,.98,5.78,1.18,8.75,1.28,.38,.01,.33-.2,.33-.43,0-1.4-.01-2.8,0-4.2,0-.34-.09-.47-.44-.49-.96-.04-1.92-.12-2.87-.19-.64-.04-1.04-.41-1.03-.94,0-.57,.43-.94,1.1-.92,.9,.03,1.79,.06,2.69,.14,.43,.04,.57-.07,.56-.52-.03-1.23-.01-2.46-.01-3.7,0-.87,0-.88-.9-.92-1.79-.09-3.58-.22-5.36-.51-1.4-.23-2.76-.61-4.09-1.07-.03,.07-.05,.11-.05,.14,0,1.38,.01,2.76-.02,4.13,0,.42,.14,.65,.5,.82,.72,.35,1.46,.58,2.23,.79,.67,.18,.94,.61,.8,1.19-.13,.52-.59,.75-1.24,.63-.76-.15-1.48-.41-2.28-.71Zm0-21.06c0,1.05,0,2.05,0,3.05,0,2.02,.06,2.1,2.01,2.67,.02,0,.04,0,.06,.01,2.59,.71,5.25,.94,7.92,1.02,.33,.01,.43-.08,.42-.41-.02-1.27,0-2.55,0-3.82q0-.88-.91-.92c-1.81-.08-3.62-.22-5.42-.51-1.38-.23-2.71-.61-4.08-1.09Zm60.46,0c-.18,.05-.32,.08-.45,.13-1.45,.54-2.95,.87-4.48,1.08-1.55,.21-3.11,.35-4.67,.38-.62,0-.86,.16-.83,.84,.06,1.27,.03,2.54,0,3.82,0,.41,.1,.51,.52,.51,1.94-.04,3.87-.23,5.78-.55,1.27-.21,2.54-.49,3.68-1.13,.23-.13,.46-.24,.45-.6-.02-1.48,0-2.96,0-4.48Zm-60.46,7v3.15c0,1.91,.06,1.99,1.91,2.56,.04,.01,.08,.02,.12,.03,2.61,.71,5.29,.94,7.98,1.03,.37,.01,.4-.14,.4-.44,0-1.29-.04-2.59,.01-3.88,.03-.61-.14-.82-.76-.84-3.26-.11-6.49-.4-9.66-1.61Zm60.46,0c-1.33,.5-2.63,.87-3.96,1.09-1.98,.34-3.97,.46-5.97,.56-.36,.02-.5,.1-.49,.51,.03,1.38,.03,2.75,0,4.13,0,.44,.15,.49,.54,.48,1.92-.03,3.83-.23,5.72-.54,1.29-.21,2.58-.49,3.74-1.14,.18-.1,.43-.17,.43-.48,0-1.52,0-3.03,0-4.61Zm0,7.01c-1.35,.52-2.67,.88-4.03,1.11-1.94,.33-3.89,.46-5.85,.54-.42,.02-.56,.14-.55,.58,.03,1.33,.03,2.67,0,4.01,0,.43,.09,.55,.54,.54,1.92-.04,3.83-.22,5.72-.55,1.27-.22,2.53-.49,3.69-1.09,.26-.14,.48-.27,.48-.65-.02-1.46,0-2.92,0-4.49Zm-60.35-16.21c.48,.39,1,.59,1.53,.76,2.73,.86,5.55,1.06,8.39,1.15,.31,.01,.39-.1,.38-.39-.01-1-.02-2,0-3,0-.35-.14-.4-.44-.4-2.67,.06-5.32,.31-7.91,1.02-.67,.18-1.35,.39-1.95,.86Zm60.26,.02c-.52-.41-1.05-.6-1.58-.76-2.72-.82-5.51-1.07-8.33-1.14-.35,0-.41,.12-.41,.43,.01,.94,.03,1.88,0,2.82-.01,.43,.08,.56,.54,.55,1.92-.04,3.83-.22,5.72-.54,1.39-.24,2.78-.52,4.06-1.35Z"/>
      <path class="cls-4" d="M182.2,195.05c.07,.86,.45,1.14,1.31,1.06,3.96-.39,7.92-.43,11.89-.23,3.38,.17,6.74,.54,10.02,1.42,1.05,.28,2.08,.62,2.99,1.23,.64,.43,.65,.64-.01,1.06-1.35,.88-2.9,1.25-4.45,1.59-4.62,1.01-9.31,1.2-14.01,1.16-3.99-.04-7.97-.3-11.88-1.16-1.32-.29-2.63-.63-3.85-1.24-.2-.1-.41-.21-.6-.34-.66-.45-.67-.66,.02-1.1,1.36-.86,2.91-1.22,4.45-1.58,.18-.04,.36-.09,.55-.12,.67-.09,.99-.47,.98-1.14,.71-.12,1.42-.25,2.14-.35,.21-.03,.34-.11,.45-.27Z"/>
      <path class="cls-10" d="M215.29,236.32c-.2-.6-.61-.83-1.25-.78-.89,.07-1.79,.08-2.69,.15-.38,.03-.55-.03-.54-.48,.03-1.38,.03-2.75,0-4.13,0-.39,.13-.49,.49-.51,1.67-.08,3.33-.18,4.99-.41,1.55-.22,3.07-.54,4.54-1.1,.11-.04,.24-.07,.41-.12,0,1.56,0,3.08,0,4.59,0,.29-.22,.38-.41,.49-.7,.38-1.45,.62-2.23,.79-.63,.14-.99,.5-.94,1.18-.79,.11-1.58,.21-2.37,.32Z"/>
      <path class="cls-10" d="M215.25,236.67s.02-.09,.03-.14c.08,.07,.05,.11-.03,.14Z"/>
      <path class="cls-10" d="M173.08,211.48c4.05,1.73,8.29,2.19,12.56,2.5,3.76,.27,7.52,.22,11.28-.01,.98-.06,1.46-.38,1.45-1.03-.02-.65-.51-.92-1.51-.86-4.37,.27-8.73,.29-13.09-.13-2.97-.29-5.92-.68-8.74-1.75-.08-.03-.15-.07-.23-.1-1.62-.65-1.72-.78-1.72-2.49,0-2,0-4,0-6.08,1.9,.95,3.89,1.4,5.89,1.77,3.37,.63,6.79,.86,10.22,.92,4.16,.08,8.32-.06,12.44-.68,2.49-.37,4.96-.88,7.33-2.03,0,.92,0,1.76,0,2.61,0,1.44-.04,2.88,0,4.32,.02,.58-.24,.88-.68,1.15-1.16,.7-2.44,1.05-3.74,1.36-.89,.21-1.8,.36-2.7,.52-.66,.12-1.07,.55-1.01,1.06,.07,.59,.54,.91,1.25,.8,2.33-.35,4.63-.84,6.77-1.89,.18,.17,.09,.36,.1,.53,0,2.11-.02,4.22,.01,6.33,0,.57-.22,.89-.66,1.16-1.35,.8-2.84,1.18-4.35,1.51-4.97,1.09-10.02,1.24-15.08,1.14-4.14-.09-8.25-.41-12.27-1.5-1.03-.28-2.03-.63-2.94-1.2-.4-.25-.6-.55-.59-1.07,.03-2.28,.01-4.55,.01-6.88Z"/>
      <path class="cls-10" d="M173.08,231.28c3.55,1.55,7.25,2.06,11,2.39,4.27,.38,8.55,.38,12.83,.09,3.41-.23,6.81-.65,10.08-1.73,.65-.21,1.27-.49,1.97-.76,0,1.15,0,2.27,0,3.39,0,1.15-.04,2.3,0,3.45,.02,.59-.22,.92-.69,1.2-1.14,.68-2.41,1.04-3.68,1.35-2.76,.68-5.58,.97-8.41,1.16-2.71,.18-5.43,.19-8.14,.1-3.86-.12-7.7-.45-11.45-1.49-1.02-.28-2.03-.63-2.94-1.2-.4-.25-.59-.56-.58-1.07,.03-2.28,.01-4.55,.01-6.88Z"/>
      <path class="cls-10" d="M173.08,221.34c1.7,.85,3.47,1.29,5.26,1.65,3.59,.72,7.24,.97,10.89,1.04,4.14,.08,8.27-.06,12.37-.68,2.49-.37,4.96-.87,7.33-2.03,0,.88,0,1.68,0,2.48,0,1.48-.03,2.97,0,4.45,.02,.55-.21,.86-.63,1.11-1.17,.71-2.48,1.08-3.79,1.4-4.09,.97-8.25,1.24-12.43,1.29-4.29,.05-8.56-.13-12.79-.9-1.76-.32-3.5-.74-5.14-1.52-.76-.36-1.17-.82-1.12-1.78,.09-2.14,.03-4.3,.03-6.52Z"/>
      <path class="cls-10" d="M160.78,228.94c.81,.3,1.53,.56,2.28,.71,.65,.13,1.11-.1,1.24-.63,.14-.58-.13-1.02-.8-1.19-.77-.2-1.51-.44-2.23-.79-.36-.17-.51-.4-.5-.82,.03-1.38,.01-2.76,.02-4.13,0-.04,.03-.07,.05-.14,1.33,.47,2.69,.84,4.09,1.07,1.78,.29,3.56,.42,5.36,.51,.9,.04,.9,.05,.9,.92,0,1.23-.02,2.46,.01,3.7,.01,.45-.13,.56-.56,.52-.89-.08-1.79-.11-2.69-.14-.67-.02-1.1,.35-1.1,.92,0,.53,.4,.9,1.03,.94,.96,.07,1.92,.14,2.87,.19,.35,.02,.44,.15,.44,.49-.02,1.4,0,2.8,0,4.2,0,.23,.05,.45-.33,.43-2.97-.1-5.92-.3-8.75-1.28-1.34-.46-1.33-.49-1.33-1.89v-3.59Z"/>
      <path class="cls-10" d="M160.78,207.88c1.37,.47,2.7,.86,4.08,1.09,1.8,.29,3.6,.43,5.42,.51q.91,.04,.91,.92c0,1.27,0,2.55,0,3.82,0,.33-.09,.42-.42,.41-2.67-.08-5.33-.31-7.92-1.02-.02,0-.04,0-.06-.01-1.95-.57-2.01-.65-2.01-2.67,0-1,0-2,0-3.05Z"/>
      <path class="cls-10" d="M221.24,207.88c0,1.52-.01,3,0,4.48,0,.36-.22,.47-.45,.6-1.15,.64-2.41,.91-3.68,1.13-1.91,.32-3.84,.51-5.78,.55-.42,0-.53-.1-.52-.51,.03-1.27,.06-2.55,0-3.82-.03-.68,.21-.83,.83-.84,1.56-.02,3.12-.17,4.67-.38,1.53-.21,3.03-.54,4.48-1.08,.13-.05,.27-.08,.45-.13Z"/>
      <path class="cls-10" d="M160.78,214.89c3.17,1.22,6.41,1.5,9.66,1.61,.62,.02,.79,.22,.76,.84-.05,1.29-.02,2.59-.01,3.88,0,.29-.03,.45-.4,.44-2.69-.08-5.37-.32-7.98-1.03-.04-.01-.08-.02-.12-.03-1.85-.57-1.91-.65-1.91-2.56v-3.15Z"/>
      <path class="cls-10" d="M221.24,214.88c0,1.58,0,3.1,0,4.61,0,.3-.25,.37-.43,.48-1.16,.65-2.45,.93-3.74,1.14-1.89,.31-3.8,.51-5.72,.54-.38,0-.55-.04-.54-.48,.03-1.38,.03-2.75,0-4.13,0-.4,.14-.49,.49-.51,2-.09,4-.22,5.97-.56,1.33-.23,2.63-.59,3.96-1.09Z"/>
      <path class="cls-10" d="M221.24,221.89c0,1.58-.01,3.04,0,4.49,0,.37-.21,.51-.48,.65-1.16,.6-2.42,.88-3.69,1.09-1.89,.33-3.8,.5-5.72,.55-.45,0-.55-.11-.54-.54,.03-1.33,.03-2.67,0-4.01-.01-.44,.13-.56,.55-.58,1.96-.08,3.91-.21,5.85-.54,1.36-.23,2.67-.59,4.03-1.11Z"/>
      <path class="cls-4" d="M160.89,205.69c.6-.47,1.28-.67,1.95-.86,2.59-.71,5.24-.96,7.91-1.02,.31,0,.45,.04,.44,.4-.02,1-.02,2,0,3,0,.29-.07,.4-.38,.39-2.84-.09-5.66-.3-8.39-1.15-.53-.17-1.05-.36-1.53-.76Z"/>
      <path class="cls-4" d="M221.15,205.71c-1.28,.83-2.67,1.12-4.06,1.35-1.89,.32-3.8,.5-5.72,.54-.46,.01-.56-.12-.54-.55,.03-.94,.02-1.88,0-2.82,0-.31,.06-.44,.41-.43,2.82,.08,5.61,.33,8.33,1.14,.53,.16,1.06,.35,1.58,.76Z"/>
    </g>
    <g>
      <path class="cls-5" d="M192.42,93c-6.81,0-13.62,0-20.43,0-2.7,0-4.07-2.18-2.9-4.6,.01-.03,.03-.06,.05-.08,2.05-3.07,2.5-6.45,2.4-10.11-.19-6.96-.06-13.93-.05-20.9,0-2.1,1.2-3.31,3.3-3.31,11.78,0,23.56,0,35.34,0,2.16,0,3.37,1.19,3.37,3.34,0,8.5,0,16.99,0,25.49,0,.54,.1,1.02,.36,1.51,.71,1.35,1.39,2.71,2.05,4.08,1.15,2.37-.22,4.57-2.84,4.58-6.87,0-13.75,0-20.62,0Z"/>
      <path class="cls-5" d="M215.44,51.85c-.82-.57-1.59-1.04-2.28-1.61-.26-.22,.14-.49,.28-.69,2.31-3.44,4.63-6.88,6.95-10.31,5.12-7.6,10.25-15.19,15.36-22.8,.39-.58,.63-.73,1.25-.28,1.74,1.25,1.76,1.22,.54,3.03-7.18,10.64-14.36,21.29-21.55,31.93-.17,.25-.35,.48-.55,.74Z"/>
      <path class="cls-5" d="M171.94,50.11c-.12,.11-.23,.22-.34,.31q-1.95,1.65-3.35-.44c-7.16-10.62-14.32-21.24-21.5-31.84-.42-.62-.46-.9,.24-1.34,1.78-1.1,1.75-1.14,2.88,.55,7.19,10.67,14.39,21.34,21.58,32.01,.16,.23,.3,.47,.48,.75Z"/>
      <path class="cls-5" d="M158.68,15.01c-1.66,0-3.31,0-4.97,0-1.16,0-1.73-.56-1.73-1.71,0-3.37,0-6.75,0-10.12,0-1.1,.57-1.66,1.69-1.66,3.37,0,6.75,0,10.12,0,1.11,0,1.68,.57,1.68,1.66,.01,3.4,.01,6.81,0,10.21,0,1.03-.59,1.6-1.64,1.61-1.72,.02-3.44,0-5.16,0Z"/>
      <path class="cls-5" d="M213.44,19.5c-1.41,0-2.81,0-4.22,0-1.16,0-1.73-.56-1.73-1.71,0-2.87-.01-5.75,0-8.62,0-1.1,.57-1.66,1.69-1.66,2.87-.01,5.75-.01,8.62,0,1.11,0,1.68,.57,1.68,1.66,.01,2.9,.01,5.81,0,8.71,0,1.03-.59,1.6-1.64,1.61-1.47,.02-2.94,0-4.41,0Z"/>
      <path class="cls-5" d="M174.48,36c-1.44,0-2.87,0-4.31,0-1.11-.01-1.68-.57-1.69-1.66-.01-2.9-.01-5.81,0-8.71,0-1.04,.59-1.61,1.64-1.61,2.91-.01,5.81-.01,8.72,0,1.05,0,1.63,.58,1.64,1.61,.01,2.94,.02,5.87,0,8.81,0,.98-.6,1.55-1.59,1.57-1.47,.02-2.94,0-4.41,0Z"/>
      <path class="cls-5" d="M198.49,5.26c0,1.19,.01,2.37,0,3.56-.01,1.1-.57,1.68-1.66,1.68-2.41,.01-4.81,.01-7.22,0-1.04,0-1.61-.59-1.61-1.64-.01-2.4-.01-4.81,0-7.22,0-1.05,.57-1.63,1.61-1.63,2.44-.02,4.87-.02,7.31,0,.98,0,1.55,.59,1.57,1.59,.02,1.22,0,2.44,0,3.65Z"/>
      <path class="cls-5" d="M231.48,10.51c-.97,0-1.94,.02-2.91,0-.99-.02-1.57-.59-1.58-1.57-.02-1.94-.02-3.87,0-5.81,0-1.04,.59-1.6,1.64-1.61,1.91-.01,3.81-.02,5.72,0,1.04,0,1.62,.58,1.63,1.62,.02,1.91,.02,3.81,0,5.72,0,1.09-.58,1.64-1.69,1.66-.94,.01-1.87,0-2.81,0Z"/>
      <path class="cls-5" d="M177.43,18c-.94,0-1.87,.01-2.81,0-1.05-.02-1.63-.58-1.63-1.62-.02-1.94-.02-3.87,0-5.81,.01-.98,.59-1.55,1.59-1.56,1.94-.02,3.87-.02,5.81,0,.99,0,1.58,.58,1.59,1.57,.02,1.97,.02,3.94,0,5.9-.01,.93-.61,1.5-1.54,1.52-1,.02-2,0-3,0Z"/>
      <path class="cls-5" d="M190.98,26.96c0-.94-.01-1.87,0-2.81,.02-1.05,.58-1.63,1.61-1.64,1.94-.02,3.87-.02,5.81,0,.98,.01,1.56,.59,1.57,1.59,.02,1.94,.02,3.87,0,5.81,0,.99-.59,1.58-1.57,1.59-1.97,.02-3.94,.02-5.9,0-.93-.01-1.5-.61-1.52-1.54-.02-1,0-2,0-3Z"/>
      <path class="cls-5" d="M214.94,34.5c-.94,0-1.87,.01-2.81,0-1.05-.02-1.63-.58-1.64-1.62-.02-1.94-.02-3.87,0-5.81,.01-.99,.59-1.56,1.59-1.57,1.94-.02,3.87-.02,5.81,0,.99,0,1.58,.58,1.59,1.56,.02,1.97,.02,3.94,0,5.9-.01,.93-.61,1.5-1.54,1.52-1,.02-2,0-3,0Z"/>
      <path class="cls-5" d="M204.55,39c.94,0,1.87-.01,2.81,0,1.04,.02,1.62,.59,1.62,1.63,.02,1.91,.02,3.81,0,5.72,0,1.08-.59,1.64-1.7,1.65-1.87,.01-3.75,.01-5.62,0-1.1,0-1.66-.57-1.67-1.68-.01-1.87-.01-3.75,0-5.62,0-1.14,.57-1.68,1.75-1.7,.94,0,1.87,0,2.81,0Z"/>
      <path class="cls-5" d="M189.48,46.56c0,.94,.01,1.87,0,2.81-.02,1.04-.59,1.62-1.62,1.63-1.91,.02-3.81,.02-5.72,0-1.09,0-1.65-.58-1.65-1.69-.01-1.87-.01-3.75,0-5.62,0-1.11,.57-1.67,1.67-1.68,1.87-.01,3.75-.01,5.62,0,1.15,0,1.69,.57,1.7,1.74,0,.94,0,1.87,0,2.81Z"/>
      <path class="cls-10" d="M192.48,57c5.72,0,11.44,.01,17.16-.02,.7,0,.87,.16,.86,.86-.03,7.94-.03,15.87,0,23.81,0,.7-.16,.86-.86,.86-11.44-.02-22.88-.02-34.31,0-.7,0-.87-.16-.86-.86,.03-7.94,.03-15.87,0-23.81,0-.7,.16-.87,.86-.86,5.72,.03,11.44,.02,17.16,.02Z"/>
      <path class="cls-1" d="M213.3,89.98h-41.61c.7-1.41,1.38-2.77,2.05-4.13,.13-.26,.29-.38,.58-.35,.15,.01,.31,0,.47,0,11.81,0,23.61,0,35.42-.02,.65,0,.99,.18,1.26,.79,.54,1.22,1.18,2.39,1.84,3.7Z"/>
      <path class="cls-10" d="M154.98,8.25c0-1.06,.02-2.12-.01-3.19-.01-.46,.14-.57,.58-.57,2.12,.02,4.25,.02,6.37,0,.46,0,.57,.14,.57,.58-.02,2.12-.02,4.25,0,6.37,0,.46-.14,.57-.58,.57-2.12-.02-4.25-.02-6.37,0-.46,0-.58-.14-.57-.58,.03-1.06,0-2.12,0-3.19Z"/>
      <path class="cls-10" d="M213.48,16.46c-.96,0-2.27,.38-2.8-.1-.62-.55-.16-1.87-.19-2.86-.02-.96-.35-2.26,.13-2.8,.55-.61,1.87-.16,2.86-.19,.96-.02,2.26-.35,2.8,.13,.62,.55,.16,1.87,.19,2.86,.02,.96,.35,2.26-.13,2.8-.55,.62-1.88,.11-2.86,.15Z"/>
      <path class="cls-10" d="M177.48,30.07c0,.75-.03,1.5,0,2.25,.02,.49-.06,.71-.64,.7-1.59-.04-3.19-.04-4.78,0-.53,.01-.61-.19-.6-.64,.02-1.59,.03-3.19,0-4.78-.01-.53,.19-.61,.64-.6,1.59,.02,3.19,.03,4.78,0,.53-.01,.62,.19,.6,.64-.03,.81,0,1.62,0,2.44Z"/>
      <path class="cls-10" d="M193.31,3.06c2.18-.06,2.19-.06,2.17,2.08,0,.77,.34,1.79-.15,2.23-.42,.38-1.42,.13-2.16,.13-2.18,0-2.19,0-2.17-2.13,0-.77-.35-1.79,.15-2.23,.42-.37,1.42-.08,2.16-.08Z"/>
      <path class="cls-4" d="M231.54,4.51q1.45,0,1.45,1.46t-1.55,1.54-1.45-1.46,1.55-1.54Z"/>
      <path class="cls-4" d="M175.98,13.43q0-1.42,1.39-1.42,1.61,0,1.61,1.58,0,1.42-1.39,1.42-1.61,0-1.61-1.58Z"/>
      <path class="cls-4" d="M196.99,27.08q0,1.43-1.48,1.43t-1.52-1.48,1.48-1.52,1.52,1.57Z"/>
      <path class="cls-4" d="M214.98,31.5q-1.5,0-1.5-1.5t1.5-1.5,1.5,1.5-1.5,1.5Z"/>
      <path class="cls-4" d="M204.54,42q1.45,0,1.45,1.46t-1.55,1.54-1.45-1.46,1.55-1.54Z"/>
      <path class="cls-4" d="M186.48,46.55q0,1.45-1.46,1.45t-1.54-1.55,1.46-1.45,1.54,1.55Z"/>
      <path class="cls-3" d="M193.98,73.22c.82-1.16,1.5-2.11,2.15-3.07,.26-.38,.44-.47,.87-.18,2.03,1.32,2.03,1.31,.66,3.27-1.23,1.76-2.46,3.52-3.7,5.28-.95,1.35-2.01,1.36-2.96,0-1.54-2.19-3.06-4.4-4.62-6.57-.34-.48-.3-.71,.19-1,.64-.37,1.27-1.15,1.86-1.11,.46,.03,.86,1.03,1.29,1.61,.38,.52,.74,1.04,1.26,1.76v-1.12c0-3.78,.01-7.55-.01-11.33,0-.61,.15-.77,.76-.77,2.25,.01,2.25-.01,2.25,2.26,0,3.28,0,6.56,0,9.83,0,.3,0,.6,0,1.14Z"/>
    </g>
    <g>
      <path class="cls-2" d="M320.68,216.52c0,4.98,0,9.96,0,14.94,0,.21,0,.42,.02,.63,.15,1.64,1.38,2.75,3.03,2.76,1.55,0,3.09,.01,4.64,0,.41,0,.6,.05,.59,.53,0,.5,.1,1,.21,1.49,1.82,8.37,10.16,13.23,18.3,10.68,5.37-1.68,9.42-6.79,9.78-12.34,.02-.33,.14-.36,.41-.35,1.59,0,3.19,0,4.78,0,.21,0,.43,0,.63-.05,1.54-.32,2.44-1.48,2.44-3.17,0-7.03,0-14.06,0-21.09,0-.18-.01-.36-.03-.54-.14-1.34-1.04-2.35-2.38-2.6-.33-.06-.4-.2-.39-.51,.02-1.2-.04-2.41,.02-3.61,.07-1.3-.67-2.28-2.25-2.27-7.4,.04-14.81,0-22.21,.04-.92,0-1.41-.21-1.76-1.1-.46-1.15-1.44-1.72-2.7-1.72-3.37,0-6.74,0-10.11,0-.35,0-.68,.05-1,.16-1.3,.44-2.03,1.54-2.03,3.1,0,5.01,0,10.02,0,15.04Z"/>
      <path class="cls-5" d="M320.68,216.52c0-5.01,0-10.02,0-15.04,0-1.56,.73-2.67,2.03-3.1,.33-.11,.66-.16,1-.16,3.37,0,6.74,0,10.11,0,1.26,0,2.24,.57,2.7,1.72,.35,.88,.84,1.1,1.76,1.1,7.4-.04,14.81,0,22.21-.04,1.58,0,2.32,.97,2.25,2.27-.07,1.2,0,2.41-.02,3.61,0,.31,.06,.45,.39,.51,1.34,.26,2.24,1.26,2.38,2.6,.02,.18,.03,.36,.03,.54,0,7.03,0,14.06,0,21.09,0,1.69-.9,2.86-2.44,3.17-.2,.04-.42,.04-.63,.05-1.59,0-3.19,0-4.78,0-.27,0-.39,.03-.41,.35-.36,5.55-4.41,10.66-9.78,12.34-8.14,2.55-16.48-2.3-18.3-10.68-.11-.49-.21-.99-.21-1.49,0-.48-.19-.54-.59-.53-1.55,.02-3.09,.01-4.64,0-1.65,0-2.87-1.12-3.03-2.76-.02-.21-.02-.42-.02-.63,0-4.98,0-9.96,0-14.94Zm1.58-.03c0,4.88,0,9.76,0,14.64,0,.26,0,.52,0,.78,.06,.82,.6,1.36,1.42,1.36,1.63,.01,3.25,0,4.88,0,.27,0,.37-.08,.37-.35,0-.59,.1-1.17,.22-1.74,1.68-8.06,9.66-13,17.63-10.91,5.77,1.52,10.06,6.7,10.47,12.65,.02,.29,.12,.34,.38,.34,1.51-.01,3.03,0,4.54,0,1.28,0,1.77-.48,1.77-1.76,0-6.95,0-13.9,0-20.84,0-1.31-.49-1.79-1.8-1.79-7.21,0-14.42,0-21.63,.01-1.04,0-1.7-.42-2.13-1.36-1.04-2.27-2.13-4.51-3.18-6.77-.32-.69-.81-.99-1.57-.99-3.19,.01-6.38,0-9.57,0-1.34,0-1.81,.47-1.81,1.81,0,4.96,0,9.93,0,14.89Zm8.2,17.53c.01,7,5.67,12.65,12.66,12.64,6.95,0,12.62-5.68,12.61-12.65,0-7.01-5.67-12.65-12.71-12.64-6.91,0-12.57,5.71-12.56,12.65Zm7.34-31.43c.72,1.54,1.41,3,2.09,4.46,.11,.23,.29,.26,.52,.26,6.79,0,13.57,0,20.36,0,.31,0,.42-.07,.41-.4-.02-1.2,0-2.41,0-3.61q0-.72-.73-.72c-7.36,0-14.71,0-22.07,0-.16,0-.32,0-.57,0Z"/>
      <path class="cls-2" d="M322.26,216.49c0-4.96,0-9.93,0-14.89,0-1.35,.47-1.81,1.81-1.81,3.19,0,6.38,0,9.57,0,.76,0,1.25,.3,1.57,.99,1.05,2.26,2.14,4.5,3.18,6.77,.43,.94,1.08,1.36,2.13,1.36,7.21-.02,14.42-.01,21.63-.01,1.31,0,1.8,.48,1.8,1.79,0,6.95,0,13.9,0,20.84,0,1.28-.49,1.76-1.77,1.76-1.51,0-3.03,0-4.54,0-.26,0-.36-.06-.38-.34-.4-5.96-4.69-11.14-10.47-12.65-7.96-2.09-15.95,2.85-17.63,10.91-.12,.57-.23,1.15-.22,1.74,0,.28-.09,.36-.37,.35-1.63-.01-3.25,0-4.88,0-.82,0-1.37-.55-1.42-1.36-.02-.26,0-.52,0-.78,0-4.88,0-9.76,0-14.64Z"/>
      <path class="cls-10" d="M330.46,234.01c0-6.94,5.65-12.64,12.56-12.65,7.04-.01,12.71,5.63,12.71,12.64,0,6.97-5.66,12.64-12.61,12.65-7,0-12.65-5.65-12.66-12.64Zm11.34,8.46c.55,.03,1.03-.16,1.41-.55,2.57-2.56,5.13-5.13,7.7-7.69,.39-.39,.55-.87,.53-1.42-.05-1.06-.07-2.11-.17-3.17-.06-.7,.02-1.41-.18-2.08-.08-.28-.04-.45,.17-.63,.22-.19,.36-.43,.3-.73-.05-.29-.21-.52-.5-.61-.32-.1-.62-.05-.85,.21-.23,.26-.45,.35-.84,.31-1.71-.18-3.43-.31-5.15-.44-.52-.04-.99,.17-1.37,.54-2.57,2.56-5.14,5.12-7.69,7.7-.77,.78-.78,1.95-.01,2.73,1.76,1.79,3.53,3.55,5.31,5.32,.36,.36,.81,.53,1.32,.52Z"/>
      <path class="cls-10" d="M337.8,202.59c.25,0,.41,0,.57,0,7.36,0,14.71,0,22.07,0q.73,0,.73,.72c0,1.2-.01,2.41,0,3.61,0,.33-.1,.4-.41,.4-6.79,0-13.57,0-20.36,0-.23,0-.41-.03-.52-.26-.68-1.46-1.37-2.92-2.09-4.46Z"/>
      <path class="cls-2" d="M341.8,242.48c-.51,.01-.96-.16-1.32-.52-1.77-1.77-3.55-3.53-5.31-5.32-.76-.78-.76-1.95,.01-2.73,2.55-2.58,5.12-5.14,7.69-7.7,.37-.37,.84-.58,1.37-.54,1.72,.12,3.44,.25,5.15,.44,.39,.04,.61-.05,.84-.31,.23-.26,.53-.31,.85-.21,.29,.09,.44,.32,.5,.61,.06,.3-.08,.54-.3,.73-.21,.18-.26,.35-.17,.63,.2,.68,.12,1.39,.18,2.08,.09,1.05,.12,2.11,.17,3.17,.02,.54-.14,1.03-.53,1.42-2.56,2.57-5.13,5.13-7.7,7.69-.38,.38-.86,.58-1.41,.55Zm6.56-14.9c-.1-.02-.16-.04-.22-.04-1.21-.1-2.43-.19-3.64-.31-.35-.03-.58,.11-.81,.34-2.39,2.4-4.78,4.79-7.18,7.18-.46,.46-.46,.59,.02,1.08,1.58,1.58,3.15,3.15,4.73,4.73,.48,.48,.64,.49,1.12,0,2.16-2.16,4.3-4.36,6.51-6.47,.75-.71,1.12-1.41,.96-2.45-.15-.98-.14-1.98-.21-3.01-.26,.12-.28,.26-.25,.46,.17,1.12-.55,2.06-1.62,2.12-1.04,.06-1.88-.75-1.87-1.8,.01-1.1,.87-1.83,2.03-1.72,.13,.01,.28,.14,.43-.12Zm-.7,1.67c-.13,0-.21,.08-.22,.21,0,.1,.06,.18,.17,.2,.13,.02,.22-.05,.24-.18,.02-.14-.07-.2-.19-.23Z"/>
      <path class="cls-4" d="M348.37,227.58c-.15,.26-.3,.14-.43,.12-1.15-.11-2.01,.62-2.03,1.72-.01,1.06,.83,1.86,1.87,1.8,1.07-.06,1.79-1,1.62-2.12-.03-.21-.01-.34,.25-.46,.06,1.02,.06,2.03,.21,3.01,.16,1.04-.21,1.74-.96,2.45-2.21,2.11-4.34,4.31-6.51,6.47-.48,.48-.64,.48-1.12,0-1.58-1.58-3.15-3.15-4.73-4.73-.48-.48-.49-.61-.02-1.08,2.39-2.39,4.79-4.79,7.18-7.18,.23-.23,.46-.37,.81-.34,1.21,.11,2.43,.21,3.64,.31,.06,0,.12,.02,.22,.04Z"/>
      <path class="cls-11" d="M347.67,229.25c.13,.03,.22,.09,.19,.23-.02,.13-.11,.19-.24,.18-.11-.02-.17-.1-.17-.2,0-.12,.08-.2,.22-.21Z"/>
    </g>
    <g>
      <text class="cls-7" transform="translate(38.66 270.2)"><tspan x="0" y="0">IA</tspan></text>
      <g>
        <path class="cls-10" d="M64.74,214.07c-.17,.11-.35,.2-.5,.34-.82,.75-1.19,1.68-1.06,2.8,.05,.41,.19,.78,.37,1.14,.49,.95,.9,1.94,1.24,2.95,.56,1.65,1.62,2.45,3.34,2.4,.53-.01,.63,.19,.69,.62,.29,2.23,.3,4.45-.04,6.67-.06,.37-.2,.42-.51,.4-.44-.04-.87,0-1.29,.13-1.01,.32-1.72,.96-2.07,1.96-.38,1.11-.81,2.19-1.33,3.24-.73,1.47-.53,2.79,.66,3.93,.38,.37,.4,.59,.07,1.01-1.37,1.76-2.93,3.32-4.71,4.66-.27,.21-.44,.21-.65-.05-1.1-1.3-2.76-1.61-4.35-.7-.84,.48-1.76,.8-2.68,1.11-1.64,.55-2.42,1.61-2.4,3.35,0,.41-.06,.61-.53,.67-2.31,.3-4.62,.32-6.92-.06-.21-.03-.24-.11-.24-.28,0-.32,.02-.64-.03-.96-.2-1.33-.94-2.23-2.22-2.66-1.08-.36-2.13-.8-3.14-1.3-1.41-.7-2.73-.47-3.86,.65-.49,.49-.5,.5-1.06,.07-1.78-1.35-3.31-2.93-4.66-4.71-.25-.33-.06-.46,.13-.65,1.17-1.18,1.49-2.44,.93-3.73-.17-.4-.4-.77-.57-1.17-.29-.69-.57-1.39-.82-2.1-.56-1.61-1.62-2.41-3.31-2.38-.47,0-.65-.09-.71-.59-.28-2.23-.3-4.45,.04-6.67,.06-.39,.2-.44,.53-.43,1.22,.06,2.37-.27,2.94-1.37,.81-1.58,1.52-3.24,2.07-4.93,.37-1.14-.11-2.22-1.03-3.02-.35-.31-.36-.51-.07-.89,1.38-1.8,2.96-3.38,4.78-4.74,.26-.19,.41-.2,.62,.04,1.03,1.24,2.62,1.7,4.44,.69,.83-.46,1.73-.78,2.64-1.09,1.6-.54,2.4-1.63,2.37-3.32,0-.45,.09-.62,.56-.68,2.3-.31,4.58-.31,6.87,.05,.23,.04,.26,.12,.26,.32,0,.38-.02,.77,.06,1.15,.24,1.16,.91,1.98,2.02,2.37,1.18,.42,2.34,.89,3.47,1.44,1.28,.62,2.61,.35,3.68-.7q.52-.5,1.1-.06c1.76,1.34,3.3,2.9,4.61,4.68,.07,.09,.13,.19,.19,.29,.03,.04,.07,.08,.1,.13Z"/>
        <path class="cls-5" d="M70.65,227.57c.01,1.55-.17,3.08-.43,4.6-.11,.62-.37,.83-.99,.83-.44,0-.87,0-1.31,0-.76,.02-1.26,.38-1.51,1.1-.41,1.19-.88,2.34-1.44,3.47-.33,.67-.22,1.3,.29,1.85,.31,.33,.64,.64,.96,.97,.4,.41,.43,.75,.11,1.21-1.79,2.62-3.99,4.83-6.61,6.62-.48,.33-.82,.3-1.25-.13-.32-.32-.63-.65-.97-.96-.53-.49-1.16-.6-1.81-.28-1.12,.56-2.28,1.04-3.46,1.45-.74,.26-1.1,.77-1.12,1.55,0,.44-.01,.87,0,1.31,.02,.52-.22,.83-.72,.93-2.05,.39-4.12,.56-6.21,.42-1-.07-2-.19-2.99-.36-.79-.13-.99-.35-.99-1.16,0-.37,0-.74,0-1.11-.01-.82-.37-1.32-1.14-1.59-1.17-.4-2.31-.87-3.42-1.42-.7-.35-1.32-.23-1.88,.31-.33,.31-.65,.64-.96,.96-.35,.35-.74,.39-1.13,.12-2.67-1.81-4.91-4.06-6.72-6.72-.26-.38-.23-.76,.1-1.1,.33-.34,.67-.66,1-1,.54-.56,.65-1.19,.31-1.89-.55-1.11-1.02-2.25-1.42-3.42-.27-.77-.77-1.12-1.59-1.13-.44,0-.87,0-1.31,0-.5,.01-.79-.23-.89-.71-.41-2.07-.56-4.15-.42-6.26,.07-1,.19-2,.36-2.99,.13-.74,.36-.95,1.09-.96,.42,0,.84,.02,1.26,0,.72-.04,1.25-.37,1.48-1.07,.41-1.2,.89-2.37,1.46-3.51,.32-.64,.2-1.29-.29-1.81-.33-.35-.69-.69-1.03-1.04-.33-.34-.36-.72-.1-1.1,1.81-2.67,4.05-4.91,6.72-6.72,.4-.27,.79-.24,1.13,.11,.33,.33,.66,.67,1,.99,.54,.52,1.17,.62,1.85,.29,1.11-.55,2.25-1.02,3.42-1.42,.78-.27,1.13-.77,1.15-1.58,0-.44,.01-.87,0-1.31-.01-.52,.24-.82,.74-.91,2-.38,4.02-.54,6.06-.42,1.07,.06,2.14,.19,3.19,.38,.71,.13,.92,.36,.92,1.07,0,.4,0,.81,0,1.21,.02,.79,.37,1.3,1.11,1.56,1.19,.41,2.34,.88,3.46,1.45,.66,.33,1.3,.21,1.85-.31,.34-.32,.67-.66,1-1,.35-.35,.74-.36,1.14-.09,2.65,1.81,4.88,4.03,6.69,6.69,.27,.4,.25,.79-.1,1.14-.32,.32-.64,.64-.96,.96-.57,.59-.68,1.2-.31,1.93,.54,1.09,1.01,2.22,1.4,3.37,.27,.79,.78,1.15,1.63,1.16,.4,0,.81,0,1.21,0,.63,0,.89,.21,1,.82,.27,1.54,.45,3.09,.43,4.65Z"/>
        <path class="cls-10" d="M27.91,227.53c0-9.77,7.95-17.72,17.72-17.72,9.84,0,17.76,7.95,17.76,17.84,0,9.77-8,17.65-17.9,17.64-9.66,0-17.58-8.01-17.58-17.76Z"/>
        <path class="cls-10" d="M45.67,211.43c8.85,0,16.1,7.24,16.11,16.08,0,8.94-7.24,16.17-16.18,16.17-8.86,0-16.08-7.26-16.08-16.16,0-8.87,7.25-16.09,16.15-16.09Z"/>
        <path class="cls-3" d="M44.84,227.6c0,3.11,0,6.21,0,9.32,0,.46-.15,.79-.47,1.1-2.62,2.52-7.18,2.03-8.98-.97-.32-.54-.52-1.12-.6-1.74-.03-.22-.09-.35-.31-.46-2.28-1.17-3.48-4.31-1.65-6.72,.11-.15,.1-.24,0-.39-1.83-2.45-.57-5.55,1.68-6.71,.18-.09,.28-.17,.27-.41-.2-2.68,2.04-4.71,4.46-5.08,1.97-.31,3.68,.18,5.14,1.53,.33,.3,.47,.64,.47,1.11-.02,3.14,0,6.28,0,9.42Z"/>
        <path class="cls-3" d="M47.41,234c-.49,0-.97-.01-1.46,0-.24,0-.3-.07-.31-.31-.05-1.31-.05-1.39,1.26-1.28,1.15,.09,1.89-.27,2.58-1.22,1.08-1.51,.68-1.19,2.47-1.22,.69,0,1.38-.02,2.06,0,.34,.01,.52-.1,.69-.4,.5-.91,1.56-1.38,2.51-1.19,1.05,.22,1.84,1.04,1.95,2.03,.13,1.12-.4,2.1-1.38,2.55-1.14,.53-2.5,.09-3.11-1.04-.15-.28-.31-.36-.61-.35-.8,.02-1.61,.03-2.42,0-.35-.01-.55,.12-.75,.37-.4,.53-.84,1.04-1.24,1.58-.25,.34-.56,.5-.98,.48-.42-.02-.84,0-1.26,0Z"/>
        <path class="cls-3" d="M45.82,221.87q0-.76,.75-.76c.77,0,1.55,.01,2.32,0,.37,0,.64,.13,.87,.41,.46,.58,.93,1.14,1.38,1.73,.16,.21,.32,.3,.58,.29,.86-.02,1.71-.02,2.57,0,.27,0,.4-.07,.53-.32,.57-1.1,1.81-1.57,2.95-1.17,1.11,.39,1.79,1.59,1.57,2.73-.23,1.2-1.31,2.05-2.55,1.97-.86-.06-1.54-.48-1.94-1.24-.16-.31-.34-.38-.65-.37-1.01,.02-2.02,0-3.02,.01-.43,0-.73-.15-.98-.48-.43-.56-.88-1.1-1.31-1.66-.15-.2-.31-.3-.58-.29-.65,.02-1.31-.02-1.96,.02-.4,.02-.6-.07-.52-.51,.02-.11,0-.23,0-.35Z"/>
        <path class="cls-3" d="M47.04,215.46c1.1-.28,1.79,.24,2.3,1.15,.18,.32,.45,.59,.64,.9,.19,.32,.44,.38,.79,.37,.38-.01,.29-.31,.37-.5,.42-1.01,1.44-1.64,2.53-1.52,1.08,.11,1.93,.96,2.13,2.1,.16,.98-.44,2.07-1.39,2.5-.98,.45-2.14,.21-2.82-.64-.23-.29-.47-.4-.81-.35-.98,.17-1.69-.19-2.13-1.08-.54-1.09-1.38-1.6-2.61-1.34-.31,.07-.39-.07-.39-.38,0-1.23-.01-1.23,1.2-1.23h.2Z"/>
        <path class="cls-3" d="M46.81,238.03c.61,.19,1.07-.15,1.42-.77,.23-.41,.56-.75,.82-1.14,.25-.37,.56-.56,1.02-.51,.13,.01,.27,0,.4,0,.51,.05,.88-.07,1.25-.49,.71-.82,1.9-.94,2.85-.41,.92,.51,1.4,1.57,1.17,2.6-.24,1.07-1.11,1.84-2.17,1.92-1.05,.08-2.07-.57-2.45-1.57-.06-.16,0-.44-.31-.44-.29,0-.57-.05-.78,.28-.38,.59-.83,1.14-1.24,1.71-.21,.3-.48,.44-.85,.43-.65-.01-1.31-.02-1.96,0-.27,0-.37-.08-.33-.34,.01-.08,0-.17,0-.25q0-1.03,1.16-1.03Z"/>
        <path class="cls-3" d="M47.31,225.94q-.85,0-.85-.86t.76-.75,.85,.86-.76,.75Z"/>
        <path class="cls-3" d="M49.68,228.38q0,.79-.77,.79t-.84-.82,.77-.79,.84,.82Z"/>
        <path class="cls-4" d="M43.23,227.41v4.08c0,1.68,0,3.36,0,5.04,0,.18,.02,.35-.15,.5-1.75,1.51-5.22,1.54-6.44-1.23-.17-.38-.2-.58,.27-.77,1.05-.44,1.64-1.28,1.8-2.42,.03-.23-.01-.35-.28-.32-.15,.02-.3,0-.45,0-.48-.02-.86-.06-1.05,.6-.24,.78-.99,.95-1.71,.54-1.87-1.06-2.18-3.26-.67-4.78,.48-.49,.49-.91,0-1.38-1.87-1.78-.75-4.17,.98-4.96,.87-.39,1.66,.23,1.83,.93,.07,.31,.21,.36,.47,.35,.23-.02,.48-.03,.7,0,.54,.09,.54-.23,.45-.59-.3-1.2-1.03-2.02-2.23-2.35-.32-.09-.39-.23-.36-.52,.08-.77,.4-1.41,.95-1.94,1.48-1.42,4.12-1.5,5.68-.17,.15,.13,.23,.26,.23,.46,0,2.3-.01,4.6,0,6.9,0,.3-.15,.35-.36,.42-1.18,.36-1.99,1.12-2.49,2.24-.12,.27-.13,.44,.21,.5,.03,0,.07,.01,.1,.02,.32,.1,.64,.3,.95,.29,.38,0,.32-.5,.54-.72,.29-.28,.56-.57,1.04-.73Z"/>
        <path class="cls-4" d="M56.75,231.58c-.43-.01-.79-.4-.78-.83,.01-.43,.4-.8,.82-.78,.44,.01,.77,.38,.76,.83-.01,.44-.37,.8-.81,.78Z"/>
        <path class="cls-4" d="M56.94,225.13c-.43,0-.8-.36-.81-.79-.01-.43,.35-.81,.77-.82,.44-.02,.84,.37,.84,.81,0,.43-.37,.8-.8,.8Z"/>
        <path class="cls-4" d="M54.2,218.27c0,.41-.36,.8-.78,.82-.43,.01-.8-.33-.82-.77-.02-.46,.34-.84,.79-.84,.42,0,.8,.37,.81,.79Z"/>
        <path class="cls-4" d="M54.2,236.81c0,.41-.36,.8-.78,.82-.43,.02-.8-.33-.82-.76-.02-.46,.34-.84,.79-.85,.42,0,.8,.37,.81,.79Z"/>
      </g>
    </g>
    <text class="cls-7" transform="translate(176.06 258.69)"><tspan x="0" y="0">Data</tspan></text>
    <text class="cls-7" transform="translate(158.8 110.82)"><tspan x="0" y="0">Collecte de </tspan><tspan x="12.66" y="14.4">la data</tspan></text>
    <text class="cls-7" transform="translate(300.45 262.64)"><tspan x="0" y="0">Data Labeling</tspan></text>
    <text class="cls-6" transform="translate(263.53 79.47) rotate(27.53)"><tspan x="0" y="0">C</tspan></text>
    <text class="cls-6" transform="translate(270.98 83.4) rotate(29.72)"><tspan x="0" y="0">r</tspan></text>
    <text class="cls-6" transform="translate(274.51 85.39) rotate(31.62)"><tspan x="0" y="0">é</tspan></text>
    <text class="cls-6" transform="translate(280.27 88.92) rotate(34.11)"><tspan x="0" y="0">a</tspan></text>
    <text class="cls-6" transform="translate(286.33 93.06) rotate(36.09)"><tspan x="0" y="0">t</tspan></text>
    <text class="cls-6" transform="translate(289.54 95.41) rotate(37.27)"><tspan x="0" y="0">i</tspan></text>
    <text class="cls-6" transform="translate(291.67 96.99) rotate(38.97)"><tspan x="0" y="0">o</tspan></text>
    <text class="cls-6" transform="translate(297.09 101.37) rotate(41.44)"><tspan x="0" y="0">n</tspan></text>
    <text class="cls-6" transform="translate(302.31 106.02) rotate(43.19)"><tspan x="0" y="0"> </tspan></text>
    <text class="cls-6" transform="translate(304.43 107.96) rotate(45.01)"><tspan x="0" y="0">d</tspan></text>
    <text class="cls-6" transform="translate(309.63 113.17) rotate(47.52)"><tspan x="0" y="0">e</tspan></text>
    <text class="cls-6" transform="translate(314.18 118.17) rotate(49.23)"><tspan x="0" y="0"> </tspan></text>
    <text class="cls-6" transform="translate(316.09 120.39) rotate(50.23)"><tspan x="0" y="0">l</tspan></text>
    <text class="cls-6" transform="translate(317.8 122.39) rotate(52.01)"><tspan x="0" y="0">a</tspan></text>
    <text class="cls-6" transform="translate(322.32 128.23) rotate(53.85)"><tspan x="0" y="0"> </tspan></text>
    <text class="cls-6" transform="translate(324.05 130.53) rotate(55.67)"><tspan x="0" y="0">d</tspan></text>
    <text class="cls-6" transform="translate(328.19 136.6) rotate(58.29)"><tspan x="0" y="0">a</tspan></text>
    <text class="cls-6" transform="translate(332.04 142.89) rotate(60.3)"><tspan x="0" y="0">t</tspan></text>
    <text class="cls-6" transform="translate(334.02 146.3) rotate(62.3)"><tspan x="0" y="0">a</tspan></text>
    <text class="cls-6" transform="translate(337.43 152.86) rotate(64.12)"><tspan x="0" y="0"> </tspan></text>
    <text class="cls-6" transform="translate(338.69 155.46) rotate(65.14)"><tspan x="0" y="0"> </tspan></text>
    <text class="cls-6" transform="translate(339.91 158.09) rotate(66.16)"><tspan x="0" y="0"> </tspan></text>
    <text class="cls-6" transform="translate(341.08 160.75) rotate(67.18)"><tspan x="0" y="0"> </tspan></text>
    <text id="bn" class="cls-8" transform="translate(123.13 379.51) rotate(25.54)"><tspan x="0" y="0">L</tspan></text>
    <text class="cls-8" transform="translate(127.56 381.65) rotate(23.37)"><tspan x="0" y="0">a</tspan></text>
    <text class="cls-8" transform="translate(134.56 384.67) rotate(20.79)"><tspan x="0" y="0">b</tspan></text>
    <text class="cls-8" transform="translate(141.72 387.38) rotate(18.27)"><tspan x="0" y="0">e</tspan></text>
    <text class="cls-8" transform="translate(148.35 389.54) rotate(16.57)"><tspan x="0" y="0">l</tspan></text>
    <text class="cls-8" transform="translate(151.03 390.34) rotate(15.6)"><tspan x="0" y="0">l</tspan></text>
    <text class="cls-8" transform="translate(153.71 391.08) rotate(14.62)"><tspan x="0" y="0">i</tspan></text>
    <text class="cls-8" transform="translate(156.42 391.81) rotate(13.09)"><tspan x="0" y="0">s</tspan></text>
    <text class="cls-8" transform="translate(162.17 393.17) rotate(10.68)"><tspan x="0" y="0">a</tspan></text>
    <text class="cls-8" transform="translate(169.68 394.55) rotate(8.58)"><tspan x="0" y="0">t</tspan></text>
    <text class="cls-8" transform="translate(173.75 395.16) rotate(7.34)"><tspan x="0" y="0">i</tspan></text>
    <text class="cls-8" transform="translate(176.5 395.54) rotate(5.53)"><tspan x="0" y="0">o</tspan></text>
    <text class="cls-8" transform="translate(183.73 396.24) rotate(2.9)"><tspan x="0" y="0">n</tspan></text>
    <text class="cls-8" transform="translate(190.93 396.57) rotate(1.03)"><tspan x="0" y="0"> </tspan></text>
    <text class="cls-8" transform="translate(193.99 396.66) rotate(-.81)"><tspan x="0" y="0">e</tspan></text>
    <text class="cls-8" transform="translate(200.98 396.53) rotate(-2.85)"><tspan x="0" y="0">t</tspan></text>
    <text class="cls-8" transform="translate(205.09 396.32) rotate(-4.17)"><tspan x="0" y="0"> </tspan></text>
    <text class="cls-8" transform="translate(208.12 396.14) rotate(-6.13)"><tspan x="0" y="0">V</tspan></text>
    <text class="cls-8" transform="translate(215.72 395.31) rotate(-8.84)"><tspan x="0" y="0">é</tspan></text>
    <text class="cls-8" transform="translate(222.63 394.21) rotate(-10.92)"><tspan x="0" y="0">r</tspan></text>
    <text class="cls-8" transform="translate(226.78 393.4) rotate(-12.22)"><tspan x="0" y="0">i</tspan></text>
    <text class="cls-8" transform="translate(229.5 392.82) rotate(-13.42)"><tspan x="0" y="0">f</tspan></text>
    <text class="cls-8" transform="translate(233.11 391.95) rotate(-14.63)"><tspan x="0" y="0">i</tspan></text>
    <text class="cls-8" transform="translate(235.84 391.27) rotate(-16.43)"><tspan x="0" y="0">c</tspan></text>
    <text class="cls-8" transform="translate(242.43 389.34) rotate(-19.12)"><tspan x="0" y="0">a</tspan></text>
    <text class="cls-8" transform="translate(249.63 386.8) rotate(-21.31)"><tspan x="0" y="0">t</tspan></text>
    <text class="cls-8" transform="translate(253.46 385.3) rotate(-22.6)"><tspan x="0" y="0">i</tspan></text>
    <text class="cls-8" transform="translate(256.06 384.26) rotate(-24.46)"><tspan x="0" y="0">o</tspan></text>
    <text class="cls-8" transform="translate(262.67 381.25) rotate(-27.16)"><tspan x="0" y="0">n</tspan></text>
    <text class="cls-8" transform="translate(269.06 377.93) rotate(-29.06)"><tspan x="0" y="0"> </tspan></text>
    <text class="cls-9" transform="translate(34.79 188.39) rotate(-75.14)"><tspan x="0" y="0">C</tspan></text>
    <text class="cls-9" transform="translate(36.76 180.99) rotate(-72.68)"><tspan x="0" y="0">o</tspan></text>
    <text class="cls-9" transform="translate(38.65 174.93) rotate(-70.44)"><tspan x="0" y="0">n</tspan></text>
    <text class="cls-9" transform="translate(40.78 168.96) rotate(-68.42)"><tspan x="0" y="0">s</tspan></text>
    <text class="cls-9" transform="translate(42.7 164.14) rotate(-66.88)"><tspan x="0" y="0">t</tspan></text>
    <text class="cls-9" transform="translate(44.11 160.83) rotate(-65.6)"><tspan x="0" y="0">r</tspan></text>
    <text class="cls-9" transform="translate(45.61 157.47) rotate(-63.83)"><tspan x="0" y="0">u</tspan></text>
    <text class="cls-9" transform="translate(48.4 151.79) rotate(-61.67)"><tspan x="0" y="0">c</tspan></text>
    <text class="cls-9" transform="translate(51.27 146.5) rotate(-59.98)"><tspan x="0" y="0">t</tspan></text>
    <text class="cls-9" transform="translate(53.1 143.36) rotate(-58.91)"><tspan x="0" y="0">i</tspan></text>
    <text class="cls-9" transform="translate(54.32 141.28) rotate(-57.36)"><tspan x="0" y="0">o</tspan></text>
    <text class="cls-9" transform="translate(57.73 135.95) rotate(-55.13)"><tspan x="0" y="0">n</tspan></text>
    <text class="cls-9" transform="translate(61.38 130.75) rotate(-53.54)"><tspan x="0" y="0"> </tspan></text>
    <text class="cls-9" transform="translate(62.93 128.62) rotate(-51.99)"><tspan x="0" y="0">e</tspan></text>
    <text class="cls-9" transform="translate(66.74 123.77) rotate(-50.26)"><tspan x="0" y="0">t</tspan></text>
    <text class="cls-9" transform="translate(69.05 121) rotate(-49.15)"><tspan x="0" y="0"> </tspan></text>
    <text class="cls-9" transform="translate(70.75 119) rotate(-47.6)"><tspan x="0" y="0">e</tspan></text>
    <text class="cls-9" transform="translate(74.88 114.47) rotate(-45.38)"><tspan x="0" y="0">n</tspan></text>
    <text class="cls-9" transform="translate(79.35 109.97) rotate(-43.61)"><tspan x="0" y="0">t</tspan></text>
    <text class="cls-9" transform="translate(81.96 107.49) rotate(-42.32)"><tspan x="0" y="0">r</tspan></text>
    <text class="cls-9" transform="translate(84.67 104.99) rotate(-40.46)"><tspan x="0" y="0">a</tspan></text>
    <text class="cls-9" transform="translate(89.79 100.65) rotate(-38.84)"><tspan x="0" y="0">i</tspan></text>
    <text class="cls-9" transform="translate(91.67 99.11) rotate(-37.27)"><tspan x="0" y="0">n</tspan></text>
    <text class="cls-9" transform="translate(96.7 95.28) rotate(-35.05)"><tspan x="0" y="0">e</tspan></text>
    <text class="cls-9" transform="translate(101.69 91.71) rotate(-32.14)"><tspan x="0" y="0">m</tspan></text>
    <text class="cls-9" transform="translate(110.36 86.33) rotate(-29.25)"><tspan x="0" y="0">e</tspan></text>
    <text class="cls-9" transform="translate(115.73 83.31) rotate(-27.03)"><tspan x="0" y="0">n</tspan></text>
    <text class="cls-9" transform="translate(121.39 80.45) rotate(-25.29)"><tspan x="0" y="0">t</tspan></text>
    <text class="cls-9" transform="translate(124.66 78.91) rotate(-24.19)"><tspan x="0" y="0"> </tspan></text>
    <text class="cls-9" transform="translate(127.02 77.81) rotate(-22.57)"><tspan x="0" y="0">d</tspan></text>
    <text class="cls-9" transform="translate(133.24 75.24) rotate(-20.31)"><tspan x="0" y="0">’</tspan></text>
    <text class="cls-9" transform="translate(135.26 74.48) rotate(-20.24)"><tspan x="0" y="0">I</tspan></text>
    <text class="cls-9" transform="translate(137.54 73.61) rotate(-18.64)"><tspan x="0" y="0">A</tspan></text>
  </g>
</svg>