<?xml version="1.0" encoding="UTF-8"?>
<svg id="Calque_2" data-name="Calque 2" xmlns="http://www.w3.org/2000/svg" viewBox="0 0 1969.16 759.56">
  <defs>
    <style>
      .cls-1 {
        fill: #fff;
      }

      .cls-2 {
        fill: #fff;
      }

      .cls-3 {
        fill: #fff;
      }

      .cls-4 {
        fill: #fff;
      }

      .cls-5 {
        fill: #fff;
      }

      .cls-6 {
        fill: #fff;
      }

      .cls-7 {
        fill: #fff;
      }

      .cls-8 {
        fill: #fff;
      }

      .cls-9 {
        fill: #fff;
      }
    </style>
  </defs>
  <g id="Calque_1-2" data-name="Calque 1">
    <g>
      <path class="cls-7" d="M157.4,576.2c6.01-14.14,11.65-27.41,17.29-40.68,17.89-42.02,36.39-83.75,57.51-124.28,1.6-3.07,3.36-4.25,6.88-4.21,15.49,.21,30.98,.2,46.47,.01,3.6-.04,4.74,1.01,5.23,4.64,5.13,37.91,8.74,75.98,11.57,114.11,2.6,34.98,4.58,70.01,6.73,105.03,1.01,16.43,1.65,32.87,2.72,49.3,.23,3.56-.65,4.54-4.22,4.51-16.65-.17-33.31-.16-49.97,0-3.34,.03-4.53-.72-4.64-4.32-.77-26.26-1.68-52.51-2.76-78.75-1.42-34.38-3.45-68.73-6.44-103.02-.06-.74-.15-1.49-.36-3.6-6.57,15.17-12.65,29.11-18.65,43.08-15.32,35.7-30.65,71.39-45.82,107.15-1.31,3.08-2.76,4.26-6.17,4.19-11.15-.23-22.32-.29-33.47,.02-3.74,.1-5.15-1.42-6.47-4.52-19.35-45.37-38.79-90.7-58.23-136.03-1.69-3.95-3.44-7.88-6.21-11.85-.51,5.58-1.11,11.15-1.52,16.73-3.08,41.95-5.28,83.96-6.54,126.01-.41,13.63-1.1,27.24-1.47,40.87-.08,2.79-.36,4.09-3.72,4.05-17.15-.19-34.31-.16-51.47-.02-3.25,.03-3.83-1.11-3.67-4.08,2.91-53.28,5.95-106.56,9.98-159.77,2.71-35.81,6.36-71.53,10.84-107.17,.63-5.01,2.19-6.8,7.61-6.64,15.64,.46,31.31,.27,46.96,.09,3.61-.04,5.62,1.03,7.33,4.34,21.62,41.77,40.64,84.73,59,128,5.06,11.92,10.13,23.83,15.65,36.81Z"/>
      <path class="cls-7" d="M1160.36,206.96c-.44-9.95-.78-19.92-3.11-29.68-4.66-19.49-18.56-28.35-38.36-24.51-6.89,1.34-13.55,3.3-19.77,6.61-1.83,.97-3.19,1.79-2.33,4.55,3.72,11.9,3.82,24.27,3.88,36.56,.17,37.61,.04,75.23,.25,112.84,.02,4.31-1.36,5.21-5.37,5.15-15.65-.22-31.31-.24-46.96,.01-4.26,.07-5.61-.82-5.58-5.4,.22-36.61,.16-73.23,.09-109.84-.02-8.82-.88-17.59-2.84-26.22-3.79-16.66-14.12-24.89-31.17-25.07-6.52-.07-12.94,.99-19.41,1.3-4.46,.21-5.94,1.8-5.9,6.6,.28,28.96,.14,57.92,.14,86.88,0,22.3-.07,44.6,.08,66.9,.03,3.61-.79,4.9-4.67,4.85-16.32-.22-32.64-.16-48.96-.03-3.18,.03-4.25-.77-4.25-4.15,.1-65.24,.09-130.48,.01-195.72,0-2.64,.79-3.83,3.36-4.42,32.03-7.37,64.24-12.83,97.33-10.15,16.06,1.3,30.38,7,43.05,16.74,2.82,2.17,4.42,1.91,7.21,.15,28.12-17.79,58.51-22.31,90.39-13.41,26.68,7.45,41.35,26.47,46.74,53.1,2.69,13.25,3.54,26.68,3.56,40.17,.05,37.11,.02,74.23,.01,111.34q0,6.29-6.54,6.29c-15.32,0-30.64,.03-45.96-.04-1.57,0-3.32,.71-4.74-.63,.47-12.14,.16-24.29,.19-36.43,.06-22.97,.03-45.93,0-68.9,0-1.81,.36-3.66-.37-5.43Z"/>
      <path class="cls-7" d="M783.62,323.86c-30.42-.22-59.92-4.78-87.61-18.26-3.67-1.79-4.17-3.44-2.76-7.18,4.88-12.89,9.41-25.91,13.87-38.95,1.02-2.98,1.75-3.84,5.03-2.25,27.02,13.1,55.57,17.64,85.39,14.77,5-.48,9.84-1.59,14.54-3.31,9.74-3.56,16.58-9.77,18.13-20.52,1.63-11.25-1.53-20.85-10.7-27.87-13.01-9.96-28.39-15.04-43.58-20.42-13.16-4.66-26.31-9.4-38.55-16.18-29.35-16.27-43.95-40.86-40.81-74.75,2.97-32.12,20.52-53.59,49.92-65.78,20.44-8.48,41.96-9.79,63.72-8.84,22.72,.98,44.26,6.78,64.9,16.23,3.17,1.45,4.41,2.71,2.91,6.52-5.1,12.98-9.84,26.1-14.46,39.25-1.09,3.1-2.07,3.54-5.03,2.07-22.32-11.08-45.88-15.34-70.69-12.36-6.81,.82-13.49,2.17-19.36,5.97-12.33,7.99-13.89,26.49-3.12,37.52,6.17,6.32,13.92,10.23,22.01,13.38,19.34,7.53,39.1,14.02,57.77,23.22,18.02,8.88,34.45,20.14,41.4,39.81,10.84,30.7,10.85,60.87-11.07,87.56-12.5,15.22-30,22.13-48.71,26.24-14.19,3.12-28.61,4.31-43.15,4.12Z"/>
      <path class="cls-3" d="M424.39,470.66c.26-10.95,.44-21.91,.8-32.85,.91-28.08,1.89-56.16,2.86-84.24,.83-23.92,1.7-47.85,2.55-71.79,1.85-.52,2.34,1.1,3.15,1.9,20.78,20.71,46.35,31.76,74.74,37.19,2.88,.55,3.95,.07,4.42-3.14,1.82-12.49,3.96-24.94,6.2-37.37,.53-2.92-.7-3.22-3.03-3.65-15.53-2.89-30.17-8.05-42.87-17.78-18.88-14.47-28.11-34.48-32.55-57.14-4.14-21.12-3.5-42.35-.8-63.57,.24-1.87-.27-4.46,3.38-4.1,24.4,2.45,48.62,5.73,71.1,16.32,23.24,10.95,35.01,30.82,41.13,54.66,6.82,26.54,6.11,53.39,2.52,80.28-4.71,35.25-15.22,69.04-26.31,102.66-9.98,30.27-19.81,60.58-28.06,91.38-.3,1.11-.79,2.18-1.19,3.26-2.32,1.31-4.2-.18-6.04-1.12-16.35-8.39-33.82-11.56-52.03-11.52-4.36,0-8.58,.97-12.85,1.55-2.44,.33-4.96,1-7.12-.92Z"/>
      <path class="cls-7" d="M1511.19,474.61c-5.14,16.35-10.02,32.19-15.1,47.97-19.17,59.48-41.43,117.75-68.17,174.26-6.55,13.84-14.09,27.12-24.36,38.7-13.47,15.19-30.61,22.41-50.53,23.68-9.82,.62-19.63,.38-29.4-.95-3.37-.46-5.47-1.31-6.14-5.41-2.5-15.37-5.52-30.65-8.44-46.52,7.34,2.08,14.19,3.69,21.24,4.54,22.3,2.7,34.29-3.37,45.42-22.7,3.94-6.84,4.57-12.38,.7-20.08-30.48-60.66-55.29-123.6-74.19-188.83-.41-1.4-1.32-2.75-.73-4.67,19.36,0,38.82,.05,58.29-.05,3.13-.02,2.79,2.35,3.24,4.03,7.69,28.91,16.72,57.4,26.25,85.74,5.87,17.45,12.09,34.78,19.42,53.21,3.77-11.05,7.27-20.9,10.49-30.85,11.45-35.4,21.62-71.17,30.86-107.2,1.03-4.01,2.63-5.07,6.65-5,16.32,.26,32.64,.11,48.97,.11,1.63,0,3.27,0,5.53,0Z"/>
      <path class="cls-7" d="M1149.4,517.12c0-30.3,.08-60.6-.1-90.89-.02-3.86,1.19-5.03,4.88-5.58,15.95-2.37,31.87-4.97,47.76-7.72,3.96-.69,5.45-.2,5.38,4.37-.27,17.48,0,34.96-.19,52.44-.04,3.73,.69,5.03,4.8,4.99,21.15-.24,42.31-.03,63.46-.19,3.46-.03,4.52,.86,4.46,4.39-.21,12.81-.28,25.64,.02,38.45,.1,4.23-1.47,4.88-5.17,4.86-20.99-.14-41.98,.04-62.96-.16-3.87-.04-4.63,1.13-4.6,4.75,.16,24.64,.07,49.27,.09,73.91,0,5.51,.69,10.95,2.02,16.29,4.08,16.44,12.1,23.24,29.04,24.23,12.75,.74,25.24-1.26,37.41-4.97,3.22-.99,4.53-.83,5.12,2.82,2.03,12.46,4.32,24.88,6.63,37.3,.35,1.9,.35,3.02-1.74,3.79-28.91,10.68-58.45,13.26-88.15,4.7-26.55-7.65-40.58-26.94-45.28-53.59-2.14-12.16-2.84-24.43-2.86-36.75-.03-25.8-.01-51.61-.01-77.41Z"/>
      <path class="cls-7" d="M1635,55.09c13.75-2.32,27.5-4.65,41.25-6.97,3.61-.61,7.25-1.03,10.81-1.84,3.52-.8,4.6,.23,4.56,3.9-.17,17.14,.11,34.28-.19,51.41-.09,4.96,.87,6.7,6.33,6.6,20.64-.37,41.29-.06,61.93-.24,3.56-.03,4.4,.96,4.34,4.41-.21,12.97-.22,25.96,0,38.93,.06,3.61-1.04,4.27-4.46,4.25-21.14-.15-42.29-.02-63.43-.02-2.62,0-4.72-.26-4.68,3.72,.27,26.78,.25,53.56,.46,80.34,.03,3.29,.61,6.63,1.33,9.86,3.86,17.32,12.86,24.77,30.74,25.33,12.4,.39,24.57-1.49,36.37-5.19,3.48-1.09,4.15-.3,4.7,2.98,2.02,12.12,4.35,24.19,6.62,36.27,.43,2.3,.56,3.96-2.3,5.02-27.42,10.17-55.53,12.47-83.87,5.57-28.48-6.94-45.54-27.65-49.46-57.76-.86-6.58-2.01-13.14-1.88-19.82,.65-1.78,.33-3.62,.33-5.43,.02-58.65,.01-117.3,.04-175.94,0-1.79-.45-3.66,.46-5.38Z"/>
      <path class="cls-7" d="M983.91,501.62c0,32.79-.04,65.57,.03,98.36,.02,7.31,.31,14.61,2.2,21.76,2.41,9.12,7.58,13.4,17.04,13.73,2.65,.09,5.5,.42,7.94-.36,5.41-1.75,5.91,.68,5.82,5.17-.24,11.81-.09,23.63-.06,35.45,0,2.07,.08,3.86-2.57,4.61-18.97,5.38-37.81,6.23-55.98-2.65-21.33-10.42-30.25-28.84-31.98-51.55-1.76-23.1-.41-46.2-.26-69.3,.33-51.59,.17-103.18-.02-154.77-.02-4.53,1.02-6.25,5.67-6.9,15.97-2.23,31.9-4.78,47.76-7.62,4.39-.79,4.47,.93,4.46,4.26-.08,32.62-.05,65.24-.05,97.86,0,3.99,0,7.99,0,11.98Z"/>
      <path class="cls-7" d="M1465.24,218.41c0-31.63,.05-63.25-.08-94.88-.01-3.37,.86-4.82,4.23-5.91,29.51-9.58,59.55-15.48,90.74-13.53,12.46,.78,24.76,2.69,36.88,5.82,3.11,.8,3.83,1.9,3.13,5.12-2.91,13.3-5.58,26.66-8.1,40.04-.58,3.07-1.97,3.31-4.47,2.68-11.63-2.94-23.37-5.25-35.42-5.37-9.01-.09-17.9,.98-26.71,2.82-1.95,.41-2.63,1.56-2.58,3.56,.12,4.32,.04,8.65,.04,12.98,0,47.11-.07,94.21,.12,141.32,.02,4.57-1.33,5.5-5.6,5.43-15.65-.25-31.31-.24-46.97,0-4.08,.06-5.33-.98-5.3-5.2,.18-31.62,.1-63.25,.1-94.88Z"/>
      <path class="cls-7" d="M881.37,586.55c0,31.11-.06,62.22,.08,93.34,.02,3.54-.61,4.84-4.54,4.78-16.31-.25-32.63-.2-48.94-.03-3.36,.04-4.18-1.02-4.17-4.22,.08-62.72,.08-125.45,0-188.17,0-3.38,.78-4.59,4.4-4.55,16.31,.19,32.63,.2,48.94,0,3.64-.05,4.33,1.18,4.32,4.52-.12,31.44-.07,62.89-.07,94.33Z"/>
      <path class="cls-7" d="M1109.26,684.34c-17.81,.07-35.62,.11-53.43,.26-2.39,.02-3.39-.8-3.14-3.17,.09-.82,.01-1.66,.01-2.49,0-61.74,.06-123.48-.11-185.22-.01-4.77,1.1-6.16,5.99-6.05,15.65,.34,31.3,.09,46.96,.18,1.48,0,3.3-.99,4.49,.85-.53,1.79-.27,3.63-.27,5.45-.02,61.61,0,123.22-.04,184.83,0,1.79,.45,3.66-.46,5.38Z"/>
      <path class="cls-3" d="M500.94,110.49c-32.69-.15-56-22.61-56.17-54.14C444.6,24.58,469.26-.18,500.91,0c31.1,.18,54.76,24.67,54.63,56.56-.13,31.07-23.41,54.06-54.59,53.93Z"/>
      <path class="cls-7" d="M1573.48,581.21c0-34.13,.14-68.25-.14-102.38-.05-5.43,1.61-6.68,6.61-6.32,5.97,.43,12,.38,17.98,0,4.43-.28,5.82,.89,5.8,5.61-.2,46.28-.12,92.56-.12,138.83,0,13.98,.16,27.97-.1,41.95-.07,3.9,1.17,4.61,4.77,4.59,25.82-.15,51.64,.02,77.46-.18,4.04-.03,5.08,1.16,4.88,5-.31,5.98-.2,11.98-.03,17.97,.08,2.81-.86,3.74-3.71,3.73-36.48-.08-72.96-.12-109.44,.04-4.17,.02-3.98-2.12-3.98-4.98,.04-31.46,.03-62.93,.03-94.39v-9.49Z"/>
      <path class="cls-2" d="M261.57,183.12c36.98,0,73.95,.05,110.93-.08,3.78-.01,5.67,.73,4.99,4.86-.3,1.79-.26,3.64-.38,5.46q-.72,11.01-11.5,11.01c-71.45,0-142.91-.05-214.36,.09-4.46,0-6.32-.94-5.73-5.65,.64-5.05-2.11-11.66,1.14-14.84,3-2.94,9.51-.82,14.47-.83,33.48-.06,66.96-.03,100.44-.03Z"/>
      <path class="cls-7" d="M1081.28,390.7c20.27-.03,34.85,14.33,34.84,34.31-.01,20.33-14.31,34.11-35.42,34.17-19.7,.05-34.04-14.52-33.99-34.53,.05-19.8,14.44-33.92,34.57-33.96Z"/>
      <path class="cls-7" d="M852.26,390.7c20.32-.06,34.88,14.18,34.94,34.19,.06,19.74-14.56,34.37-34.27,34.3-20.93-.08-34.96-13.67-34.98-33.9-.02-20.48,13.91-34.53,34.31-34.59Z"/>
      <path class="cls-1" d="M315.48,130.85c24.79,0,49.57,.07,74.36-.08,3.45-.02,4.66,.75,4.3,4.33-.43,4.28-.48,8.63-.33,12.94,.11,3.3-1.15,4.04-4.31,4.03-29.61-.12-59.22-.07-88.83-.07-20.29,0-40.59-.07-60.88,.07-3.19,.02-4.39-.71-4.16-4.07,.3-4.3,.33-8.66,0-12.96-.29-3.69,1.18-4.28,4.5-4.26,25.12,.13,50.24,.07,75.36,.08Z"/>
      <path class="cls-5" d="M313.53,235.74c24.3,0,48.59,.08,72.89-.09,3.68-.03,5.27,.87,4.69,4.66-.25,1.63-.22,3.31-.31,4.97-.22,3.76,1.5,8.89-1.09,10.88-2.44,1.87-7.31,.68-11.11,.68-45.93,.02-91.86-.04-137.79,.11-4.08,.01-5.65-.83-5.17-5.1,.59-5.23-2.15-12.27,1.09-15.27,2.83-2.6,9.77-.83,14.9-.84,20.63-.04,41.27-.02,61.9-.02Z"/>
      <path class="cls-6" d="M1109.26,684.34c0-63.46,0-126.92,.02-190.38,0-1.77-.58-3.68,.74-5.28,.08,1.49,.22,2.98,.22,4.47,.01,62.08,.02,124.17-.05,186.25,0,1.61,1.12,3.64-.93,4.94Z"/>
      <path class="cls-8" d="M1635,55.09c0,60.34,0,120.67-.03,181.01,0,1.92,.69,4.01-.8,5.75-.06-14.94-.15-29.88-.16-44.82-.02-45.66-.02-91.33,.05-136.99,0-1.62-1.1-3.64,.94-4.95Z"/>
      <path class="cls-9" d="M1160.36,206.96c1.28,1.21,.86,2.79,.86,4.24,.02,34.23,.02,68.47,0,102.7,0,1.3,.29,2.68-.68,3.82-.1-2.15-.29-4.3-.29-6.45,.02-34.77,.07-69.54,.11-104.31Z"/>
      <path class="cls-7" d="M779.43,536.31c-4.65-17.88-13.16-33.76-27.42-45.98-23.26-19.93-50.57-22.6-79.44-18.16-8.53,1.31-16.54,4.56-25.09,7.77v-93.06c-18.13,2.94-35.8,5.91-53.53,8.58-3.34,.5-4.36,1.58-4.36,4.96,.09,91.38,.09,182.75,0,274.13,0,2.94,.98,4.12,3.65,4.75,34.65,8.15,69.64,14.06,105.23,8.88,38.44-5.6,66.13-26.05,79.27-63.45,10.24-29.14,9.37-58.85,1.67-88.42Zm-60.31,77.58c-7.41,17.34-21.3,26.26-40.12,27.39-9.34,.56-18.6-.48-27.87-1.53-3.12-.35-3.72-1.53-3.7-4.37,.11-17.48,.06-34.96,.06-52.44,0-17.15,.04-34.29-.04-51.44-.01-2.52,.27-4.43,2.87-5.65,14.28-6.65,29.07-9.42,44.62-5.69,12.26,2.94,20.84,10.76,25.11,22.26,8.84,23.8,9.14,47.92-.93,71.46Z"/>
      <path class="cls-7" d="M549.14,557.64c-4.57-30.59-18.43-55.94-45.13-73.13-.65-.42-1.05-1.22-1.57-1.84-1.07-.41-2.19-.71-3.19-1.26-15.91-8.7-33-12.43-51.06-12.74-8.05-.14-15.83,1.83-23.81,1.99-1.36,1.45-3.3,1.45-5.02,1.92-26.79,7.43-47.38,22.89-60.76,47.39-15.39,28.16-17.52,58.23-11.19,89.04,5.68,27.63,19.42,50.43,43.65,65.88,22.15,14.12,46.63,17.82,72.29,14.51,34.09-4.4,59.66-21.49,75.08-52.46,12.51-25.11,14.76-52,10.68-79.3Zm-63.91,58.25c-7.15,16.28-19.41,25.54-37.58,25.49-18.11-.04-30.94-9.06-37.6-25.48-10.04-24.79-9.92-49.93,.79-74.63,2.41-5.54,5.66-10.9,11.48-13.87,1.46,1.12,1,2.7,.92,4.15-.56,10.95,.36,21.93-1.05,32.87-.55,4.26-.08,8.63-.1,12.96-.01,3.01,1.14,4.65,4.39,4.65,12.97,0,25.95,.02,38.92,0,3.28,0,4.58-2.05,5.67-4.67,3.98-9.52,7.31-19.27,10.75-28.99,.66-1.86,.92-3.93,2.87-5.05,4.44,6.36,5.44,13.82,6.3,21.18,2.03,17.54,1.48,34.91-5.76,51.4Z"/>
      <path class="cls-4" d="M484.69,543.31c-3.55,12.98-8.61,25.42-13.54,37.91-.77,1.96-1.85,2.79-4.04,2.78-14.64-.09-29.28-.06-43.91-.04-1.95,0-2.96-.36-2.85-2.79,.75-17.92,1.34-35.84,1.98-53.76,4.52-5.11,10.67-7.45,17.02-8.31,18.68-2.53,33.39,2.14,43.78,20.09,.77,1.33,1.36,2.63,1.57,4.13Z"/>
      <path class="cls-7" d="M1426.27,188.67c0-8.83-.7-17.59-2.14-26.31-4.25-25.72-17.76-43.94-42.66-53.08-9.6-3.52-19.57-5.4-29.7-6.15-27.44-2.03-54.42,1.12-81.11,7.58-4.26,1.03-5.12,2.7-4.41,6.69,2.13,11.93,4.14,23.9,5.77,35.91,.53,3.86,1.48,4.52,5.2,3.4,18.65-5.61,37.83-7.26,57.22-6.57,6.66,.24,13.22,1.49,19.34,4.35,12.73,5.96,19.08,20.15,16.97,37.76-23.26-4.78-46.59-5.07-69.82-.2-34.01,7.13-56.26,27.56-55.37,64.56,.75,31.02,15.65,51.34,45.37,60.44,10.89,3.34,22.1,4.73,33.4,5.31,32.94,1.69,65.37-2.31,97.58-8.9,4.05-.83,4.41-2.65,4.4-5.98-.08-39.6-.06-79.21-.04-118.81Zm-58.39,88.88c-15.07,1.14-30.16,2.86-45.13-.66-13.06-3.07-19.41-10.31-19.74-22.1-.37-13.59,5.59-22.08,18.65-25.72,12.69-3.53,25.67-3.16,38.59-1.66,10.92,1.27,10.89,1.54,10.89,12.49,0,4.49,0,8.97,0,13.46,0,6.65-.13,13.3,.06,19.94,.07,2.61-.57,4.05-3.31,4.25Z"/>
      <path class="cls-7" d="M1962.83,583c-8.53-24.12-26.01-37.84-51.73-40.76-14.29-1.63-27.75,1.1-41.36,7.51v-6.26c0-23.47-.12-46.94,.11-70.4,.04-4.39-1.48-4.95-5.15-4.2-6.35,1.29-12.71,2.7-19.14,3.35-4.19,.43-4.93,2.1-4.93,5.94,.12,59.25,.09,118.51,.09,177.76,0,8.65,.07,17.31-.04,25.96-.03,2.5,.5,3.86,3.26,4.54,21.13,5.14,42.44,8.67,64.22,5.9,22.87-2.91,40.99-13.73,51.51-34.74,12.12-24.22,12.03-49.52,3.16-74.59Zm-25.44,48.6c-4.79,24.88-22.2,37.59-48.33,35.57-5.13-.4-10.22-1.25-15.35-1.68-3.15-.26-4.09-1.63-4.04-4.78,.18-13.3,.07-26.6,.07-39.91,0-13.14,.03-26.27-.03-39.41-.01-2.27,.18-4.07,2.47-5.43,11.9-7.08,24.55-10.1,38.21-6.95,13.28,3.05,21.17,12.03,24.98,24.63,3.75,12.42,4.48,25.21,2.02,37.97Z"/>
      <path class="cls-7" d="M1816.33,643.46c-.18-18.79,.74-37.6-.45-56.37-1.35-21.36-12.96-37.06-32.03-42.36-21.31-5.92-42.5-3.49-63.47,2.48-2.34,.67-3.14,1.7-2.7,4.26,1,5.89,1.74,11.84,2.37,17.78,.34,3.19,1.37,3.62,4.47,2.62,13.11-4.25,26.61-5.76,40.35-4.37,11.11,1.12,19.12,8.16,21.74,18.99,1.3,5.36,1.65,10.82,1.04,16.98-15.24-3.62-30.2-3.91-45.32-.97-30.07,5.85-45.17,28.08-38.11,57.23,4.66,19.24,18.59,28.5,37.04,31.53,24.33,4,48.39,.1,72.41-3.58,3.03-.46,2.67-2.32,2.67-4.29,0-13.31,.1-26.62-.02-39.93Zm-31.68,23.58c-12.1,.77-24.22,2.08-36.22-.68-10.88-2.51-15.6-8-16.36-18.42-.72-9.86,3.66-16.88,13.94-20.39,12.9-4.4,26.13-3.79,39.36-1.15,2.55,.51,2.56,2.07,2.54,3.99-.04,5.48-.01,10.97-.01,16.45s-.14,10.64,.06,15.95c.1,2.58-.52,4.07-3.3,4.25Z"/>
    </g>
  </g>
</svg>