<?xml version="1.0" encoding="UTF-8"?>
<svg id="Calque_2" data-name="Calque 2" xmlns="http://www.w3.org/2000/svg" viewBox="0 0 266.99 168.8">
  <defs>
    <style>
      .cls-1 {
        fill: none;
      }

      .cls-2 {
        fill: #fff;
      }

      .cls-3 {
        fill: #fff;
      }
    </style>
  </defs>
  <g id="Calque_1-2" data-name="Calque 1">
    <g id="WZV2q1.tif">
      <g>
        <path class="cls-3" d="M80.66,40.85c0-7.47-.01-14.95,0-22.42,0-3.93,2.3-7.11,6.15-7.95,10.37-2.27,20.76-4.39,31.15-6.55,5.11-1.06,10.28-1.91,15.34-3.19,5.01-1.26,9.86-.76,14.76,.36,13.01,2.96,26.03,5.9,39.06,8.8,3.95,.88,6.64,4.02,6.62,8.17-.13,22.16-.28,44.33-.45,66.49-.03,3.82-2.62,7.08-6.52,8.13-11.05,2.98-22.12,5.88-33.18,8.82-3.52,.94-7.11,1.73-10.54,2.93-7.2,2.52-14.01,.9-20.94-1.25-10.94-3.38-21.95-6.5-32.96-9.63-5.52-1.56-7.91-4.41-7.88-10.15,.07-14.19-.81-28.37-.6-42.57Zm55.71,24.3h.03c0,11.21,0,22.42,0,33.63,0,3.07,.27,3.19,3.34,2.36,7.03-1.92,14.09-3.75,21.14-5.63,8.01-2.13,16.03-4.23,24.02-6.44,3.2-.88,4.44-2.44,4.46-5.46,.09-21.76,.16-43.51,.2-65.27,0-2.46-.5-2.75-2.84-2.18-3.62,.88-7.25,1.73-10.89,2.54-11.82,2.61-23.65,5.16-35.46,7.8-3.2,.72-4,1.92-4,5.27,0,11.13,0,22.25,0,33.38Zm-3.89,.28h-.03c0-10.95,0-21.9,0-32.86,0-3.96-1.43-5.74-5.25-6.65-12.96-3.09-25.92-6.18-38.87-9.3-3.55-.86-3.76-.76-3.72,3,.14,16.92,.31,33.84,.46,50.76,.04,4.48,.02,8.96,.07,13.44,.04,2.83,1.36,4.86,3.73,5.58,4.59,1.4,9.2,2.72,13.81,4.05,8.9,2.58,17.8,5.13,26.69,7.75,2.6,.77,3.11,.49,3.11-2.18,0-11.2,0-22.4,0-33.6ZM181.92,13.27c-1.26-1.02-2.43-1.13-3.55-1.37-8.4-1.86-16.79-3.8-25.21-5.55-5.24-1.09-10.42-3.18-15.88-2.34-5.39,.83-10.71,2.12-16.06,3.22-5.83,1.2-11.67,2.42-17.5,3.64-3.65,.76-7.29,1.55-11.59,2.47,.98,.35,1.27,.48,1.57,.55,7.78,1.94,15.56,3.89,23.35,5.82,4.01,.99,8.05,1.92,12.06,2.91,5.45,1.35,10.68-.05,15.93-1.2,7.2-1.58,14.41-3.1,21.61-4.68,4.98-1.09,9.94-2.25,15.26-3.47Z"/>
        <path class="cls-2" d="M31.11,155.23c0-3.49,0-6.97,0-10.46,0-.99-.17-2.25,1.24-2.27,1.16-.02,2.79-.85,3.34,1.11,.36,1.3,1,.97,1.82,.43,4.94-3.27,8.21-3.02,12.29,1.02,.87,.86,1.35,.53,2.01-.17,2.79-2.96,6.17-3.9,9.96-2.37,3.81,1.54,5.04,4.86,5.14,8.65,.14,5.06,.1,10.12,.2,15.18,.03,1.71-.97,1.83-2.26,1.8-1.44-.03-2.9,.22-2.85-2.03,.09-4.06,.04-8.13,.03-12.2,0-1.16-.04-2.32-.12-3.48-.16-2.21-1.17-3.82-3.44-4.3-2.3-.48-4.3,.07-5.67,2.12-.91,1.35-1.25,2.85-1.23,4.48,.05,4.4-.05,8.8,.06,13.19,.04,1.82-.7,2.25-2.37,2.24-1.69,0-2.62-.29-2.55-2.31,.14-4.06,.08-8.13,.04-12.2-.01-1.24-.06-2.51-.35-3.7-.76-3.18-2.82-4.41-6.16-3.87-2.87,.46-4.26,2.38-4.17,5.5,.13,4.72,.09,9.45,.24,14.18,.07,2.14-1.03,2.38-2.8,2.4-1.88,.03-2.47-.67-2.42-2.49,.11-3.48,.03-6.97,.03-10.45Z"/>
        <path class="cls-2" d="M13.96,168.54c-4.77-.01-8.41-1.11-11.39-4-.91-.89-1.65-1.86-1.96-3.11-.29-1.19-1.47-2.78,.54-3.29,1.51-.38,3.54-.89,4,1.86,.28,1.69,1.52,2.86,3.13,3.63,2.87,1.37,5.84,1.3,8.75,.46,2.02-.58,3.42-2.13,3.63-4.33,.21-2.1-.87-3.63-2.55-4.8-2.18-1.51-4.78-1.83-7.22-2.6-2.16-.68-4.2-1.52-6.05-2.84-4.84-3.47-5.2-9.43-.79-13.41,4.65-4.19,13.96-3.98,18.33,.44,1.12,1.13,2.16,2.37,2.45,3.97,.19,1.04,1.57,2.62-.51,3.02-1.5,.29-3.3,.87-4.06-1.81-1.38-4.82-8.83-6.51-12.62-3.11-2.49,2.24-2.24,5.66,.57,7.69,2.43,1.75,5.39,2.1,8.13,3.03,3.29,1.11,6.42,2.54,8.16,5.72,3.01,5.51-.43,11.81-7.05,13.07-1.38,.26-2.8,.33-3.49,.41Z"/>
        <path class="cls-2" d="M176.92,150.75c0-5.05,.03-10.11-.02-15.16-.01-1.48,.5-2.09,2.03-2.06,4.23,.07,8.47-.04,12.7,.08,6.14,.18,10.44,4.53,10.43,10.39,0,5.92-4.26,10.09-10.5,10.25-2.41,.06-4.82,.08-7.22,0-1.68-.05-2.42,.54-2.36,2.3,.1,3.06-.06,6.14,.07,9.2,.1,2.38-1.28,2.39-3.03,2.41-1.88,.01-2.32-.86-2.04-2.49,.07-.41,.08-.83,.08-1.24,0-4.56,0-9.12,0-13.68h-.14Zm4.91-6.9c0,1.49,.06,2.99-.02,4.47-.08,1.64,.67,2.21,2.23,2.16,2.4-.07,4.82,.05,7.22-.06,4.01-.19,6.73-4,5.75-7.88-.99-3.89-3.14-5.18-8.64-5.18q-6.53,0-6.54,6.5Z"/>
        <path class="cls-2" d="M239.4,157.8c.24,2.63-.4,5.71,.44,8.73,.2,.73-.03,1.52-.82,1.5-1.38-.04-3.27,.95-3.98-.92-.78-2.03-1.48-1.53-2.74-.52-2.93,2.34-6.29,2.51-9.65,1.22-3.07-1.18-4.57-4.33-4.16-7.99,.33-3,2.89-5.51,6.5-6.37,2.45-.59,4.95-.53,7.43-.46,1.5,.05,2.08-.57,2.09-2.05,.01-2.31-.77-4.03-3.07-4.84-2.36-.84-4.96-.17-6.29,1.62-.52,.7-.63,1.88-1.79,1.85-1.18-.04-2.72,.7-3.46-.57-.64-1.09,.35-2.22,1-3.13,3.39-4.75,12.06-5.41,16.23-1.32,1.66,1.63,2.25,3.62,2.28,5.85,.02,2.32,0,4.64,0,7.38Zm-12.06,6.63c4.5,.02,7.59-2.75,7.32-6.38-.07-.88-.15-1.76-1.26-1.76-2.06,0-4.16-.14-6.17,.21-2.51,.44-4.29,2.92-3.89,4.98,.44,2.25,1.98,3.1,4.01,2.95Z"/>
        <path class="cls-2" d="M93.54,157.11c.23,2.89-.43,6.23,.55,9.49,.22,.74-.07,1.48-.88,1.45-1.4-.04-3.38,.88-4-.94-.8-2.36-1.56-1.28-2.69-.45-4.16,3.06-10.34,2.37-12.68-1.37-3.04-4.87-.44-10.53,5.41-11.84,2.38-.53,4.79-.55,7.19-.44,1.76,.09,2.37-.63,2.32-2.33-.07-2.24-.99-3.8-3.14-4.56-2.41-.85-4.84-.19-6.28,1.66-.45,.58-.55,1.57-1.35,1.7-1.27,.2-2.84,.73-3.77-.37-.9-1.06,.18-2.2,.81-3.11,3.25-4.66,11.48-5.6,15.82-1.89,1.74,1.49,2.72,3.29,2.69,5.62-.03,2.32,0,4.64,0,7.37Zm-11.69,7.32c2.57,0,5-1.16,6.28-2.97,1.24-1.74,.77-5.09-.77-5.18-1.82-.1-3.67-.14-5.47,.1-2.65,.35-4.52,2.63-4.33,4.94,.17,2.09,1.58,3.12,4.29,3.11Z"/>
        <path class="cls-2" d="M245.98,155.17c0-3.56,0-7.13,0-10.69,0-.89-.16-2.04,1.2-1.99,1.12,.04,2.7-.74,3.17,1.02,.55,2.06,1.36,.97,2.22,.32,3.07-2.33,6.4-2.59,9.85-1.03,3.2,1.44,4.33,4.32,4.44,7.5,.19,5.3,.05,10.61,.12,15.92,.03,2.06-1.32,1.87-2.69,1.94-1.53,.08-2.29-.35-2.27-2.06,.08-4.81,.11-9.62,0-14.42-.05-2.16-.33-4.51-2.85-5.29-2.57-.8-5.07-.6-7.14,1.52-.9,.92-1.12,1.96-1.12,3.16,.02,4.73-.03,9.45,.05,14.18,.03,1.79-.08,2.97-2.45,2.97-2.24,0-2.63-.92-2.56-2.84,.12-3.4,.03-6.8,.03-10.2Z"/>
        <path class="cls-2" d="M146.25,156.32c-2.16,0-4.32,.02-6.47-.01-1.53-.02-2.04,.55-1.74,2.13,1.16,6.19,6.2,7.63,11.84,5.02,1.29-.6,2.18-1.38,3.17,.43,1.02,1.84-.26,2.38-1.39,3.03-8.43,4.88-18.08-.16-18.81-9.88-.36-4.82,.6-9.25,4.5-12.59,3.38-2.9,7.25-3.29,11.18-1.69,3.8,1.54,5.6,4.75,5.85,8.8,.29,4.76,.26,4.76-4.39,4.76-1.24,0-2.49,0-3.73,0Zm-2.5-3.65c1.32,0,2.64-.06,3.96,.01,1.92,.11,2.25-.8,1.84-2.46-.65-2.63-2.64-4.5-5.11-4.64-2.45-.14-4.87,1.67-5.9,4.44-.82,2.2-.55,2.62,1.75,2.65,1.15,.01,2.31,0,3.47,0Z"/>
        <path class="cls-2" d="M118.68,155.41c0-2.4-.04-4.8,0-7.21,.03-1.43-.46-2.25-2.01-2.08-1.48,.16-2.12-.44-2.1-1.96,.02-1.5,.81-1.82,2.08-1.72,2.75,.21,1.92-1.85,2-3.25,.08-1.45-.41-2.99,2.06-3.02,2.18-.03,3.07,.6,2.77,2.82-.3,2.23-.03,4.03,3.02,3.47,1.33-.24,1.97,.42,1.95,1.83-.01,1.4-.63,2.05-1.97,1.83-2.47-.39-3.16,.69-3.06,3.04,.17,3.89,.02,7.78,.06,11.68,.02,2.11,.58,3.83,3.27,3.6,1.2-.1,1.55,.67,1.67,1.69,.14,1.16-.24,1.84-1.44,2.19-4.32,1.26-8.13-1.41-8.29-5.95-.08-2.32-.01-4.64-.02-6.96Z"/>
        <path class="cls-2" d="M207.49,149.36c0-5.31,.08-10.63-.04-15.94-.04-2.01,.86-2.33,2.56-2.34,1.66,0,2.36,.4,2.35,2.23-.08,10.88-.07,21.75,0,32.63,.01,1.83-.71,2.23-2.36,2.23-1.75,0-2.57-.42-2.53-2.38,.11-5.48,.04-10.96,.04-16.44Z"/>
        <path class="cls-2" d="M100.23,155.06c0-3.48-.02-6.96,0-10.45,0-.86-.29-2.07,1.05-2.11,1.12-.03,2.68-.79,3.24,.88,.59,1.74,1.24,1.38,2.19,.37,.81-.86,1.82-1.39,2.99-1.69,1.08-.28,2.24-.62,3.01,.36,.8,1.02,0,2.23-.2,3.31-.23,1.25-1.43,.8-2.29,.82-3.34,.06-5.04,1.73-5.05,5.04-.01,4.64-.05,9.29,.03,13.93,.03,1.86-.48,2.67-2.53,2.67-2.07,0-2.53-.82-2.47-2.68,.11-3.48,.03-6.96,.03-10.44Z"/>
        <path class="cls-2" d="M159.53,155.2c0-3.56,0-7.12,0-10.68,0-.89-.19-2.03,1.16-2.04,1.21,0,2.9-.75,3.37,1.11,.46,1.84,1,1.22,1.82,.32,.85-.94,1.93-1.52,3.17-1.84,1.08-.28,2.23-.63,2.99,.37,.7,.92,.22,2.1,0,3.12-.3,1.37-1.5,.97-2.46,.98-3.32,.04-5.22,1.92-5.23,5.22-.01,4.72-.09,9.44,.04,14.16,.06,2.07-.97,2.22-2.6,2.25-1.74,.04-2.35-.55-2.3-2.29,.1-3.56,.03-7.12,.03-10.68Z"/>
        <path class="cls-1" d="M227.34,164.43c-2.02,.15-3.57-.69-4.01-2.95-.4-2.07,1.38-4.54,3.89-4.98,2.01-.35,4.11-.22,6.17-.21,1.11,0,1.2,.88,1.26,1.76,.27,3.63-2.82,6.39-7.32,6.38Z"/>
        <path class="cls-3" d="M93.08,38.5c0-2.66,.01-5.31,0-7.97,0-1.88,.99-2.63,2.72-2.19,4.01,1.02,7.98,2.19,11.98,3.22,1.59,.41,2.15,1.42,2.15,2.9,0,5.23,0,10.46,0,15.69,0,2.19-1.17,3.02-3.22,2.5-4.01-1.02-8-2.1-11.98-3.22-1.32-.37-1.69-1.42-1.67-2.72,.04-2.74,.01-5.48,.02-8.22Zm13.35,3.44q0-6.91-6.49-8.89c-.32-.1-.64-.15-.97-.22-1.62-.36-2.5,0-2.39,1.94,.13,2.39,.03,4.79,.03,7.19q0,4.09,3.82,5.27,6,1.85,6-4.3c0-.33,0-.66,0-.99Z"/>
        <path class="cls-3" d="M123.51,78.57c0,2.65,.05,5.3-.02,7.95-.06,2.31-1.13,3.02-3.37,2.47-3.45-.84-6.9-1.69-10.38-2.4-1.81-.37-2.77-1.14-2.74-3.13,.07-5.22,0-10.44,.03-15.66,.02-2.4,.78-3.02,3.05-2.52,3.64,.79,7.27,1.6,10.89,2.45,1.74,.41,2.67,1.43,2.58,3.37-.12,2.48-.03,4.97-.03,7.46Zm-12.94-2.48c0,.83,0,1.66,0,2.48,0,4.27,0,4.28,3.95,5.38,1.03,.29,2.14,.35,3.13,.74,1.83,.72,2.25-.26,2.26-1.73,.03-3.31,.04-6.62-.02-9.93-.02-1.13-.4-2.08-1.77-2.32-1.95-.35-3.91-.69-5.81-1.24-1.48-.43-1.76,.16-1.75,1.41,.02,1.74,0,3.48,0,5.21Z"/>
        <path class="cls-3" d="M123.51,45.47c0,2.65,0,5.3,0,7.95,0,1.19-.27,2.21-1.67,2.3-1.45,.09-2.17-.85-2.18-2.15-.05-5.46-.05-10.93,.01-16.39,.01-1.19,.48-2.44,1.98-2.37,1.42,.07,1.86,1.16,1.86,2.46,0,2.73,0,5.46,0,8.2Z"/>
        <path class="cls-3" d="M93.08,72.14c0-2.57-.02-5.15,0-7.72,0-1.18,.06-2.57,1.59-2.65,1.61-.08,1.96,1.19,1.96,2.58-.01,5.31,0,10.62,0,15.94,0,1.24-.16,2.52-1.7,2.52-1.45,0-1.86-1.14-1.85-2.45,.02-2.74,0-5.48,0-8.22Z"/>
      </g>
    </g>
  </g>
</svg>